STARTFONT 2.1
FONT -FontForge-Rajdhani-Book-R-Normal--28-280-72-72-P-171-ISO10646-1
SIZE 28 72 72
FONTBOUNDINGBOX 69 34 -12 -9
COMMENT "Generated by fontforge, http://fontforge.sourceforge.net"
COMMENT "Copyright (c) 2014 Indian Type Foundry (info@indiantypefoundry.com)"
STARTPROPERTIES 40
FOUNDRY "FontForge"
FAMILY_NAME "Rajdhani"
WEIGHT_NAME "Book"
SLANT "R"
SETWIDTH_NAME "Normal"
ADD_STYLE_NAME ""
PIXEL_SIZE 28
POINT_SIZE 280
RESOLUTION_X 72
RESOLUTION_Y 72
SPACING "P"
AVERAGE_WIDTH 171
CHARSET_REGISTRY "ISO10646"
CHARSET_ENCODING "1"
FONTNAME_REGISTRY ""
CHARSET_COLLECTIONS "ISO8859-2 ISO8859-9 ISO8859-4 ISO10646-1"
FONT_NAME "Rajdhani-Regular"
FACE_NAME "Rajdhani Regular"
COPYRIGHT "Copyright (c) 2014 Indian Type Foundry (info@indiantypefoundry.com)"
FONT_VERSION "1.201;PS 1.0;hotconv 1.0.78;makeotf.lib2.5.61930; ttfautohint (v1.1) -l 7 -r 28 -G 50 -x 13 -D latn -f deva -w G"
FONT_ASCENT 22
FONT_DESCENT 6
UNDERLINE_POSITION -3
UNDERLINE_THICKNESS 2
X_HEIGHT 13
CAP_HEIGHT 17
DEFAULT_CHAR 3
RAW_ASCENT 800
RAW_DESCENT 200
NORM_SPACE 7
RELATIVE_WEIGHT 40
RELATIVE_SETWIDTH 50
SUPERSCRIPT_X 0
SUPERSCRIPT_Y 9
SUPERSCRIPT_SIZE 16
SUBSCRIPT_X 0
SUBSCRIPT_Y 2
SUBSCRIPT_SIZE 16
AVG_LOWERCASE_WIDTH 126
AVG_UPPERCASE_WIDTH 145
ENDPROPERTIES
CHARS 1043
STARTCHAR NULL.dup1
ENCODING 0
SWIDTH 0 0
DWIDTH 0 0
BBX 1 1 0 0
BITMAP
00
ENDCHAR
STARTCHAR CR
ENCODING 13
SWIDTH 0 0
DWIDTH 0 0
BBX 1 1 0 0
BITMAP
00
ENDCHAR
STARTCHAR space
ENCODING 32
SWIDTH 267 0
DWIDTH 7 0
BBX 1 1 0 0
BITMAP
00
ENDCHAR
STARTCHAR exclam
ENCODING 33
SWIDTH 237 0
DWIDTH 7 0
BBX 1 18 3 0
BITMAP
80
80
80
80
80
80
80
80
80
80
80
80
00
00
80
80
80
80
ENDCHAR
STARTCHAR quotedbl
ENCODING 34
SWIDTH 330 0
DWIDTH 9 0
BBX 5 6 2 12
BITMAP
88
88
88
88
88
88
ENDCHAR
STARTCHAR numbersign
ENCODING 35
SWIDTH 677 0
DWIDTH 19 0
BBX 15 18 2 0
BITMAP
0204
020C
0608
0408
0418
7FFE
0C10
0810
0830
1820
1020
1060
FFFC
3040
2040
20C0
6080
4080
ENDCHAR
STARTCHAR dollar
ENCODING 36
SWIDTH 504 0
DWIDTH 14 0
BBX 10 23 2 -2
BITMAP
0400
0400
0400
3F00
6180
C0C0
8040
8040
8000
8000
C000
7F80
01C0
00C0
0040
0040
8040
8040
C0C0
6180
3F00
0400
0400
ENDCHAR
STARTCHAR percent
ENCODING 37
SWIDTH 717 0
DWIDTH 20 0
BBX 18 18 1 0
BITMAP
3C0800
660800
C21000
C31000
C33000
C22000
426000
7E4000
004000
008000
008F00
019080
0110C0
031040
021040
0210C0
041980
040F80
ENDCHAR
STARTCHAR ampersand
ENCODING 38
SWIDTH 597 0
DWIDTH 17 0
BBX 13 18 2 0
BITMAP
1F80
30C0
2040
2040
2040
2000
2000
1000
7800
EC00
C7F8
8200
8100
8080
80C0
C0E0
61B0
3F18
ENDCHAR
STARTCHAR quotesingle
ENCODING 39
SWIDTH 186 0
DWIDTH 5 0
BBX 1 5 2 13
BITMAP
80
80
80
80
80
ENDCHAR
STARTCHAR parenleft
ENCODING 40
SWIDTH 283 0
DWIDTH 8 0
BBX 4 20 2 -2
BITMAP
30
C0
80
80
80
80
80
80
80
80
80
80
80
80
80
80
80
80
C0
70
ENDCHAR
STARTCHAR parenright
ENCODING 41
SWIDTH 283 0
DWIDTH 8 0
BBX 4 20 2 -2
BITMAP
C0
60
30
10
10
10
10
10
10
10
10
10
10
10
10
10
10
30
20
E0
ENDCHAR
STARTCHAR asterisk
ENCODING 42
SWIDTH 406 0
DWIDTH 11 0
BBX 7 7 2 11
BITMAP
10
10
92
EE
10
28
64
ENDCHAR
STARTCHAR plus
ENCODING 43
SWIDTH 523 0
DWIDTH 15 0
BBX 11 11 2 3
BITMAP
0400
0400
0400
0400
0400
FFE0
0400
0400
0400
0400
0400
ENDCHAR
STARTCHAR comma
ENCODING 44
SWIDTH 191 0
DWIDTH 5 0
BBX 1 7 2 -3
BITMAP
80
80
80
80
80
80
80
ENDCHAR
STARTCHAR hyphen
ENCODING 45
SWIDTH 312 0
DWIDTH 9 0
BBX 7 1 1 8
BITMAP
FE
ENDCHAR
STARTCHAR period
ENCODING 46
SWIDTH 191 0
DWIDTH 5 0
BBX 1 4 2 0
BITMAP
80
80
80
80
ENDCHAR
STARTCHAR slash
ENCODING 47
SWIDTH 396 0
DWIDTH 11 0
BBX 7 18 2 0
BITMAP
02
06
06
04
0C
0C
08
18
10
10
30
20
20
60
40
C0
C0
80
ENDCHAR
STARTCHAR zero
ENCODING 48
SWIDTH 514 0
DWIDTH 14 0
BBX 11 18 2 0
BITMAP
3F80
60C0
C040
8040
8060
8060
8060
8060
8060
8060
8060
8060
8060
8060
8040
C040
60C0
3F80
ENDCHAR
STARTCHAR one
ENCODING 49
SWIDTH 317 0
DWIDTH 9 0
BBX 6 18 1 0
BITMAP
1C
3C
CC
8C
0C
0C
0C
0C
0C
0C
0C
0C
0C
0C
0C
0C
0C
0C
ENDCHAR
STARTCHAR two
ENCODING 50
SWIDTH 478 0
DWIDTH 13 0
BBX 10 18 2 0
BITMAP
7F00
C180
80C0
80C0
80C0
80C0
0080
0180
0300
0600
1C00
3000
6000
C000
8000
8000
8000
FFC0
ENDCHAR
STARTCHAR three
ENCODING 51
SWIDTH 496 0
DWIDTH 14 0
BBX 10 18 2 0
BITMAP
3F00
4180
C0C0
8040
8040
8040
0040
00C0
0080
0F00
0180
00C0
0040
8040
8040
80C0
C180
7F00
ENDCHAR
STARTCHAR four
ENCODING 52
SWIDTH 520 0
DWIDTH 15 0
BBX 13 18 1 0
BITMAP
00C0
01C0
0140
0240
0640
0440
0C40
0840
1040
3040
2040
6040
4040
FFF8
0040
0040
0040
0040
ENDCHAR
STARTCHAR five
ENCODING 53
SWIDTH 482 0
DWIDTH 14 0
BBX 10 18 2 0
BITMAP
FFC0
8000
8000
8000
8000
8000
8000
BF00
C180
80C0
0040
0040
0040
8040
80C0
C0C0
E180
3F00
ENDCHAR
STARTCHAR six
ENCODING 54
SWIDTH 497 0
DWIDTH 14 0
BBX 10 18 2 0
BITMAP
7F80
C000
8000
8000
8000
8000
8000
FF00
8180
80C0
8040
8040
8040
8040
8040
80C0
C180
7F00
ENDCHAR
STARTCHAR seven
ENCODING 55
SWIDTH 380 0
DWIDTH 11 0
BBX 10 18 0 0
BITMAP
FFC0
00C0
00C0
0080
0180
0180
0100
0300
0200
0600
0600
0400
0C00
0C00
0800
1800
1000
3000
ENDCHAR
STARTCHAR eight
ENCODING 56
SWIDTH 519 0
DWIDTH 15 0
BBX 11 18 2 0
BITMAP
3F80
60C0
C040
8060
8060
8060
8060
C040
40C0
3F80
60C0
8040
8060
8060
8060
C060
E0C0
3F80
ENDCHAR
STARTCHAR nine
ENCODING 57
SWIDTH 497 0
DWIDTH 14 0
BBX 10 18 2 0
BITMAP
7F00
C180
80C0
8040
8040
8040
8040
8040
8040
C040
7FC0
0040
0040
0040
0040
00C0
0180
FF00
ENDCHAR
STARTCHAR colon
ENCODING 58
SWIDTH 191 0
DWIDTH 5 0
BBX 1 14 2 0
BITMAP
80
80
80
80
00
00
00
00
00
00
80
80
80
80
ENDCHAR
STARTCHAR semicolon
ENCODING 59
SWIDTH 191 0
DWIDTH 5 0
BBX 1 17 2 -3
BITMAP
80
80
80
80
00
00
00
00
00
00
80
80
80
80
80
80
80
ENDCHAR
STARTCHAR less
ENCODING 60
SWIDTH 513 0
DWIDTH 14 0
BBX 11 9 2 4
BITMAP
00E0
0780
3C00
E000
C000
3800
0F00
01C0
0020
ENDCHAR
STARTCHAR equal
ENCODING 61
SWIDTH 531 0
DWIDTH 15 0
BBX 11 6 2 6
BITMAP
FFE0
0000
0000
0000
0000
FFE0
ENDCHAR
STARTCHAR greater
ENCODING 62
SWIDTH 531 0
DWIDTH 15 0
BBX 11 9 2 4
BITMAP
E000
3C00
0700
00E0
0060
0380
1C00
F000
8000
ENDCHAR
STARTCHAR question
ENCODING 63
SWIDTH 473 0
DWIDTH 13 0
BBX 9 18 2 0
BITMAP
3E00
6180
C080
8080
8080
0080
0180
0300
0600
0C00
0C00
0C00
0000
0000
0C00
0C00
0C00
0C00
ENDCHAR
STARTCHAR at
ENCODING 64
SWIDTH 753 0
DWIDTH 21 0
BBX 17 18 2 -1
BITMAP
0FFE00
1C0300
300180
600080
43F080
C61080
841080
8C1080
8C1080
8C1080
8C1080
8C1180
C63100
43DE00
400000
200000
180000
0FF800
ENDCHAR
STARTCHAR A
ENCODING 65
SWIDTH 533 0
DWIDTH 15 0
BBX 13 18 1 0
BITMAP
0700
0700
0500
0D80
0D80
0880
1880
18C0
1040
3040
3060
2020
7FE0
6030
4010
4010
C018
8008
ENDCHAR
STARTCHAR B
ENCODING 66
SWIDTH 546 0
DWIDTH 15 0
BBX 11 18 2 0
BITMAP
FF80
C0C0
C060
C020
C020
C020
C020
C060
FF80
C060
C020
C020
C020
C020
C020
C020
C060
FF80
ENDCHAR
STARTCHAR C
ENCODING 67
SWIDTH 542 0
DWIDTH 15 0
BBX 11 18 2 0
BITMAP
3FC0
6060
C020
C020
C020
C020
C000
C000
C000
C000
C000
C000
C020
C020
C020
C020
6060
3FC0
ENDCHAR
STARTCHAR D
ENCODING 68
SWIDTH 557 0
DWIDTH 16 0
BBX 12 18 2 0
BITMAP
FFC0
C060
C020
C020
C030
C030
C030
C030
C030
C030
C030
C030
C030
C030
C020
C020
C060
FFC0
ENDCHAR
STARTCHAR E
ENCODING 69
SWIDTH 481 0
DWIDTH 13 0
BBX 10 18 2 0
BITMAP
FFC0
C000
C000
C000
C000
C000
C000
C000
FF80
C000
C000
C000
C000
C000
C000
C000
C000
FFC0
ENDCHAR
STARTCHAR F
ENCODING 70
SWIDTH 459 0
DWIDTH 13 0
BBX 10 18 2 0
BITMAP
FFC0
C000
C000
C000
C000
C000
C000
C000
C000
FF80
C000
C000
C000
C000
C000
C000
C000
C000
ENDCHAR
STARTCHAR G
ENCODING 71
SWIDTH 539 0
DWIDTH 15 0
BBX 11 18 2 0
BITMAP
3F80
60C0
C060
C020
C020
C020
C000
C000
C000
C3E0
C020
C020
C020
C020
C020
C060
60C0
3F80
ENDCHAR
STARTCHAR H
ENCODING 72
SWIDTH 570 0
DWIDTH 16 0
BBX 12 18 2 0
BITMAP
C030
C030
C030
C030
C030
C030
C030
C030
FFF0
C030
C030
C030
C030
C030
C030
C030
C030
C030
ENDCHAR
STARTCHAR I
ENCODING 73
SWIDTH 230 0
DWIDTH 6 0
BBX 1 18 3 0
BITMAP
80
80
80
80
80
80
80
80
80
80
80
80
80
80
80
80
80
80
ENDCHAR
STARTCHAR J
ENCODING 74
SWIDTH 499 0
DWIDTH 14 0
BBX 11 18 1 0
BITMAP
0060
0060
0060
0060
0060
0060
0060
0060
0060
0060
0060
8060
8060
8060
C060
C060
60C0
3F80
ENDCHAR
STARTCHAR K
ENCODING 75
SWIDTH 530 0
DWIDTH 15 0
BBX 12 18 2 0
BITMAP
C060
C040
C0C0
C180
C300
C200
C600
CC00
DC00
D600
E200
E300
C180
C080
C0C0
C060
C020
C030
ENDCHAR
STARTCHAR L
ENCODING 76
SWIDTH 451 0
DWIDTH 13 0
BBX 10 18 2 0
BITMAP
C000
C000
C000
C000
C000
C000
C000
C000
C000
C000
C000
C000
C000
C000
C000
C000
C000
FFC0
ENDCHAR
STARTCHAR M
ENCODING 77
SWIDTH 696 0
DWIDTH 19 0
BBX 15 18 2 0
BITMAP
E006
E00E
E00A
F00A
D01A
D812
C832
CC22
C462
C442
C642
C2C2
C382
C182
C002
C002
C002
C002
ENDCHAR
STARTCHAR N
ENCODING 78
SWIDTH 579 0
DWIDTH 16 0
BBX 12 18 2 0
BITMAP
C030
E030
E030
F030
D030
D830
C830
CC30
C630
C230
C330
C130
C1B0
C0F0
C070
C070
C030
C030
ENDCHAR
STARTCHAR O
ENCODING 79
SWIDTH 553 0
DWIDTH 15 0
BBX 11 18 2 0
BITMAP
3FC0
6060
C020
C020
C020
C020
C020
C020
C020
C020
C020
C020
C020
C020
C020
C020
6060
3FC0
ENDCHAR
STARTCHAR P
ENCODING 80
SWIDTH 524 0
DWIDTH 15 0
BBX 11 18 2 0
BITMAP
FF80
C0C0
C060
C020
C020
C020
C020
C020
C060
C040
FFC0
C000
C000
C000
C000
C000
C000
C000
ENDCHAR
STARTCHAR Q
ENCODING 81
SWIDTH 556 0
DWIDTH 16 0
BBX 11 22 2 -4
BITMAP
3FC0
6060
C020
C020
C020
C020
C020
C020
C020
C020
C020
C020
C020
C020
C020
C020
6060
3FC0
0100
0180
0080
00C0
ENDCHAR
STARTCHAR R
ENCODING 82
SWIDTH 534 0
DWIDTH 15 0
BBX 11 18 2 0
BITMAP
FF80
C0C0
C060
C020
C020
C020
C020
C020
C060
C040
FF80
C100
C180
C080
C0C0
C040
C060
C020
ENDCHAR
STARTCHAR S
ENCODING 83
SWIDTH 562 0
DWIDTH 16 0
BBX 11 18 2 0
BITMAP
3FC0
6060
C020
C020
C020
C000
C000
6000
3E00
07C0
00E0
0020
0020
C020
C020
C020
6060
3FC0
ENDCHAR
STARTCHAR T
ENCODING 84
SWIDTH 420 0
DWIDTH 12 0
BBX 11 18 0 0
BITMAP
FFE0
0600
0600
0600
0600
0600
0600
0600
0600
0600
0600
0600
0600
0600
0600
0600
0600
0600
ENDCHAR
STARTCHAR U
ENCODING 85
SWIDTH 552 0
DWIDTH 15 0
BBX 11 18 2 0
BITMAP
C020
C020
C020
C020
C020
C020
C020
C020
C020
C020
C020
C020
C020
C020
C020
C060
60E0
3F80
ENDCHAR
STARTCHAR V
ENCODING 86
SWIDTH 500 0
DWIDTH 14 0
BBX 12 18 1 0
BITMAP
8010
C030
C030
4020
4060
6060
2040
2040
30C0
1080
1080
1980
1980
0900
0900
0F00
0600
0600
ENDCHAR
STARTCHAR W
ENCODING 87
SWIDTH 794 0
DWIDTH 22 0
BBX 20 18 1 0
BITMAP
C06010
C06030
C07030
40D030
409020
609020
609860
618860
210860
210840
330C40
3304C0
1204C0
120680
160680
1C0280
1C0380
0C0380
ENDCHAR
STARTCHAR X
ENCODING 88
SWIDTH 504 0
DWIDTH 14 0
BBX 12 18 1 0
BITMAP
C030
6020
2060
30C0
1080
1980
0900
0F00
0600
0700
0D00
1980
1080
30C0
2040
6060
4020
C030
ENDCHAR
STARTCHAR Y
ENCODING 89
SWIDTH 493 0
DWIDTH 14 0
BBX 12 18 1 0
BITMAP
8030
C020
4060
6040
20C0
3080
1180
1900
0B00
0E00
0600
0600
0600
0600
0600
0600
0600
0600
ENDCHAR
STARTCHAR Z
ENCODING 90
SWIDTH 482 0
DWIDTH 14 0
BBX 11 18 1 0
BITMAP
FFE0
0060
0040
00C0
0180
0180
0300
0200
0600
0C00
0C00
1800
1000
3000
6000
6000
C000
FFE0
ENDCHAR
STARTCHAR bracketleft
ENCODING 91
SWIDTH 287 0
DWIDTH 8 0
BBX 4 20 2 -2
BITMAP
F0
80
80
80
80
80
80
80
80
80
80
80
80
80
80
80
80
80
80
F0
ENDCHAR
STARTCHAR backslash
ENCODING 92
SWIDTH 396 0
DWIDTH 11 0
BBX 7 18 2 0
BITMAP
80
C0
C0
40
60
20
20
30
10
10
18
08
0C
0C
04
06
06
02
ENDCHAR
STARTCHAR bracketright
ENCODING 93
SWIDTH 287 0
DWIDTH 8 0
BBX 4 20 2 -2
BITMAP
F0
10
10
10
10
10
10
10
10
10
10
10
10
10
10
10
10
10
10
F0
ENDCHAR
STARTCHAR asciicircum
ENCODING 94
SWIDTH 465 0
DWIDTH 13 0
BBX 9 7 2 11
BITMAP
1C00
1400
3600
2200
6300
4180
8080
ENDCHAR
STARTCHAR underscore
ENCODING 95
SWIDTH 372 0
DWIDTH 10 0
BBX 10 1 0 -3
BITMAP
FFC0
ENDCHAR
STARTCHAR grave
ENCODING 96
SWIDTH 269 0
DWIDTH 8 0
BBX 4 3 2 16
BITMAP
C0
60
30
ENDCHAR
STARTCHAR a
ENCODING 97
SWIDTH 502 0
DWIDTH 14 0
BBX 10 14 2 0
BITMAP
3FC0
E040
C040
8040
8040
8040
8040
8040
8040
8040
8040
C0C0
E1C0
3F40
ENDCHAR
STARTCHAR b
ENCODING 98
SWIDTH 504 0
DWIDTH 14 0
BBX 10 19 2 0
BITMAP
C000
C000
C000
C000
C000
DF80
E0C0
C040
C040
C040
C040
C040
C040
C040
C040
C040
C040
C0C0
FF80
ENDCHAR
STARTCHAR c
ENCODING 99
SWIDTH 394 0
DWIDTH 11 0
BBX 8 14 2 0
BITMAP
3F
E0
C0
80
80
80
80
80
80
80
80
C0
E0
3F
ENDCHAR
STARTCHAR d
ENCODING 100
SWIDTH 504 0
DWIDTH 14 0
BBX 10 19 2 0
BITMAP
0040
0040
0040
0040
0040
3F40
E140
C0C0
8040
8040
8040
8040
8040
8040
8040
8040
C0C0
E1C0
3F40
ENDCHAR
STARTCHAR e
ENCODING 101
SWIDTH 492 0
DWIDTH 14 0
BBX 10 14 2 0
BITMAP
3F00
E180
C0C0
8040
8040
8040
8040
FFC0
8000
8000
8000
8000
E000
3FC0
ENDCHAR
STARTCHAR f
ENCODING 102
SWIDTH 303 0
DWIDTH 8 0
BBX 7 19 1 0
BITMAP
0E
18
30
30
30
FE
30
30
30
30
30
30
30
30
30
30
30
30
30
ENDCHAR
STARTCHAR g
ENCODING 103
SWIDTH 506 0
DWIDTH 14 0
BBX 10 18 2 -4
BITMAP
3FC0
6040
C040
8040
8040
8040
8040
8040
8040
8040
C0C0
C0C0
7F40
0040
0040
00C0
0180
7F00
ENDCHAR
STARTCHAR h
ENCODING 104
SWIDTH 507 0
DWIDTH 14 0
BBX 10 19 2 0
BITMAP
C000
C000
C000
C000
C000
DF00
E1C0
C040
C040
C040
C040
C040
C040
C040
C040
C040
C040
C040
C040
ENDCHAR
STARTCHAR i
ENCODING 105
SWIDTH 210 0
DWIDTH 6 0
BBX 2 19 2 0
BITMAP
C0
C0
C0
00
00
C0
C0
C0
C0
C0
C0
C0
C0
C0
C0
C0
C0
C0
C0
ENDCHAR
STARTCHAR j
ENCODING 106
SWIDTH 210 0
DWIDTH 6 0
BBX 5 23 -1 -4
BITMAP
18
18
18
00
00
18
18
18
18
18
18
18
18
18
18
18
18
18
18
18
10
30
E0
ENDCHAR
STARTCHAR k
ENCODING 107
SWIDTH 431 0
DWIDTH 12 0
BBX 10 19 2 0
BITMAP
C000
C000
C000
C000
C000
C180
C100
C300
C600
C400
CC00
D800
C800
CC00
C600
C200
C300
C180
C0C0
ENDCHAR
STARTCHAR l
ENCODING 108
SWIDTH 210 0
DWIDTH 6 0
BBX 2 19 2 0
BITMAP
C0
C0
C0
C0
C0
C0
C0
C0
C0
C0
C0
C0
C0
C0
C0
C0
C0
C0
C0
ENDCHAR
STARTCHAR m
ENCODING 109
SWIDTH 769 0
DWIDTH 22 0
BBX 18 14 2 0
BITMAP
DF1F00
E1E180
C0C080
C0C0C0
C0C0C0
C0C0C0
C0C0C0
C0C0C0
C0C0C0
C0C0C0
C0C0C0
C0C0C0
C0C0C0
C0C0C0
ENDCHAR
STARTCHAR n
ENCODING 110
SWIDTH 507 0
DWIDTH 14 0
BBX 10 14 2 0
BITMAP
DF00
E1C0
C040
C040
C040
C040
C040
C040
C040
C040
C040
C040
C040
C040
ENDCHAR
STARTCHAR o
ENCODING 111
SWIDTH 496 0
DWIDTH 14 0
BBX 10 14 2 0
BITMAP
3F00
E180
C0C0
8040
8040
8040
8040
8040
8040
8040
8040
C0C0
E180
3F00
ENDCHAR
STARTCHAR p
ENCODING 112
SWIDTH 504 0
DWIDTH 14 0
BBX 10 18 2 -4
BITMAP
DF80
E1C0
C040
C040
C040
C040
C040
C040
C040
C040
C040
C040
E0C0
DF00
C000
C000
C000
C000
ENDCHAR
STARTCHAR q
ENCODING 113
SWIDTH 502 0
DWIDTH 14 0
BBX 10 18 2 -4
BITMAP
3FC0
E040
C040
8040
8040
8040
8040
8040
8040
8040
80C0
C0C0
E1C0
3F40
0040
0040
0040
0040
ENDCHAR
STARTCHAR r
ENCODING 114
SWIDTH 313 0
DWIDTH 9 0
BBX 6 14 2 0
BITMAP
DC
E0
C0
C0
C0
C0
C0
C0
C0
C0
C0
C0
C0
C0
ENDCHAR
STARTCHAR s
ENCODING 115
SWIDTH 431 0
DWIDTH 12 0
BBX 10 14 1 0
BITMAP
3F80
6000
C000
C000
4000
7000
1C00
0300
0080
0080
00C0
00C0
0180
7F00
ENDCHAR
STARTCHAR t
ENCODING 116
SWIDTH 347 0
DWIDTH 10 0
BBX 8 17 1 0
BITMAP
20
20
20
FE
20
20
20
20
20
20
20
20
20
20
30
18
0F
ENDCHAR
STARTCHAR u
ENCODING 117
SWIDTH 507 0
DWIDTH 14 0
BBX 10 14 2 0
BITMAP
8040
8040
8040
8040
8040
8040
8040
8040
8040
8040
8040
C0C0
61C0
3F40
ENDCHAR
STARTCHAR v
ENCODING 118
SWIDTH 416 0
DWIDTH 12 0
BBX 10 14 1 0
BITMAP
8040
80C0
C080
4080
4180
6100
2100
2300
3200
3200
1600
1600
1C00
0C00
ENDCHAR
STARTCHAR w
ENCODING 119
SWIDTH 683 0
DWIDTH 19 0
BBX 18 14 1 0
BITMAP
8080C0
81C080
C14180
414180
414100
636100
622300
222200
223200
361600
141600
141400
1C1C00
180C00
ENDCHAR
STARTCHAR x
ENCODING 120
SWIDTH 413 0
DWIDTH 12 0
BBX 10 14 1 0
BITMAP
C0C0
4180
6100
2300
3200
1600
0C00
1C00
1600
3200
2300
6180
C080
C0C0
ENDCHAR
STARTCHAR y
ENCODING 121
SWIDTH 459 0
DWIDTH 13 0
BBX 11 18 1 -4
BITMAP
8020
C060
4040
40C0
60C0
2080
2180
3180
1100
1B00
1B00
0A00
0E00
0400
0400
0C00
1800
F000
ENDCHAR
STARTCHAR z
ENCODING 122
SWIDTH 405 0
DWIDTH 11 0
BBX 9 14 1 0
BITMAP
FF80
0180
0100
0300
0600
0400
0C00
1800
1800
3000
2000
6000
C000
FF80
ENDCHAR
STARTCHAR braceleft
ENCODING 123
SWIDTH 298 0
DWIDTH 8 0
BBX 6 20 1 -2
BITMAP
1C
10
30
20
20
20
20
20
20
20
C0
60
20
20
20
20
20
20
30
1C
ENDCHAR
STARTCHAR bar
ENCODING 124
SWIDTH 207 0
DWIDTH 6 0
BBX 1 18 2 0
BITMAP
80
80
80
80
80
80
80
80
80
80
80
80
80
80
80
80
80
80
ENDCHAR
STARTCHAR braceright
ENCODING 125
SWIDTH 298 0
DWIDTH 8 0
BBX 6 20 1 -2
BITMAP
C0
60
20
30
30
30
30
30
30
10
0C
18
30
30
30
30
30
30
20
E0
ENDCHAR
STARTCHAR asciitilde
ENCODING 126
SWIDTH 523 0
DWIDTH 15 0
BBX 11 2 2 8
BITMAP
FC60
CFC0
ENDCHAR
STARTCHAR uni00A0
ENCODING 160
SWIDTH 267 0
DWIDTH 7 0
BBX 1 1 0 0
BITMAP
00
ENDCHAR
STARTCHAR exclamdown
ENCODING 161
SWIDTH 237 0
DWIDTH 7 0
BBX 1 18 3 0
BITMAP
80
80
80
80
00
00
80
80
80
80
80
80
80
80
80
80
80
80
ENDCHAR
STARTCHAR cent
ENCODING 162
SWIDTH 414 0
DWIDTH 12 0
BBX 9 19 2 -2
BITMAP
0400
0400
0400
3F80
E000
C000
8000
8000
8000
8000
8000
8000
8000
8000
C000
E000
3F80
0400
0400
ENDCHAR
STARTCHAR sterling
ENCODING 163
SWIDTH 528 0
DWIDTH 15 0
BBX 12 18 1 0
BITMAP
0FC0
1860
3030
2030
2030
2000
2000
2000
2000
FF00
2000
2000
2000
2000
2000
2000
6000
FFF0
ENDCHAR
STARTCHAR yen
ENCODING 165
SWIDTH 499 0
DWIDTH 14 0
BBX 12 18 1 0
BITMAP
C030
C030
4060
6060
20C0
30C0
1180
1980
FBF0
0E00
0600
0600
FFF0
0600
0600
0600
0600
0600
ENDCHAR
STARTCHAR brokenbar
ENCODING 166
SWIDTH 201 0
DWIDTH 6 0
BBX 1 18 2 0
BITMAP
80
80
80
80
80
80
80
00
00
00
00
80
80
80
80
80
80
80
ENDCHAR
STARTCHAR section
ENCODING 167
SWIDTH 454 0
DWIDTH 13 0
BBX 9 18 2 0
BITMAP
7F00
C000
8000
8000
8000
C000
BE00
8300
8180
8080
E080
3E80
0380
0180
0080
0180
0380
FF00
ENDCHAR
STARTCHAR dieresis
ENCODING 168
SWIDTH 345 0
DWIDTH 10 0
BBX 6 4 2 15
BITMAP
8C
8C
8C
8C
ENDCHAR
STARTCHAR copyright
ENCODING 169
SWIDTH 723 0
DWIDTH 20 0
BBX 16 18 2 0
BITMAP
3FFE
6003
C001
8001
83E1
8661
8C11
8811
8801
8801
8801
8811
8811
8431
83E1
8001
6003
3FFE
ENDCHAR
STARTCHAR guillemotleft
ENCODING 171
SWIDTH 431 0
DWIDTH 12 0
BBX 8 10 2 2
BITMAP
09
11
22
44
88
88
44
22
11
09
ENDCHAR
STARTCHAR registered
ENCODING 174
SWIDTH 439 0
DWIDTH 12 0
BBX 8 8 2 11
BITMAP
7E
DF
95
95
9D
95
81
7F
ENDCHAR
STARTCHAR macron
ENCODING 175
SWIDTH 358 0
DWIDTH 10 0
BBX 6 1 2 17
BITMAP
FC
ENDCHAR
STARTCHAR degree
ENCODING 176
SWIDTH 298 0
DWIDTH 8 0
BBX 4 6 2 13
BITMAP
F0
90
90
90
90
F0
ENDCHAR
STARTCHAR plusminus
ENCODING 177
SWIDTH 523 0
DWIDTH 15 0
BBX 11 11 2 3
BITMAP
0400
0400
0400
FFE0
0400
0400
0400
0400
0000
0000
FFE0
ENDCHAR
STARTCHAR acute
ENCODING 180
SWIDTH 269 0
DWIDTH 8 0
BBX 4 3 2 16
BITMAP
30
60
C0
ENDCHAR
STARTCHAR paragraph
ENCODING 182
SWIDTH 513 0
DWIDTH 14 0
BBX 11 18 1 0
BITMAP
3FE0
7820
F820
F820
F820
F820
F820
7820
3820
0820
0820
0820
0820
0820
0820
0820
0820
0820
ENDCHAR
STARTCHAR periodcentered
ENCODING 183
SWIDTH 207 0
DWIDTH 6 0
BBX 2 4 2 7
BITMAP
C0
C0
C0
C0
ENDCHAR
STARTCHAR cedilla
ENCODING 184
SWIDTH 257 0
DWIDTH 7 0
BBX 3 5 2 -5
BITMAP
60
E0
20
20
E0
ENDCHAR
STARTCHAR guillemotright
ENCODING 187
SWIDTH 431 0
DWIDTH 12 0
BBX 8 10 2 2
BITMAP
90
88
44
22
11
11
22
44
88
90
ENDCHAR
STARTCHAR questiondown
ENCODING 191
SWIDTH 473 0
DWIDTH 13 0
BBX 9 18 2 0
BITMAP
0800
0800
0800
0800
0000
0000
0800
0800
0800
1000
6000
4000
C000
8080
8080
C080
6180
3E00
ENDCHAR
STARTCHAR Agrave
ENCODING 192
SWIDTH 532 0
DWIDTH 15 0
BBX 13 23 1 0
BITMAP
1800
0C00
0400
0200
0000
0700
0700
0500
0D80
0D80
0880
1880
18C0
1040
3040
3060
2020
7FE0
6030
4010
4010
C018
8008
ENDCHAR
STARTCHAR Aacute
ENCODING 193
SWIDTH 532 0
DWIDTH 15 0
BBX 13 23 1 0
BITMAP
00C0
0180
0100
0200
0000
0700
0700
0500
0D80
0D80
0880
1880
18C0
1040
3040
3060
2020
7FE0
6030
4010
4010
C018
8008
ENDCHAR
STARTCHAR Acircumflex
ENCODING 194
SWIDTH 532 0
DWIDTH 15 0
BBX 13 23 1 0
BITMAP
0600
0500
0980
0880
0000
0700
0700
0500
0D80
0D80
0880
1880
18C0
1040
3040
3060
2020
7FE0
6030
4010
4010
C018
8008
ENDCHAR
STARTCHAR Atilde
ENCODING 195
SWIDTH 532 0
DWIDTH 15 0
BBX 13 23 1 0
BITMAP
1180
1280
1240
0C40
0000
0700
0700
0500
0D80
0D80
0880
1880
18C0
1040
3040
3060
2020
7FE0
6030
4010
4010
C018
8008
ENDCHAR
STARTCHAR Adieresis
ENCODING 196
SWIDTH 532 0
DWIDTH 15 0
BBX 13 23 1 0
BITMAP
1880
1880
1880
1880
0000
0700
0700
0500
0D80
0D80
0880
1880
18C0
1040
3040
3060
2020
7FE0
6030
4010
4010
C018
8008
ENDCHAR
STARTCHAR Aring
ENCODING 197
SWIDTH 532 0
DWIDTH 15 0
BBX 13 24 1 0
BITMAP
0700
0880
0880
0880
0F00
0000
0700
0700
0500
0D80
0D80
0880
1880
18C0
1040
3040
3060
2020
7FE0
6030
4010
4010
C018
8008
ENDCHAR
STARTCHAR AE
ENCODING 198
SWIDTH 773 0
DWIDTH 22 0
BBX 20 18 0 0
BITMAP
007FF0
007000
00D000
009000
019000
011000
031000
021000
061FE0
041000
0C1000
181000
1FF000
301000
201000
601000
401000
C01FF0
ENDCHAR
STARTCHAR Ccedilla
ENCODING 199
SWIDTH 542 0
DWIDTH 15 0
BBX 11 23 2 -5
BITMAP
3FC0
6060
C020
C020
C020
C020
C000
C000
C000
C000
C000
C000
C020
C020
C020
C020
6060
3FC0
0400
0C00
0100
0100
0700
ENDCHAR
STARTCHAR Egrave
ENCODING 200
SWIDTH 481 0
DWIDTH 13 0
BBX 10 23 2 0
BITMAP
3000
1800
0800
0400
0000
FFC0
C000
C000
C000
C000
C000
C000
C000
FF80
C000
C000
C000
C000
C000
C000
C000
C000
FFC0
ENDCHAR
STARTCHAR Eacute
ENCODING 201
SWIDTH 481 0
DWIDTH 13 0
BBX 10 23 2 0
BITMAP
0300
0600
0400
0800
0000
FFC0
C000
C000
C000
C000
C000
C000
C000
FF80
C000
C000
C000
C000
C000
C000
C000
C000
FFC0
ENDCHAR
STARTCHAR Ecircumflex
ENCODING 202
SWIDTH 481 0
DWIDTH 13 0
BBX 10 23 2 0
BITMAP
0C00
1E00
1200
2100
0000
FFC0
C000
C000
C000
C000
C000
C000
C000
FF80
C000
C000
C000
C000
C000
C000
C000
C000
FFC0
ENDCHAR
STARTCHAR Edieresis
ENCODING 203
SWIDTH 481 0
DWIDTH 13 0
BBX 10 23 2 0
BITMAP
2100
2100
2100
2100
0000
FFC0
C000
C000
C000
C000
C000
C000
C000
FF80
C000
C000
C000
C000
C000
C000
C000
C000
FFC0
ENDCHAR
STARTCHAR Igrave
ENCODING 204
SWIDTH 230 0
DWIDTH 6 0
BBX 4 23 0 0
BITMAP
C0
60
20
10
00
10
10
10
10
10
10
10
10
10
10
10
10
10
10
10
10
10
10
ENDCHAR
STARTCHAR Iacute
ENCODING 205
SWIDTH 231 0
DWIDTH 6 0
BBX 4 23 3 0
BITMAP
70
40
C0
80
00
80
80
80
80
80
80
80
80
80
80
80
80
80
80
80
80
80
80
ENDCHAR
STARTCHAR Icircumflex
ENCODING 206
SWIDTH 229 0
DWIDTH 6 0
BBX 6 23 0 0
BITMAP
30
28
48
C4
00
10
10
10
10
10
10
10
10
10
10
10
10
10
10
10
10
10
10
ENDCHAR
STARTCHAR Idieresis
ENCODING 207
SWIDTH 230 0
DWIDTH 6 0
BBX 6 23 0 0
BITMAP
C4
C4
C4
C4
00
10
10
10
10
10
10
10
10
10
10
10
10
10
10
10
10
10
10
ENDCHAR
STARTCHAR Eth
ENCODING 208
SWIDTH 514 0
DWIDTH 14 0
BBX 13 18 1 0
BITMAP
7FE0
6030
6010
6018
6018
6018
6018
6018
FF18
6018
6018
6018
6018
6018
6018
6010
6030
7FE0
ENDCHAR
STARTCHAR Ntilde
ENCODING 209
SWIDTH 579 0
DWIDTH 16 0
BBX 12 23 2 0
BITMAP
1380
1280
1480
1C80
0000
C030
E030
E030
F030
D030
D830
C830
CC30
C630
C230
C330
C130
C1B0
C0F0
C070
C070
C030
C030
ENDCHAR
STARTCHAR Ograve
ENCODING 210
SWIDTH 553 0
DWIDTH 15 0
BBX 11 23 2 0
BITMAP
3800
0800
0C00
0400
0000
3FC0
6060
C020
C020
C020
C020
C020
C020
C020
C020
C020
C020
C020
C020
C020
C020
6060
3FC0
ENDCHAR
STARTCHAR Oacute
ENCODING 211
SWIDTH 553 0
DWIDTH 15 0
BBX 11 23 2 0
BITMAP
0180
0300
0200
0400
0000
3FC0
6060
C020
C020
C020
C020
C020
C020
C020
C020
C020
C020
C020
C020
C020
C020
6060
3FC0
ENDCHAR
STARTCHAR Ocircumflex
ENCODING 212
SWIDTH 553 0
DWIDTH 15 0
BBX 11 23 2 0
BITMAP
0600
0A00
0900
1100
0000
3FC0
6060
C020
C020
C020
C020
C020
C020
C020
C020
C020
C020
C020
C020
C020
C020
6060
3FC0
ENDCHAR
STARTCHAR Otilde
ENCODING 213
SWIDTH 553 0
DWIDTH 15 0
BBX 11 23 2 0
BITMAP
1300
1680
1480
1C80
0000
3FC0
6060
C020
C020
C020
C020
C020
C020
C020
C020
C020
C020
C020
C020
C020
C020
6060
3FC0
ENDCHAR
STARTCHAR Odieresis
ENCODING 214
SWIDTH 553 0
DWIDTH 15 0
BBX 11 23 2 0
BITMAP
1180
1180
1180
1180
0000
3FC0
6060
C020
C020
C020
C020
C020
C020
C020
C020
C020
C020
C020
C020
C020
C020
6060
3FC0
ENDCHAR
STARTCHAR multiply
ENCODING 215
SWIDTH 493 0
DWIDTH 14 0
BBX 8 8 3 5
BITMAP
81
C3
66
3C
18
2C
46
83
ENDCHAR
STARTCHAR Oslash
ENCODING 216
SWIDTH 559 0
DWIDTH 16 0
BBX 13 18 1 0
BITMAP
1FE8
3038
6010
6030
6078
6058
6098
6198
6118
6218
6418
6C18
6818
7018
7010
6010
7030
9FE0
ENDCHAR
STARTCHAR Ugrave
ENCODING 217
SWIDTH 552 0
DWIDTH 15 0
BBX 11 23 2 0
BITMAP
1800
0800
0400
0200
0000
C020
C020
C020
C020
C020
C020
C020
C020
C020
C020
C020
C020
C020
C020
C020
C060
60E0
3F80
ENDCHAR
STARTCHAR Uacute
ENCODING 218
SWIDTH 552 0
DWIDTH 15 0
BBX 11 23 2 0
BITMAP
0180
0300
0200
0400
0000
C020
C020
C020
C020
C020
C020
C020
C020
C020
C020
C020
C020
C020
C020
C020
C060
60E0
3F80
ENDCHAR
STARTCHAR Ucircumflex
ENCODING 219
SWIDTH 552 0
DWIDTH 15 0
BBX 11 23 2 0
BITMAP
0600
0A00
0900
1100
0000
C020
C020
C020
C020
C020
C020
C020
C020
C020
C020
C020
C020
C020
C020
C020
C060
60E0
3F80
ENDCHAR
STARTCHAR Udieresis
ENCODING 220
SWIDTH 552 0
DWIDTH 15 0
BBX 11 23 2 0
BITMAP
1180
1180
1180
1180
0000
C020
C020
C020
C020
C020
C020
C020
C020
C020
C020
C020
C020
C020
C020
C020
C060
60E0
3F80
ENDCHAR
STARTCHAR Yacute
ENCODING 221
SWIDTH 493 0
DWIDTH 14 0
BBX 12 23 1 0
BITMAP
0180
0300
0200
0400
0000
8030
C020
4060
6040
20C0
3080
1180
1900
0B00
0E00
0600
0600
0600
0600
0600
0600
0600
0600
ENDCHAR
STARTCHAR Thorn
ENCODING 222
SWIDTH 501 0
DWIDTH 14 0
BBX 9 18 3 0
BITMAP
C000
C000
C000
C000
FE00
C300
C180
C080
C080
C080
C080
C180
C180
FF00
C000
C000
C000
C000
ENDCHAR
STARTCHAR germandbls
ENCODING 223
SWIDTH 540 0
DWIDTH 15 0
BBX 11 18 2 0
BITMAP
3F80
60C0
C060
C060
C060
C060
C060
C0C0
C780
C0C0
C060
C020
C020
C020
C020
C060
C0C0
CF80
ENDCHAR
STARTCHAR agrave
ENCODING 224
SWIDTH 502 0
DWIDTH 14 0
BBX 10 19 2 0
BITMAP
1800
0800
0400
0000
0000
3FC0
E040
C040
8040
8040
8040
8040
8040
8040
8040
8040
C0C0
E1C0
3F40
ENDCHAR
STARTCHAR aacute
ENCODING 225
SWIDTH 502 0
DWIDTH 14 0
BBX 10 19 2 0
BITMAP
0300
0200
0400
0000
0000
3FC0
E040
C040
8040
8040
8040
8040
8040
8040
8040
8040
C0C0
E1C0
3F40
ENDCHAR
STARTCHAR acircumflex
ENCODING 226
SWIDTH 502 0
DWIDTH 14 0
BBX 10 19 2 0
BITMAP
0C00
0A00
1300
0000
0000
3FC0
E040
C040
8040
8040
8040
8040
8040
8040
8040
8040
C0C0
E1C0
3F40
ENDCHAR
STARTCHAR atilde
ENCODING 227
SWIDTH 504 0
DWIDTH 14 0
BBX 10 19 2 0
BITMAP
1300
1480
1C80
0000
0000
3FC0
E040
C040
8040
8040
8040
8040
8040
8040
8040
8040
C0C0
E1C0
3F40
ENDCHAR
STARTCHAR adieresis
ENCODING 228
SWIDTH 502 0
DWIDTH 14 0
BBX 10 19 2 0
BITMAP
1100
1100
1100
1100
0000
3FC0
E040
C040
8040
8040
8040
8040
8040
8040
8040
8040
C0C0
E1C0
3F40
ENDCHAR
STARTCHAR aring
ENCODING 229
SWIDTH 502 0
DWIDTH 14 0
BBX 10 20 2 0
BITMAP
1E00
1200
1200
1200
1E00
0000
3FC0
E040
C040
8040
8040
8040
8040
8040
8040
8040
8040
C0C0
E1C0
3F40
ENDCHAR
STARTCHAR ae
ENCODING 230
SWIDTH 795 0
DWIDTH 22 0
BBX 18 14 2 0
BITMAP
7F3F80
01E0C0
00C040
00C040
00C040
00C040
7FC040
C0FFC0
80C000
80C000
80C000
80C000
E1E000
7F3FC0
ENDCHAR
STARTCHAR ccedilla
ENCODING 231
SWIDTH 394 0
DWIDTH 11 0
BBX 8 19 2 -5
BITMAP
3F
E0
C0
80
80
80
80
80
80
80
80
C0
E0
3F
08
18
02
02
1C
ENDCHAR
STARTCHAR egrave
ENCODING 232
SWIDTH 492 0
DWIDTH 14 0
BBX 10 19 2 0
BITMAP
3000
1800
0800
0400
0000
3F00
E180
C0C0
8040
8040
8040
8040
FFC0
8000
8000
8000
8000
E000
3FC0
ENDCHAR
STARTCHAR eacute
ENCODING 233
SWIDTH 492 0
DWIDTH 14 0
BBX 10 19 2 0
BITMAP
0300
0600
0C00
0000
0000
3F00
E180
C0C0
8040
8040
8040
8040
FFC0
8000
8000
8000
8000
E000
3FC0
ENDCHAR
STARTCHAR ecircumflex
ENCODING 234
SWIDTH 492 0
DWIDTH 14 0
BBX 10 19 2 0
BITMAP
0C00
1600
1200
2100
0000
3F00
E180
C0C0
8040
8040
8040
8040
FFC0
8000
8000
8000
8000
E000
3FC0
ENDCHAR
STARTCHAR edieresis
ENCODING 235
SWIDTH 492 0
DWIDTH 14 0
BBX 10 19 2 0
BITMAP
2100
2100
2100
2100
0000
3F00
E180
C0C0
8040
8040
8040
8040
FFC0
8000
8000
8000
8000
E000
3FC0
ENDCHAR
STARTCHAR igrave
ENCODING 236
SWIDTH 210 0
DWIDTH 6 0
BBX 4 19 0 0
BITMAP
C0
40
20
00
00
30
30
30
30
30
30
30
30
30
30
30
30
30
30
ENDCHAR
STARTCHAR iacute
ENCODING 237
SWIDTH 208 0
DWIDTH 6 0
BBX 4 19 2 0
BITMAP
30
60
40
80
00
C0
C0
C0
C0
C0
C0
C0
C0
C0
C0
C0
C0
C0
C0
ENDCHAR
STARTCHAR icircumflex
ENCODING 238
SWIDTH 210 0
DWIDTH 6 0
BBX 6 19 0 0
BITMAP
30
58
48
84
00
30
30
30
30
30
30
30
30
30
30
30
30
30
30
ENDCHAR
STARTCHAR idieresis
ENCODING 239
SWIDTH 210 0
DWIDTH 6 0
BBX 6 19 0 0
BITMAP
84
84
84
84
00
30
30
30
30
30
30
30
30
30
30
30
30
30
30
ENDCHAR
STARTCHAR eth
ENCODING 240
SWIDTH 488 0
DWIDTH 14 0
BBX 10 19 2 0
BITMAP
2080
1300
1E00
0C00
1E00
2300
4180
0080
3FC0
E1C0
C0C0
80C0
80C0
80C0
80C0
80C0
C0C0
E180
3F00
ENDCHAR
STARTCHAR ntilde
ENCODING 241
SWIDTH 507 0
DWIDTH 14 0
BBX 10 19 2 0
BITMAP
2700
2500
3900
0000
0000
DF00
E1C0
C040
C040
C040
C040
C040
C040
C040
C040
C040
C040
C040
C040
ENDCHAR
STARTCHAR ograve
ENCODING 242
SWIDTH 496 0
DWIDTH 14 0
BBX 10 19 2 0
BITMAP
3000
1000
0800
0400
0000
3F00
E180
C0C0
8040
8040
8040
8040
8040
8040
8040
8040
C0C0
E180
3F00
ENDCHAR
STARTCHAR oacute
ENCODING 243
SWIDTH 496 0
DWIDTH 14 0
BBX 10 19 2 0
BITMAP
0300
0600
0400
0800
0000
3F00
E180
C0C0
8040
8040
8040
8040
8040
8040
8040
8040
C0C0
E180
3F00
ENDCHAR
STARTCHAR ocircumflex
ENCODING 244
SWIDTH 496 0
DWIDTH 14 0
BBX 10 19 2 0
BITMAP
0C00
1600
1200
2100
0000
3F00
E180
C0C0
8040
8040
8040
8040
8040
8040
8040
8040
C0C0
E180
3F00
ENDCHAR
STARTCHAR otilde
ENCODING 245
SWIDTH 496 0
DWIDTH 14 0
BBX 10 19 2 0
BITMAP
2700
2D00
3900
0000
0000
3F00
E180
C0C0
8040
8040
8040
8040
8040
8040
8040
8040
C0C0
E180
3F00
ENDCHAR
STARTCHAR odieresis
ENCODING 246
SWIDTH 496 0
DWIDTH 14 0
BBX 10 19 2 0
BITMAP
2100
2100
2100
2100
0000
3F00
E180
C0C0
8040
8040
8040
8040
8040
8040
8040
8040
C0C0
E180
3F00
ENDCHAR
STARTCHAR divide
ENCODING 247
SWIDTH 510 0
DWIDTH 14 0
BBX 10 10 2 4
BITMAP
0400
0400
0000
0000
FFC0
0000
0000
0000
0400
0400
ENDCHAR
STARTCHAR oslash
ENCODING 248
SWIDTH 521 0
DWIDTH 15 0
BBX 13 14 1 0
BITMAP
1FC0
30F8
6030
6060
60E0
61A0
6320
6620
6C20
7820
7020
6020
B060
1FC0
ENDCHAR
STARTCHAR ugrave
ENCODING 249
SWIDTH 507 0
DWIDTH 14 0
BBX 10 19 2 0
BITMAP
3000
1800
0800
0400
0000
8040
8040
8040
8040
8040
8040
8040
8040
8040
8040
8040
C0C0
61C0
3F40
ENDCHAR
STARTCHAR uacute
ENCODING 250
SWIDTH 507 0
DWIDTH 14 0
BBX 10 19 2 0
BITMAP
0300
0200
0400
0800
0000
8040
8040
8040
8040
8040
8040
8040
8040
8040
8040
8040
C0C0
61C0
3F40
ENDCHAR
STARTCHAR ucircumflex
ENCODING 251
SWIDTH 507 0
DWIDTH 14 0
BBX 10 19 2 0
BITMAP
0C00
1A00
1200
2100
0000
8040
8040
8040
8040
8040
8040
8040
8040
8040
8040
8040
C0C0
61C0
3F40
ENDCHAR
STARTCHAR udieresis
ENCODING 252
SWIDTH 507 0
DWIDTH 14 0
BBX 10 19 2 0
BITMAP
2100
2100
2100
2100
0000
8040
8040
8040
8040
8040
8040
8040
8040
8040
8040
8040
C0C0
61C0
3F40
ENDCHAR
STARTCHAR yacute
ENCODING 253
SWIDTH 459 0
DWIDTH 13 0
BBX 11 23 1 -4
BITMAP
0180
0300
0600
0000
0000
8020
C060
4040
40C0
60C0
2080
2180
3180
1100
1B00
1B00
0A00
0E00
0400
0400
0C00
1800
F000
ENDCHAR
STARTCHAR thorn
ENCODING 254
SWIDTH 508 0
DWIDTH 14 0
BBX 10 23 2 -4
BITMAP
C000
C000
C000
C000
C000
DF80
E0C0
C040
C040
C040
C040
C040
C040
C040
C040
C040
C040
E0C0
DF80
C000
C000
C000
C000
ENDCHAR
STARTCHAR ydieresis
ENCODING 255
SWIDTH 459 0
DWIDTH 13 0
BBX 11 23 1 -4
BITMAP
3100
3100
3100
3100
0000
8020
C060
4040
40C0
60C0
2080
2180
3180
1100
1B00
1B00
0A00
0E00
0400
0400
0C00
1800
F000
ENDCHAR
STARTCHAR Amacron
ENCODING 256
SWIDTH 532 0
DWIDTH 15 0
BBX 13 22 1 0
BITMAP
1FC0
0000
0000
0000
0700
0700
0500
0D80
0D80
0880
1880
18C0
1040
3040
3060
2020
7FE0
6030
4010
4010
C018
8008
ENDCHAR
STARTCHAR amacron
ENCODING 257
SWIDTH 502 0
DWIDTH 14 0
BBX 10 18 2 0
BITMAP
1F80
0000
0000
0000
3FC0
E040
C040
8040
8040
8040
8040
8040
8040
8040
8040
C0C0
E1C0
3F40
ENDCHAR
STARTCHAR Abreve
ENCODING 258
SWIDTH 532 0
DWIDTH 15 0
BBX 13 23 1 0
BITMAP
0880
0880
0880
0700
0000
0700
0700
0500
0D80
0D80
0880
1880
18C0
1040
3040
3060
2020
7FE0
6030
4010
4010
C018
8008
ENDCHAR
STARTCHAR abreve
ENCODING 259
SWIDTH 502 0
DWIDTH 14 0
BBX 10 19 2 0
BITMAP
1100
1100
0E00
0000
0000
3FC0
E040
C040
8040
8040
8040
8040
8040
8040
8040
8040
C0C0
E1C0
3F40
ENDCHAR
STARTCHAR Aogonek
ENCODING 260
SWIDTH 532 0
DWIDTH 15 0
BBX 13 21 1 -3
BITMAP
0700
0700
0500
0D80
0D80
0880
1880
18C0
1040
3040
3060
2020
7FE0
6030
4010
4010
C018
8008
0010
0020
0038
ENDCHAR
STARTCHAR aogonek
ENCODING 261
SWIDTH 502 0
DWIDTH 14 0
BBX 10 17 2 -3
BITMAP
3FC0
E040
C040
8040
8040
8040
8040
8040
8040
8040
8040
C0C0
E1C0
3F40
0080
0100
01C0
ENDCHAR
STARTCHAR Cacute
ENCODING 262
SWIDTH 542 0
DWIDTH 15 0
BBX 11 23 2 0
BITMAP
0180
0300
0200
0400
0000
3FC0
6060
C020
C020
C020
C020
C000
C000
C000
C000
C000
C000
C020
C020
C020
C020
6060
3FC0
ENDCHAR
STARTCHAR cacute
ENCODING 263
SWIDTH 394 0
DWIDTH 11 0
BBX 8 19 2 0
BITMAP
07
04
08
00
00
3F
E0
C0
80
80
80
80
80
80
80
80
C0
E0
3F
ENDCHAR
STARTCHAR Cdotaccent
ENCODING 266
SWIDTH 542 0
DWIDTH 15 0
BBX 11 23 2 0
BITMAP
0400
0400
0400
0000
0000
3FC0
6060
C020
C020
C020
C020
C000
C000
C000
C000
C000
C000
C020
C020
C020
C020
6060
3FC0
ENDCHAR
STARTCHAR cdotaccent
ENCODING 267
SWIDTH 394 0
DWIDTH 11 0
BBX 8 19 2 0
BITMAP
08
08
08
00
00
3F
E0
C0
80
80
80
80
80
80
80
80
C0
E0
3F
ENDCHAR
STARTCHAR Ccaron
ENCODING 268
SWIDTH 542 0
DWIDTH 15 0
BBX 11 23 2 0
BITMAP
1980
0900
0E00
0400
0000
3FC0
6060
C020
C020
C020
C020
C000
C000
C000
C000
C000
C000
C020
C020
C020
C020
6060
3FC0
ENDCHAR
STARTCHAR ccaron
ENCODING 269
SWIDTH 394 0
DWIDTH 11 0
BBX 8 19 2 0
BITMAP
22
14
1C
00
00
3F
E0
C0
80
80
80
80
80
80
80
80
C0
E0
3F
ENDCHAR
STARTCHAR Dcaron
ENCODING 270
SWIDTH 557 0
DWIDTH 16 0
BBX 12 23 2 0
BITMAP
1100
0B00
0A00
0400
0000
FFC0
C060
C020
C020
C030
C030
C030
C030
C030
C030
C030
C030
C030
C030
C020
C020
C060
FFC0
ENDCHAR
STARTCHAR dcaron
ENCODING 271
SWIDTH 534 0
DWIDTH 15 0
BBX 13 19 2 0
BITMAP
0048
0048
0048
0048
0048
3E48
FF50
C0C0
80C0
8040
8040
8040
8040
8040
8040
8040
80C0
E1C0
3F40
ENDCHAR
STARTCHAR Dcroat
ENCODING 272
SWIDTH 514 0
DWIDTH 14 0
BBX 13 18 1 0
BITMAP
7FE0
6030
6010
6018
6018
6018
6018
FF18
6018
6018
6018
6018
6018
6018
6018
6010
6030
7FE0
ENDCHAR
STARTCHAR dcroat
ENCODING 273
SWIDTH 539 0
DWIDTH 15 0
BBX 12 19 2 0
BITMAP
0040
0040
0040
0FF0
0040
0040
0040
3F40
E1C0
C0C0
8040
8040
8040
8040
8040
8040
C0C0
E1C0
3F40
ENDCHAR
STARTCHAR Emacron
ENCODING 274
SWIDTH 481 0
DWIDTH 13 0
BBX 10 22 2 0
BITMAP
3F00
0000
0000
0000
FFC0
C000
C000
C000
C000
C000
C000
C000
FF80
C000
C000
C000
C000
C000
C000
C000
C000
FFC0
ENDCHAR
STARTCHAR emacron
ENCODING 275
SWIDTH 492 0
DWIDTH 14 0
BBX 10 18 2 0
BITMAP
3F00
0000
0000
0000
3F00
E180
C0C0
8040
8040
8040
8040
FFC0
8000
8000
8000
8000
E000
3FC0
ENDCHAR
STARTCHAR Ebreve
ENCODING 276
SWIDTH 481 0
DWIDTH 13 0
BBX 10 23 2 0
BITMAP
2100
2100
2200
1C00
0000
FFC0
C000
C000
C000
C000
C000
C000
C000
FF80
C000
C000
C000
C000
C000
C000
C000
C000
FFC0
ENDCHAR
STARTCHAR ebreve
ENCODING 277
SWIDTH 492 0
DWIDTH 14 0
BBX 10 19 2 0
BITMAP
2100
2300
1E00
0000
0000
3F00
E180
C0C0
8040
8040
8040
8040
FFC0
8000
8000
8000
8000
E000
3FC0
ENDCHAR
STARTCHAR Edotaccent
ENCODING 278
SWIDTH 496 0
DWIDTH 14 0
BBX 10 23 2 0
BITMAP
0C00
0C00
0C00
0000
0000
FFC0
C000
C000
C000
C000
C000
C000
C000
FF80
C000
C000
C000
C000
C000
C000
C000
C000
FFC0
ENDCHAR
STARTCHAR edotaccent
ENCODING 279
SWIDTH 492 0
DWIDTH 14 0
BBX 10 19 2 0
BITMAP
0C00
0C00
0C00
0000
0000
3F00
E180
C0C0
8040
8040
8040
8040
FFC0
8000
8000
8000
8000
E000
3FC0
ENDCHAR
STARTCHAR Eogonek
ENCODING 280
SWIDTH 481 0
DWIDTH 13 0
BBX 10 21 2 -3
BITMAP
FFC0
C000
C000
C000
C000
C000
C000
C000
FF80
C000
C000
C000
C000
C000
C000
C000
C000
FFC0
0100
0200
0700
ENDCHAR
STARTCHAR eogonek
ENCODING 281
SWIDTH 492 0
DWIDTH 14 0
BBX 10 17 2 -3
BITMAP
3F00
E180
C0C0
8040
8040
8040
8040
FFC0
8000
8000
8000
8000
E000
3FC0
0100
0200
0700
ENDCHAR
STARTCHAR Ecaron
ENCODING 282
SWIDTH 481 0
DWIDTH 13 0
BBX 10 23 2 0
BITMAP
3300
1200
0C00
0400
0000
FFC0
C000
C000
C000
C000
C000
C000
C000
FF80
C000
C000
C000
C000
C000
C000
C000
C000
FFC0
ENDCHAR
STARTCHAR ecaron
ENCODING 283
SWIDTH 492 0
DWIDTH 14 0
BBX 10 19 2 0
BITMAP
3300
1200
0C00
0000
0000
3F00
E180
C0C0
8040
8040
8040
8040
FFC0
8000
8000
8000
8000
E000
3FC0
ENDCHAR
STARTCHAR Gcircumflex
ENCODING 284
SWIDTH 539 0
DWIDTH 15 0
BBX 11 23 2 0
BITMAP
0600
0A00
1900
1100
0000
3F80
60C0
C060
C020
C020
C020
C000
C000
C000
C3E0
C020
C020
C020
C020
C020
C060
60C0
3F80
ENDCHAR
STARTCHAR gcircumflex
ENCODING 285
SWIDTH 506 0
DWIDTH 14 0
BBX 10 23 2 -4
BITMAP
0E00
0A00
1100
0000
0000
3FC0
6040
C040
8040
8040
8040
8040
8040
8040
8040
C0C0
C0C0
7F40
0040
0040
00C0
0180
7F00
ENDCHAR
STARTCHAR Gbreve
ENCODING 286
SWIDTH 539 0
DWIDTH 15 0
BBX 11 23 2 0
BITMAP
1100
1100
1100
0E00
0000
3F80
60C0
C060
C020
C020
C020
C000
C000
C000
C3E0
C020
C020
C020
C020
C020
C060
60C0
3F80
ENDCHAR
STARTCHAR gbreve
ENCODING 287
SWIDTH 506 0
DWIDTH 14 0
BBX 10 23 2 -4
BITMAP
1080
1100
0F00
0000
0000
3FC0
6040
C040
8040
8040
8040
8040
8040
8040
8040
C0C0
C0C0
7F40
0040
0040
00C0
0180
7F00
ENDCHAR
STARTCHAR Gdotaccent
ENCODING 288
SWIDTH 539 0
DWIDTH 15 0
BBX 11 23 2 0
BITMAP
0400
0400
0400
0000
0000
3F80
60C0
C060
C020
C020
C020
C000
C000
C000
C3E0
C020
C020
C020
C020
C020
C060
60C0
3F80
ENDCHAR
STARTCHAR gdotaccent
ENCODING 289
SWIDTH 506 0
DWIDTH 14 0
BBX 10 23 2 -4
BITMAP
0400
0400
0400
0000
0000
3FC0
6040
C040
8040
8040
8040
8040
8040
8040
8040
C0C0
C0C0
7F40
0040
0040
00C0
0180
7F00
ENDCHAR
STARTCHAR uni0122
ENCODING 290
SWIDTH 539 0
DWIDTH 15 0
BBX 11 25 2 -7
BITMAP
3F80
60C0
C060
C020
C020
C020
C000
C000
C000
C3E0
C020
C020
C020
C020
C020
C060
60C0
3F80
0000
0600
0600
0600
0400
0400
0400
ENDCHAR
STARTCHAR uni0123
ENCODING 291
SWIDTH 506 0
DWIDTH 14 0
BBX 10 25 2 -4
BITMAP
0200
0400
0400
0400
0400
0400
0000
3FC0
6040
C040
8040
8040
8040
8040
8040
8040
8040
C0C0
C0C0
7F40
0040
0040
00C0
0180
7F00
ENDCHAR
STARTCHAR hcircumflex
ENCODING 293
SWIDTH 507 0
DWIDTH 14 0
BBX 10 21 2 0
BITMAP
0600
0A00
C900
D100
C000
C000
C000
DF00
E1C0
C040
C040
C040
C040
C040
C040
C040
C040
C040
C040
C040
C040
ENDCHAR
STARTCHAR Hbar
ENCODING 294
SWIDTH 523 0
DWIDTH 15 0
BBX 15 18 1 0
BITMAP
6018
6018
6018
6018
FFFE
6018
6018
6018
6018
7FF8
6018
6018
6018
6018
6018
6018
6018
6018
ENDCHAR
STARTCHAR hbar
ENCODING 295
SWIDTH 544 0
DWIDTH 15 0
BBX 12 19 1 0
BITMAP
2000
2000
2000
FF80
2000
2000
2000
2FE0
2830
3010
3010
2010
2010
2010
2010
2010
2010
2010
2010
ENDCHAR
STARTCHAR Itilde
ENCODING 296
SWIDTH 230 0
DWIDTH 6 0
BBX 6 23 0 0
BITMAP
9C
94
94
64
00
10
10
10
10
10
10
10
10
10
10
10
10
10
10
10
10
10
10
ENDCHAR
STARTCHAR itilde
ENCODING 297
SWIDTH 210 0
DWIDTH 6 0
BBX 6 19 0 0
BITMAP
9C
B4
E4
00
00
30
30
30
30
30
30
30
30
30
30
30
30
30
30
ENDCHAR
STARTCHAR Imacron
ENCODING 298
SWIDTH 230 0
DWIDTH 6 0
BBX 6 22 0 0
BITMAP
FC
00
00
00
10
10
10
10
10
10
10
10
10
10
10
10
10
10
10
10
10
10
ENDCHAR
STARTCHAR imacron
ENCODING 299
SWIDTH 208 0
DWIDTH 6 0
BBX 6 18 0 0
BITMAP
FC
00
00
00
30
30
30
30
30
30
30
30
30
30
30
30
30
30
ENDCHAR
STARTCHAR Ibreve
ENCODING 300
SWIDTH 231 0
DWIDTH 6 0
BBX 6 23 0 0
BITMAP
84
C4
44
38
00
10
10
10
10
10
10
10
10
10
10
10
10
10
10
10
10
10
10
ENDCHAR
STARTCHAR ibreve
ENCODING 301
SWIDTH 211 0
DWIDTH 6 0
BBX 6 19 0 0
BITMAP
84
84
78
00
00
30
30
30
30
30
30
30
30
30
30
30
30
30
30
ENDCHAR
STARTCHAR Iogonek
ENCODING 302
SWIDTH 230 0
DWIDTH 6 0
BBX 3 21 1 -3
BITMAP
20
20
20
20
20
20
20
20
20
20
20
20
20
20
20
20
20
20
40
80
E0
ENDCHAR
STARTCHAR iogonek
ENCODING 303
SWIDTH 210 0
DWIDTH 6 0
BBX 3 22 1 -3
BITMAP
60
60
60
00
00
60
60
60
60
60
60
60
60
60
60
60
60
60
60
40
80
C0
ENDCHAR
STARTCHAR Idotaccent
ENCODING 304
SWIDTH 230 0
DWIDTH 6 0
BBX 1 22 3 0
BITMAP
80
80
80
00
80
80
80
80
80
80
80
80
80
80
80
80
80
80
80
80
80
80
ENDCHAR
STARTCHAR dotlessi
ENCODING 305
SWIDTH 212 0
DWIDTH 6 0
BBX 2 14 2 0
BITMAP
C0
C0
C0
C0
C0
C0
C0
C0
C0
C0
C0
C0
C0
C0
ENDCHAR
STARTCHAR IJ
ENCODING 306
SWIDTH 721 0
DWIDTH 20 0
BBX 15 18 3 0
BITMAP
8002
8002
8002
8002
8002
8002
8002
8002
8002
8002
8002
8402
8C02
8C02
8C02
8406
860C
83F8
ENDCHAR
STARTCHAR ij
ENCODING 307
SWIDTH 419 0
DWIDTH 12 0
BBX 7 23 2 -4
BITMAP
C2
C2
C2
00
00
C2
C2
C2
C2
C2
C2
C2
C2
C2
C2
C2
C2
C2
C2
02
02
06
3C
ENDCHAR
STARTCHAR Jcircumflex
ENCODING 308
SWIDTH 494 0
DWIDTH 14 0
BBX 13 23 1 0
BITMAP
0060
00F0
0090
0108
0000
0060
0060
0060
0060
0060
0060
0060
0060
0060
0060
0060
8060
8060
8060
C060
C060
60C0
3F80
ENDCHAR
STARTCHAR jcircumflex
ENCODING 309
SWIDTH 209 0
DWIDTH 6 0
BBX 7 23 -1 -4
BITMAP
18
2C
24
42
00
18
18
18
18
18
18
18
18
18
18
18
18
18
18
18
10
30
E0
ENDCHAR
STARTCHAR uni0136
ENCODING 310
SWIDTH 530 0
DWIDTH 15 0
BBX 12 25 2 -7
BITMAP
C060
C040
C0C0
C180
C300
C200
C600
CC00
DC00
D600
E200
E300
C180
C080
C0C0
C060
C020
C030
0000
0600
0600
0600
0600
0400
0400
ENDCHAR
STARTCHAR uni0137
ENCODING 311
SWIDTH 431 0
DWIDTH 12 0
BBX 10 26 2 -7
BITMAP
C000
C000
C000
C000
C000
C180
C100
C300
C600
C400
CC00
D800
C800
CC00
C600
C200
C300
C180
C0C0
0000
0800
0800
0800
0800
0800
0800
ENDCHAR
STARTCHAR Lacute
ENCODING 313
SWIDTH 451 0
DWIDTH 13 0
BBX 10 23 2 0
BITMAP
3000
2000
4000
4000
0000
C000
C000
C000
C000
C000
C000
C000
C000
C000
C000
C000
C000
C000
C000
C000
C000
C000
FFC0
ENDCHAR
STARTCHAR lacute
ENCODING 314
SWIDTH 207 0
DWIDTH 6 0
BBX 4 24 2 0
BITMAP
30
60
40
80
00
C0
C0
C0
C0
C0
C0
C0
C0
C0
C0
C0
C0
C0
C0
C0
C0
C0
C0
C0
ENDCHAR
STARTCHAR uni013B
ENCODING 315
SWIDTH 451 0
DWIDTH 13 0
BBX 10 25 2 -7
BITMAP
C000
C000
C000
C000
C000
C000
C000
C000
C000
C000
C000
C000
C000
C000
C000
C000
C000
FFC0
0000
0C00
0C00
0C00
0C00
0800
0800
ENDCHAR
STARTCHAR uni013C
ENCODING 316
SWIDTH 211 0
DWIDTH 6 0
BBX 2 26 2 -7
BITMAP
C0
C0
C0
C0
C0
C0
C0
C0
C0
C0
C0
C0
C0
C0
C0
C0
C0
C0
C0
00
C0
C0
C0
80
80
80
ENDCHAR
STARTCHAR Lcaron
ENCODING 317
SWIDTH 451 0
DWIDTH 13 0
BBX 10 18 2 0
BITMAP
C100
C100
C100
C100
C100
C100
C200
C000
C000
C000
C000
C000
C000
C000
C000
C000
C000
FFC0
ENDCHAR
STARTCHAR lcaron
ENCODING 318
SWIDTH 274 0
DWIDTH 8 0
BBX 5 19 2 0
BITMAP
C8
C8
C8
C8
C8
C8
C8
C0
C0
C0
C0
C0
C0
C0
C0
C0
C0
C0
C0
ENDCHAR
STARTCHAR Ldot
ENCODING 319
SWIDTH 500 0
DWIDTH 14 0
BBX 10 18 2 0
BITMAP
C000
C000
C000
C000
C000
C000
C000
C200
C200
C200
C200
C000
C000
C000
C000
C000
C000
FFC0
ENDCHAR
STARTCHAR ldot
ENCODING 320
SWIDTH 314 0
DWIDTH 9 0
BBX 6 19 2 0
BITMAP
C0
C0
C0
C0
C0
C0
C0
C0
CC
CC
CC
CC
C0
C0
C0
C0
C0
C0
C0
ENDCHAR
STARTCHAR Lslash
ENCODING 321
SWIDTH 504 0
DWIDTH 14 0
BBX 12 18 0 0
BITMAP
1000
1000
1000
1000
1200
1C00
3000
F000
9000
1000
1000
1000
1000
1000
1000
1000
1000
1FF0
ENDCHAR
STARTCHAR lslash
ENCODING 322
SWIDTH 296 0
DWIDTH 8 0
BBX 7 19 1 0
BITMAP
30
30
30
30
30
32
3C
38
70
B0
30
30
30
30
30
30
30
30
30
ENDCHAR
STARTCHAR Nacute
ENCODING 323
SWIDTH 579 0
DWIDTH 16 0
BBX 12 23 2 0
BITMAP
00C0
0180
0300
0200
0000
C030
E030
E030
F030
D030
D830
C830
CC30
C630
C230
C330
C130
C1B0
C0F0
C070
C070
C030
C030
ENDCHAR
STARTCHAR nacute
ENCODING 324
SWIDTH 507 0
DWIDTH 14 0
BBX 10 19 2 0
BITMAP
0300
0200
0400
0000
0000
DF00
E1C0
C040
C040
C040
C040
C040
C040
C040
C040
C040
C040
C040
C040
ENDCHAR
STARTCHAR uni0145
ENCODING 325
SWIDTH 579 0
DWIDTH 16 0
BBX 12 25 2 -7
BITMAP
C030
E030
E030
F030
D030
D830
C830
CC30
C630
C230
C330
C130
C1B0
C0F0
C070
C070
C030
C030
0000
0600
0600
0600
0600
0400
0400
ENDCHAR
STARTCHAR uni0146
ENCODING 326
SWIDTH 505 0
DWIDTH 14 0
BBX 10 21 2 -7
BITMAP
DF00
E1C0
C040
C040
C040
C040
C040
C040
C040
C040
C040
C040
C040
C040
0000
0C00
0C00
0C00
0C00
0800
0800
ENDCHAR
STARTCHAR Ncaron
ENCODING 327
SWIDTH 579 0
DWIDTH 16 0
BBX 12 23 2 0
BITMAP
1980
0900
0600
0200
0000
C030
E030
E030
F030
D030
D830
C830
CC30
C630
C230
C330
C130
C1B0
C0F0
C070
C070
C030
C030
ENDCHAR
STARTCHAR ncaron
ENCODING 328
SWIDTH 507 0
DWIDTH 14 0
BBX 10 19 2 0
BITMAP
3300
1200
0C00
0000
0000
DF00
E1C0
C040
C040
C040
C040
C040
C040
C040
C040
C040
C040
C040
C040
ENDCHAR
STARTCHAR Eng
ENCODING 330
SWIDTH 519 0
DWIDTH 15 0
BBX 12 22 2 -4
BITMAP
C030
E030
E030
F030
D030
D830
C830
C430
C630
C230
C330
C130
C1B0
C0F0
C070
C070
C030
C030
0030
0030
0060
01C0
ENDCHAR
STARTCHAR eng
ENCODING 331
SWIDTH 507 0
DWIDTH 14 0
BBX 10 18 2 -4
BITMAP
DF00
E1C0
C040
C040
C040
C040
C040
C040
C040
C040
C040
C040
C040
C040
0040
0040
01C0
0700
ENDCHAR
STARTCHAR Omacron
ENCODING 332
SWIDTH 553 0
DWIDTH 15 0
BBX 11 22 2 0
BITMAP
1F80
0000
0000
0000
3FC0
6060
C020
C020
C020
C020
C020
C020
C020
C020
C020
C020
C020
C020
C020
C020
6060
3FC0
ENDCHAR
STARTCHAR omacron
ENCODING 333
SWIDTH 496 0
DWIDTH 14 0
BBX 10 18 2 0
BITMAP
3F00
0000
0000
0000
3F00
E180
C0C0
8040
8040
8040
8040
8040
8040
8040
8040
C0C0
E180
3F00
ENDCHAR
STARTCHAR Obreve
ENCODING 334
SWIDTH 553 0
DWIDTH 15 0
BBX 11 23 2 0
BITMAP
1080
1100
1100
0E00
0000
3FC0
6060
C020
C020
C020
C020
C020
C020
C020
C020
C020
C020
C020
C020
C020
C020
6060
3FC0
ENDCHAR
STARTCHAR obreve
ENCODING 335
SWIDTH 496 0
DWIDTH 14 0
BBX 10 19 2 0
BITMAP
2100
2100
1E00
0000
0000
3F00
E180
C0C0
8040
8040
8040
8040
8040
8040
8040
8040
C0C0
E180
3F00
ENDCHAR
STARTCHAR Ohungarumlaut
ENCODING 336
SWIDTH 553 0
DWIDTH 15 0
BBX 11 23 2 0
BITMAP
0640
0480
0880
1900
0000
3FC0
6060
C020
C020
C020
C020
C020
C020
C020
C020
C020
C020
C020
C020
C020
C020
6060
3FC0
ENDCHAR
STARTCHAR ohungarumlaut
ENCODING 337
SWIDTH 496 0
DWIDTH 14 0
BBX 10 19 2 0
BITMAP
0CC0
0980
1900
1200
0000
3F00
E180
C0C0
8040
8040
8040
8040
8040
8040
8040
8040
C0C0
E180
3F00
ENDCHAR
STARTCHAR OE
ENCODING 338
SWIDTH 775 0
DWIDTH 22 0
BBX 18 18 2 0
BITMAP
3FFFC0
60C000
C0C000
C0C000
C0C000
C0C000
C0C000
C0C000
C0FF80
C0C000
C0C000
C0C000
C0C000
C0C000
C0C000
C0C000
60C000
3FFFC0
ENDCHAR
STARTCHAR oe
ENCODING 339
SWIDTH 812 0
DWIDTH 23 0
BBX 19 14 2 0
BITMAP
3F1F80
E1A0C0
C0C060
804060
804020
804020
804020
807FE0
804000
804000
804000
C0C000
E1E000
3F1FE0
ENDCHAR
STARTCHAR Racute
ENCODING 340
SWIDTH 534 0
DWIDTH 15 0
BBX 11 23 2 0
BITMAP
0300
0600
0400
0800
0000
FF80
C0C0
C060
C020
C020
C020
C020
C020
C060
C040
FF80
C100
C180
C080
C0C0
C040
C060
C020
ENDCHAR
STARTCHAR racute
ENCODING 341
SWIDTH 313 0
DWIDTH 9 0
BBX 6 19 2 0
BITMAP
18
10
20
00
00
DC
E0
C0
C0
C0
C0
C0
C0
C0
C0
C0
C0
C0
C0
ENDCHAR
STARTCHAR uni0156
ENCODING 342
SWIDTH 534 0
DWIDTH 15 0
BBX 11 25 2 -7
BITMAP
FF80
C0C0
C060
C020
C020
C020
C020
C020
C060
C040
FF80
C100
C180
C080
C0C0
C040
C060
C020
0000
0400
0400
0400
0400
0400
0400
ENDCHAR
STARTCHAR uni0157
ENCODING 343
SWIDTH 313 0
DWIDTH 9 0
BBX 6 21 2 -7
BITMAP
DC
E0
C0
C0
C0
C0
C0
C0
C0
C0
C0
C0
C0
C0
00
C0
C0
80
80
80
80
ENDCHAR
STARTCHAR Rcaron
ENCODING 344
SWIDTH 534 0
DWIDTH 15 0
BBX 11 23 2 0
BITMAP
3300
1200
0C00
0400
0000
FF80
C0C0
C060
C020
C020
C020
C020
C020
C060
C040
FF80
C100
C180
C080
C0C0
C040
C060
C020
ENDCHAR
STARTCHAR rcaron
ENCODING 345
SWIDTH 313 0
DWIDTH 9 0
BBX 6 19 2 0
BITMAP
CC
48
30
00
00
DC
E0
C0
C0
C0
C0
C0
C0
C0
C0
C0
C0
C0
C0
ENDCHAR
STARTCHAR Sacute
ENCODING 346
SWIDTH 562 0
DWIDTH 16 0
BBX 11 23 2 0
BITMAP
0180
0300
0200
0400
0000
3FC0
6060
C020
C020
C020
C000
C000
6000
3E00
07C0
00E0
0020
0020
C020
C020
C020
6060
3FC0
ENDCHAR
STARTCHAR sacute
ENCODING 347
SWIDTH 427 0
DWIDTH 12 0
BBX 10 19 1 0
BITMAP
0300
0600
0C00
0000
0000
3F80
6000
C000
C000
4000
7000
1C00
0300
0080
0080
00C0
00C0
0180
7F00
ENDCHAR
STARTCHAR Scircumflex
ENCODING 348
SWIDTH 562 0
DWIDTH 16 0
BBX 11 23 2 0
BITMAP
0600
0A00
0900
1080
0000
3FC0
6060
C020
C020
C020
C000
C000
6000
3E00
07C0
00E0
0020
0020
C020
C020
C020
6060
3FC0
ENDCHAR
STARTCHAR scircumflex
ENCODING 349
SWIDTH 427 0
DWIDTH 12 0
BBX 10 19 1 0
BITMAP
0C00
1600
1200
2100
0000
3F80
6000
C000
C000
4000
7000
1C00
0300
0080
0080
00C0
00C0
0180
7F00
ENDCHAR
STARTCHAR uni015E
ENCODING 350
SWIDTH 562 0
DWIDTH 16 0
BBX 11 23 2 -5
BITMAP
3FC0
6060
C020
C020
C020
C000
C000
6000
3E00
07C0
00E0
0020
0020
C020
C020
C020
6060
3FC0
0400
0700
0100
0100
0700
ENDCHAR
STARTCHAR uni015F
ENCODING 351
SWIDTH 427 0
DWIDTH 12 0
BBX 10 19 1 -5
BITMAP
3F80
6000
C000
C000
4000
7000
1C00
0300
0080
0080
00C0
00C0
0180
7F00
0C00
0E00
0200
0200
0E00
ENDCHAR
STARTCHAR Scaron
ENCODING 352
SWIDTH 562 0
DWIDTH 16 0
BBX 11 23 2 0
BITMAP
1980
0900
0600
0400
0000
3FC0
6060
C020
C020
C020
C000
C000
6000
3E00
07C0
00E0
0020
0020
C020
C020
C020
6060
3FC0
ENDCHAR
STARTCHAR scaron
ENCODING 353
SWIDTH 427 0
DWIDTH 12 0
BBX 10 19 1 0
BITMAP
3300
1200
0C00
0000
0000
3F80
6000
C000
C000
4000
7000
1C00
0300
0080
0080
00C0
00C0
0180
7F00
ENDCHAR
STARTCHAR uni0162
ENCODING 354
SWIDTH 420 0
DWIDTH 12 0
BBX 11 25 0 -7
BITMAP
FFE0
0600
0600
0600
0600
0600
0600
0600
0600
0600
0600
0600
0600
0600
0600
0600
0600
0600
0000
0600
0600
0600
0400
0400
0400
ENDCHAR
STARTCHAR uni0163
ENCODING 355
SWIDTH 347 0
DWIDTH 10 0
BBX 8 24 1 -7
BITMAP
20
20
20
FE
20
20
20
20
20
20
20
20
20
20
30
18
0F
00
0C
0C
08
08
08
08
ENDCHAR
STARTCHAR Tcaron
ENCODING 356
SWIDTH 420 0
DWIDTH 12 0
BBX 11 23 0 0
BITMAP
1980
0900
0600
0400
0000
FFE0
0600
0600
0600
0600
0600
0600
0600
0600
0600
0600
0600
0600
0600
0600
0600
0600
0600
ENDCHAR
STARTCHAR tcaron
ENCODING 357
SWIDTH 396 0
DWIDTH 11 0
BBX 10 18 1 0
BITMAP
00C0
20C0
20C0
20C0
FE80
2080
2080
2000
2000
2000
2000
2000
2000
2000
2000
3000
1800
0F00
ENDCHAR
STARTCHAR Tbar
ENCODING 358
SWIDTH 501 0
DWIDTH 14 0
BBX 10 18 1 0
BITMAP
FFC0
0C00
0C00
0C00
0C00
0C00
0C00
0C00
7F80
0C00
0C00
0C00
0C00
0C00
0C00
0C00
0C00
0C00
ENDCHAR
STARTCHAR tbar
ENCODING 359
SWIDTH 350 0
DWIDTH 10 0
BBX 8 17 1 0
BITMAP
20
20
20
FE
20
20
20
20
FE
20
20
20
20
30
30
18
0F
ENDCHAR
STARTCHAR Utilde
ENCODING 360
SWIDTH 552 0
DWIDTH 15 0
BBX 11 23 2 0
BITMAP
1300
1680
1480
1C80
0000
C020
C020
C020
C020
C020
C020
C020
C020
C020
C020
C020
C020
C020
C020
C020
C060
60E0
3F80
ENDCHAR
STARTCHAR utilde
ENCODING 361
SWIDTH 507 0
DWIDTH 14 0
BBX 10 19 2 0
BITMAP
2700
2D00
3900
0000
0000
8040
8040
8040
8040
8040
8040
8040
8040
8040
8040
8040
C0C0
61C0
3F40
ENDCHAR
STARTCHAR Umacron
ENCODING 362
SWIDTH 552 0
DWIDTH 15 0
BBX 11 22 2 0
BITMAP
1F80
0000
0000
0000
C020
C020
C020
C020
C020
C020
C020
C020
C020
C020
C020
C020
C020
C020
C020
C060
60E0
3F80
ENDCHAR
STARTCHAR umacron
ENCODING 363
SWIDTH 507 0
DWIDTH 14 0
BBX 10 18 2 0
BITMAP
3F00
0000
0000
0000
8040
8040
8040
8040
8040
8040
8040
8040
8040
8040
8040
C0C0
61C0
3F40
ENDCHAR
STARTCHAR Ubreve
ENCODING 364
SWIDTH 552 0
DWIDTH 15 0
BBX 11 23 2 0
BITMAP
1080
1100
1100
0E00
0000
C020
C020
C020
C020
C020
C020
C020
C020
C020
C020
C020
C020
C020
C020
C020
C060
60E0
3F80
ENDCHAR
STARTCHAR ubreve
ENCODING 365
SWIDTH 507 0
DWIDTH 14 0
BBX 10 19 2 0
BITMAP
2100
2100
1300
1E00
0000
8040
8040
8040
8040
8040
8040
8040
8040
8040
8040
8040
C0C0
61C0
3F40
ENDCHAR
STARTCHAR Uring
ENCODING 366
SWIDTH 552 0
DWIDTH 15 0
BBX 11 24 2 0
BITMAP
0E00
1900
1100
1100
0F00
0000
C020
C020
C020
C020
C020
C020
C020
C020
C020
C020
C020
C020
C020
C020
C020
C060
60E0
3F80
ENDCHAR
STARTCHAR uring
ENCODING 367
SWIDTH 507 0
DWIDTH 14 0
BBX 10 20 2 0
BITMAP
1C00
2200
2200
2200
1E00
0000
8040
8040
8040
8040
8040
8040
8040
8040
8040
8040
8040
C0C0
61C0
3F40
ENDCHAR
STARTCHAR Uhungarumlaut
ENCODING 368
SWIDTH 552 0
DWIDTH 15 0
BBX 11 23 2 0
BITMAP
06C0
0C80
0980
1900
0000
C020
C020
C020
C020
C020
C020
C020
C020
C020
C020
C020
C020
C020
C020
C020
C060
60E0
3F80
ENDCHAR
STARTCHAR uhungarumlaut
ENCODING 369
SWIDTH 507 0
DWIDTH 14 0
BBX 10 19 2 0
BITMAP
0CC0
0980
1900
1300
0000
8040
8040
8040
8040
8040
8040
8040
8040
8040
8040
8040
C0C0
61C0
3F40
ENDCHAR
STARTCHAR Uogonek
ENCODING 370
SWIDTH 552 0
DWIDTH 15 0
BBX 11 21 2 -3
BITMAP
C020
C020
C020
C020
C020
C020
C020
C020
C020
C020
C020
C020
C020
C020
C020
C060
60E0
3F80
0400
0400
0E00
ENDCHAR
STARTCHAR uogonek
ENCODING 371
SWIDTH 503 0
DWIDTH 14 0
BBX 10 17 2 -3
BITMAP
8040
8040
8040
8040
8040
8040
8040
8040
8040
8040
8040
C0C0
61C0
3F40
0080
0100
01C0
ENDCHAR
STARTCHAR Wcircumflex
ENCODING 372
SWIDTH 795 0
DWIDTH 22 0
BBX 20 23 1 0
BITMAP
006000
005000
009000
010800
000000
C06010
C06030
C07030
40D030
409020
609020
609860
618860
210860
210840
330C40
3304C0
1204C0
120680
160680
1C0280
1C0380
0C0380
ENDCHAR
STARTCHAR wcircumflex
ENCODING 373
SWIDTH 682 0
DWIDTH 19 0
BBX 18 19 1 0
BITMAP
01C000
014000
022000
000000
000000
8080C0
81C080
C14180
414180
414100
636100
622300
222200
223200
361600
141600
141400
1C1C00
180C00
ENDCHAR
STARTCHAR Ycircumflex
ENCODING 374
SWIDTH 493 0
DWIDTH 14 0
BBX 12 23 1 0
BITMAP
0600
0A00
0900
1080
0000
8030
C020
4060
6040
20C0
3080
1180
1900
0B00
0E00
0600
0600
0600
0600
0600
0600
0600
0600
ENDCHAR
STARTCHAR ycircumflex
ENCODING 375
SWIDTH 459 0
DWIDTH 13 0
BBX 11 23 1 -4
BITMAP
0600
0A00
1900
0000
0000
8020
C060
4040
40C0
60C0
2080
2180
3180
1100
1B00
1B00
0A00
0E00
0400
0400
0C00
1800
F000
ENDCHAR
STARTCHAR Ydieresis
ENCODING 376
SWIDTH 493 0
DWIDTH 14 0
BBX 12 23 1 0
BITMAP
1180
1180
1180
1180
0000
8030
C020
4060
6040
20C0
3080
1180
1900
0B00
0E00
0600
0600
0600
0600
0600
0600
0600
0600
ENDCHAR
STARTCHAR Zacute
ENCODING 377
SWIDTH 482 0
DWIDTH 14 0
BBX 11 23 1 0
BITMAP
0180
0100
0200
0200
0000
FFE0
0060
0040
00C0
0180
0180
0300
0200
0600
0C00
0C00
1800
1000
3000
6000
6000
C000
FFE0
ENDCHAR
STARTCHAR zacute
ENCODING 378
SWIDTH 405 0
DWIDTH 11 0
BBX 9 19 1 0
BITMAP
0300
0200
0400
0000
0000
FF80
0180
0100
0300
0600
0400
0C00
1800
1800
3000
2000
6000
C000
FF80
ENDCHAR
STARTCHAR Zdotaccent
ENCODING 379
SWIDTH 482 0
DWIDTH 14 0
BBX 11 23 1 0
BITMAP
0200
0200
0200
0000
0000
FFE0
0060
0040
00C0
0180
0180
0300
0200
0600
0C00
0C00
1800
1000
3000
6000
6000
C000
FFE0
ENDCHAR
STARTCHAR zdotaccent
ENCODING 380
SWIDTH 405 0
DWIDTH 11 0
BBX 9 19 1 0
BITMAP
0C00
0C00
0C00
0000
0000
FF80
0180
0100
0300
0600
0400
0C00
1800
1800
3000
2000
6000
C000
FF80
ENDCHAR
STARTCHAR Zcaron
ENCODING 381
SWIDTH 482 0
DWIDTH 14 0
BBX 11 23 1 0
BITMAP
1980
0900
0700
0200
0000
FFE0
0060
0040
00C0
0180
0180
0300
0200
0600
0C00
0C00
1800
1000
3000
6000
6000
C000
FFE0
ENDCHAR
STARTCHAR zcaron
ENCODING 382
SWIDTH 405 0
DWIDTH 11 0
BBX 9 19 1 0
BITMAP
1100
1A00
0E00
0000
0000
FF80
0180
0100
0300
0600
0400
0C00
1800
1800
3000
2000
6000
C000
FF80
ENDCHAR
STARTCHAR florin
ENCODING 402
SWIDTH 494 0
DWIDTH 14 0
BBX 13 23 0 -4
BITMAP
0038
0060
00C0
0080
0080
0180
0180
0100
0FF0
0100
0300
0300
0200
0200
0600
0600
0600
0400
0400
0C00
0C00
1800
F000
ENDCHAR
STARTCHAR AEacute
ENCODING 508
SWIDTH 773 0
DWIDTH 22 0
BBX 20 23 0 0
BITMAP
000600
000C00
000800
001000
000000
007FF0
007000
00D000
009000
019000
011000
031000
021000
061FE0
041000
0C1000
181000
1FF000
301000
201000
601000
401000
C01FF0
ENDCHAR
STARTCHAR aeacute
ENCODING 509
SWIDTH 795 0
DWIDTH 22 0
BBX 18 19 2 0
BITMAP
001800
003000
006000
000000
000000
7F3F80
01E0C0
00C040
00C040
00C040
00C040
7FC040
C0FFC0
80C000
80C000
80C000
80C000
E1E000
7F3FC0
ENDCHAR
STARTCHAR Oslashacute
ENCODING 510
SWIDTH 558 0
DWIDTH 16 0
BBX 13 23 1 0
BITMAP
00C0
0180
0100
0200
0000
1FE8
3038
6010
6030
6078
6058
6098
6198
6118
6218
6418
6C18
6818
7018
7010
6010
7030
9FE0
ENDCHAR
STARTCHAR oslashacute
ENCODING 511
SWIDTH 521 0
DWIDTH 15 0
BBX 13 19 1 0
BITMAP
00C0
0180
0300
0000
0000
1FC0
30F8
6030
6060
60E0
61A0
6320
6620
6C20
7820
7020
6020
B060
1FC0
ENDCHAR
STARTCHAR uni0218
ENCODING 536
SWIDTH 562 0
DWIDTH 16 0
BBX 11 25 2 -7
BITMAP
3FC0
6060
C020
C020
C020
C000
C000
6000
3E00
07C0
00E0
0020
0020
C020
C020
C020
6060
3FC0
0000
0600
0600
0600
0600
0400
0400
ENDCHAR
STARTCHAR uni0219
ENCODING 537
SWIDTH 427 0
DWIDTH 12 0
BBX 10 21 1 -7
BITMAP
3F80
6000
C000
C000
4000
7000
1C00
0300
0080
0080
00C0
00C0
0180
7F00
0000
0400
0400
0400
0400
0800
0800
ENDCHAR
STARTCHAR circumflex
ENCODING 710
SWIDTH 326 0
DWIDTH 9 0
BBX 5 3 2 16
BITMAP
30
50
C8
ENDCHAR
STARTCHAR caron
ENCODING 711
SWIDTH 326 0
DWIDTH 9 0
BBX 5 3 2 16
BITMAP
88
50
70
ENDCHAR
STARTCHAR uni02C9
ENCODING 713
SWIDTH 358 0
DWIDTH 10 0
BBX 6 1 2 17
BITMAP
FC
ENDCHAR
STARTCHAR breve
ENCODING 728
SWIDTH 332 0
DWIDTH 9 0
BBX 5 4 2 15
BITMAP
88
88
88
70
ENDCHAR
STARTCHAR dotaccent
ENCODING 729
SWIDTH 183 0
DWIDTH 5 0
BBX 1 3 2 16
BITMAP
80
80
80
ENDCHAR
STARTCHAR ring
ENCODING 730
SWIDTH 297 0
DWIDTH 8 0
BBX 5 5 1 15
BITMAP
78
88
88
88
78
ENDCHAR
STARTCHAR ogonek
ENCODING 731
SWIDTH 243 0
DWIDTH 7 0
BBX 3 4 2 -3
BITMAP
20
40
80
E0
ENDCHAR
STARTCHAR tilde
ENCODING 732
SWIDTH 369 0
DWIDTH 10 0
BBX 6 4 2 15
BITMAP
98
94
A4
E4
ENDCHAR
STARTCHAR hungarumlaut
ENCODING 733
SWIDTH 377 0
DWIDTH 11 0
BBX 7 4 2 15
BITMAP
26
4C
48
98
ENDCHAR
STARTCHAR Mu
ENCODING 924
SWIDTH 527 0
DWIDTH 15 0
BBX 10 18 2 -4
BITMAP
C040
C040
C040
C040
C040
C040
C040
C040
C040
C040
C040
C040
E0C0
FF40
C000
C000
C000
C000
ENDCHAR
STARTCHAR Pi
ENCODING 928
SWIDTH 605 0
DWIDTH 17 0
BBX 15 18 1 0
BITMAP
FFFE
1830
1830
1830
1830
1830
1830
1830
1830
1830
1830
1830
1830
1830
1830
1830
1830
1830
ENDCHAR
STARTCHAR Sigma
ENCODING 931
SWIDTH 481 0
DWIDTH 13 0
BBX 10 18 2 0
BITMAP
FFC0
C000
C000
6000
2000
3000
1800
0800
0C00
0C00
0800
1800
1000
3000
6000
4000
C000
FFC0
ENDCHAR
STARTCHAR uni0901
ENCODING 2305
SWIDTH 0 0
DWIDTH 0 0
BBX 9 5 -8 20
BITMAP
0C00
4080
C080
4180
7F00
ENDCHAR
STARTCHAR uni0902
ENCODING 2306
SWIDTH 0 0
DWIDTH 0 0
BBX 1 1 -4 22
BITMAP
80
ENDCHAR
STARTCHAR uni0903
ENCODING 2307
SWIDTH 247 0
DWIDTH 7 0
BBX 1 10 3 3
BITMAP
80
00
00
00
00
00
00
00
00
80
ENDCHAR
STARTCHAR uni0905
ENCODING 2309
SWIDTH 598 0
DWIDTH 17 0
BBX 16 18 1 0
BITMAP
7C0F
0608
0308
0308
0308
0308
0308
0608
3C08
0608
03F8
0308
0308
0308
0308
0608
FC08
0008
ENDCHAR
STARTCHAR uni0906
ENCODING 2310
SWIDTH 828 0
DWIDTH 23 0
BBX 23 18 1 0
BITMAP
7C0FFE
060830
030830
030830
030830
030830
030830
060830
3C0830
060830
03F830
030830
030830
030830
030830
060830
FC0830
000830
ENDCHAR
STARTCHAR uni0907
ENCODING 2311
SWIDTH 478 0
DWIDTH 13 0
BBX 14 19 0 -1
BITMAP
FFFC
0060
0060
0060
1FE0
3000
2000
2000
2000
3000
1FC0
0060
0030
2030
2030
3020
2FE0
2000
2000
ENDCHAR
STARTCHAR uni0908
ENCODING 2312
SWIDTH 478 0
DWIDTH 13 0
BBX 14 26 0 -1
BITMAP
0078
00C0
0180
0100
0100
0100
0180
FFFC
0060
0060
0060
1FE0
3000
2000
2000
2000
3000
1FC0
0060
0030
2030
2030
3020
2FE0
2000
2000
ENDCHAR
STARTCHAR uni0909
ENCODING 2313
SWIDTH 471 0
DWIDTH 13 0
BBX 14 18 0 0
BITMAP
FFFC
00C0
0060
0020
0020
0020
0020
0060
0780
0060
0020
0020
6020
6020
6020
2020
3060
1FC0
ENDCHAR
STARTCHAR uni090A
ENCODING 2314
SWIDTH 661 0
DWIDTH 19 0
BBX 19 18 0 0
BITMAP
FFFFE0
00C000
006000
002000
002000
002000
002000
006000
07C000
007F00
002180
002080
6020C0
6020C0
6020C0
202080
306180
1FC700
ENDCHAR
STARTCHAR uni090B
ENCODING 2315
SWIDTH 753 0
DWIDTH 21 0
BBX 21 18 0 0
BITMAP
FFFFF8
002000
002000
002000
002000
002000
1FA0E0
3061A0
202320
202C20
203820
2031E0
006300
01A200
032200
062200
0C2300
3021E0
ENDCHAR
STARTCHAR uni090C
ENCODING 2316
SWIDTH 676 0
DWIDTH 19 0
BBX 19 24 0 -6
BITMAP
FFFFE0
000100
000100
000100
000100
0F3D00
19E300
30C100
20C100
204100
204100
204100
200100
200100
300100
100100
1F0100
000700
000C00
001800
001800
001800
000860
0007C0
ENDCHAR
STARTCHAR uni090D
ENCODING 2317
SWIDTH 521 0
DWIDTH 15 0
BBX 15 24 0 1
BITMAP
1810
1810
0830
0FE0
0000
0000
0000
FFFE
1018
1018
1018
1018
1018
1018
1018
1010
11E0
1000
1000
1000
1000
1000
1800
0FF0
ENDCHAR
STARTCHAR uni090E
ENCODING 2318
SWIDTH 522 0
DWIDTH 15 0
BBX 15 24 0 1
BITMAP
0200
0200
0300
01C0
0060
0010
0018
FFFE
1018
1018
1018
1018
1018
1018
1018
1010
11E0
1000
1000
1000
1000
1000
1800
0FF0
ENDCHAR
STARTCHAR uni090F
ENCODING 2319
SWIDTH 526 0
DWIDTH 15 0
BBX 15 17 0 1
BITMAP
FFFE
1018
1018
1018
1018
1018
1018
1018
1010
11E0
1000
1000
1000
1000
1000
1800
0FF0
ENDCHAR
STARTCHAR uni0910
ENCODING 2320
SWIDTH 526 0
DWIDTH 15 0
BBX 15 24 0 1
BITMAP
0100
0180
00C0
0040
0020
0030
0010
FFFE
1018
1018
1018
1018
1018
1018
1018
1010
11E0
1000
1000
1000
1000
1000
1800
0FF0
ENDCHAR
STARTCHAR uni0911
ENCODING 2321
SWIDTH 829 0
DWIDTH 23 0
BBX 23 24 1 0
BITMAP
000810
000810
000830
0007E0
000000
000000
7C0FFE
060830
030830
030830
030830
030830
030830
060830
3C0830
060830
03F830
030830
030830
030830
030830
060830
FC0830
000830
ENDCHAR
STARTCHAR uni0912
ENCODING 2322
SWIDTH 828 0
DWIDTH 23 0
BBX 23 25 1 0
BITMAP
000C00
000C00
000600
000300
0000C0
000060
000030
7C0FFE
060830
030830
030830
030830
030830
030830
060830
3C0830
060830
03F830
030830
030830
030830
030830
060830
FC0830
000830
ENDCHAR
STARTCHAR uni0913
ENCODING 2323
SWIDTH 829 0
DWIDTH 23 0
BBX 23 25 1 0
BITMAP
000200
000300
000180
000080
0000C0
000060
000020
7C0FFE
060830
030830
030830
030830
030830
030830
060830
3C0830
060830
03F830
030830
030830
030830
030830
060830
FC0830
000830
ENDCHAR
STARTCHAR uni0914
ENCODING 2324
SWIDTH 829 0
DWIDTH 23 0
BBX 23 25 1 0
BITMAP
000630
000330
000130
0001B0
0000F0
000050
000030
7C0FFE
060830
030830
030830
030830
030830
030830
060830
3C0830
060830
03F830
030830
030830
030830
030830
060830
FC0830
000830
ENDCHAR
STARTCHAR uni0915
ENCODING 2325
SWIDTH 725 0
DWIDTH 20 0
BBX 21 18 0 0
BITMAP
FFFFF8
006000
006000
006000
0E6F80
3070C0
206040
206060
206060
206060
206060
206060
206040
30E0C0
1FE780
006000
006000
006000
ENDCHAR
STARTCHAR uni0916
ENCODING 2326
SWIDTH 696 0
DWIDTH 19 0
BBX 20 18 0 0
BITMAP
FFFFF0
020080
020080
020080
020080
021C80
022080
026080
064080
7C4080
604080
204180
106180
183E80
080080
040080
060080
030080
ENDCHAR
STARTCHAR uni0917
ENCODING 2327
SWIDTH 494 0
DWIDTH 14 0
BBX 14 18 0 0
BITMAP
FFFC
0820
0820
0820
0820
0820
0820
0820
0820
1820
7020
0020
0020
0020
0020
0020
0020
0020
ENDCHAR
STARTCHAR uni0918
ENCODING 2328
SWIDTH 559 0
DWIDTH 16 0
BBX 16 18 0 0
BITMAP
FFFF
1008
3008
2008
2008
2008
3008
0F08
1008
3008
2008
2008
2018
3018
1FE8
0008
0008
0008
ENDCHAR
STARTCHAR uni0919
ENCODING 2329
SWIDTH 505 0
DWIDTH 14 0
BBX 15 18 0 0
BITMAP
FFFE
0060
0060
0060
0060
1FE0
3000
2000
2008
3000
1FC0
0060
0030
0030
2030
2030
3020
1FE0
ENDCHAR
STARTCHAR uni091A
ENCODING 2330
SWIDTH 563 0
DWIDTH 16 0
BBX 16 18 0 0
BITMAP
FFFF
0008
0008
0008
0008
0008
7F88
0C08
1808
1008
1008
1008
1808
0818
0FE8
0008
0008
0008
ENDCHAR
STARTCHAR uni091B
ENCODING 2331
SWIDTH 581 0
DWIDTH 16 0
BBX 17 17 0 1
BITMAP
FFFF80
180800
300800
300800
300800
300800
307800
100C00
0E0400
180400
300400
300400
300400
300400
300400
100C00
1FF800
ENDCHAR
STARTCHAR uni091C
ENCODING 2332
SWIDTH 547 0
DWIDTH 15 0
BBX 16 18 0 0
BITMAP
FFFF
0018
0018
0018
0018
0018
3FF8
0618
0318
0318
0318
0318
0318
0318
0218
7C18
0018
0018
ENDCHAR
STARTCHAR uni091D
ENCODING 2333
SWIDTH 664 0
DWIDTH 19 0
BBX 19 19 0 -1
BITMAP
FFFFE0
00C100
00C100
00C100
1FC100
380100
200100
200100
200100
300100
1FFF00
00C100
006100
206100
206100
304100
2FC100
200100
200000
ENDCHAR
STARTCHAR uni091E
ENCODING 2334
SWIDTH 592 0
DWIDTH 17 0
BBX 17 18 0 0
BITMAP
FFFF80
000400
000400
000400
000400
3E0400
030400
010400
010400
01FC00
010400
010400
010400
030400
7E0400
000400
000400
000400
ENDCHAR
STARTCHAR uni091F
ENCODING 2335
SWIDTH 485 0
DWIDTH 14 0
BBX 14 17 0 1
BITMAP
FFFC
0060
0060
0060
0060
0FE0
1800
3000
2000
2000
2000
2010
2010
2010
3010
1030
1FE0
ENDCHAR
STARTCHAR uni0920
ENCODING 2336
SWIDTH 512 0
DWIDTH 14 0
BBX 15 17 0 1
BITMAP
FFFE
0020
0020
0020
0060
0FC0
1860
3030
2010
2010
2010
2010
2010
2010
3010
3030
1FE0
ENDCHAR
STARTCHAR uni0921
ENCODING 2337
SWIDTH 475 0
DWIDTH 13 0
BBX 14 18 0 0
BITMAP
FFFC
0060
0060
0060
0060
1FE0
3000
2000
2000
3000
1FC0
0060
0030
0030
2030
2030
3060
1FC0
ENDCHAR
STARTCHAR uni0922
ENCODING 2338
SWIDTH 485 0
DWIDTH 14 0
BBX 14 17 0 1
BITMAP
FFFC
0060
0060
0060
0060
0FE0
1800
3000
2000
20E0
2130
2110
2110
2010
3010
1030
1FE0
ENDCHAR
STARTCHAR uni0923
ENCODING 2339
SWIDTH 681 0
DWIDTH 19 0
BBX 19 18 0 0
BITMAP
FFFFE0
304180
304180
304180
304180
304180
304180
304180
304180
304180
304180
10C180
0F8180
000180
000180
000180
000180
000180
ENDCHAR
STARTCHAR uni0924
ENCODING 2340
SWIDTH 496 0
DWIDTH 14 0
BBX 14 18 0 0
BITMAP
FFFC
0020
0020
0020
0020
0020
1FE0
3020
2020
2020
2020
2020
2020
2020
2020
2020
3020
1E20
ENDCHAR
STARTCHAR uni0925
ENCODING 2341
SWIDTH 593 0
DWIDTH 17 0
BBX 15 18 2 0
BITMAP
3C1E
6610
4210
C210
C210
0210
0210
0610
FC10
8010
8010
8010
8030
C070
7FD0
0010
0010
0010
ENDCHAR
STARTCHAR uni0926
ENCODING 2342
SWIDTH 489 0
DWIDTH 14 0
BBX 14 18 0 0
BITMAP
FFFC
0020
0020
0020
0020
0FE0
1800
3000
2000
2000
2000
2030
2030
3030
1FF0
0030
0030
0030
ENDCHAR
STARTCHAR uni0927
ENCODING 2343
SWIDTH 560 0
DWIDTH 16 0
BBX 16 18 0 0
BITMAP
FE7F
1008
3008
2008
2008
2008
3008
0F08
1008
3008
2008
2008
2008
3018
1018
1FE8
0008
0008
ENDCHAR
STARTCHAR uni0928
ENCODING 2344
SWIDTH 473 0
DWIDTH 13 0
BBX 14 18 0 0
BITMAP
FFFC
0060
0060
0060
0060
0060
0060
3FE0
6060
6060
6060
6060
0060
0060
0060
0060
0060
0060
ENDCHAR
STARTCHAR uni0928093C
ENCODING 2345
SWIDTH 473 0
DWIDTH 13 0
BBX 14 18 0 0
BITMAP
FFFC
0060
0060
0060
0060
0060
0060
3FE0
6060
6060
6060
2060
0060
0060
0060
0060
0060
0C20
ENDCHAR
STARTCHAR uni092A
ENCODING 2346
SWIDTH 503 0
DWIDTH 14 0
BBX 15 18 0 0
BITMAP
FFFE
3030
3030
3030
3030
3030
3030
3030
3030
3030
3030
1870
0FF0
0030
0030
0030
0030
0030
ENDCHAR
STARTCHAR uni092B
ENCODING 2347
SWIDTH 739 0
DWIDTH 21 0
BBX 21 18 0 0
BITMAP
FFFFF8
302000
302000
302000
302F80
3038C0
303060
302020
302020
302020
186020
0FA020
002060
002040
002780
002000
002000
002000
ENDCHAR
STARTCHAR uni092C
ENCODING 2348
SWIDTH 491 0
DWIDTH 14 0
BBX 14 18 0 0
BITMAP
FFFC
0020
0020
0020
0F20
3020
3820
2C20
2620
2320
21A0
20E0
2060
3060
1FA0
0020
0020
0020
ENDCHAR
STARTCHAR uni092D
ENCODING 2349
SWIDTH 491 0
DWIDTH 14 0
BBX 14 18 0 0
BITMAP
C1FC
6020
3020
3020
3020
3020
3020
3020
3FE0
3020
3020
3020
3020
0020
0020
0020
0020
0020
ENDCHAR
STARTCHAR uni092E
ENCODING 2350
SWIDTH 490 0
DWIDTH 14 0
BBX 14 18 0 0
BITMAP
FFFC
3020
3020
3020
3020
3020
3020
3020
3FE0
3020
3020
3020
3020
0020
0020
0020
0020
0020
ENDCHAR
STARTCHAR uni092F
ENCODING 2351
SWIDTH 564 0
DWIDTH 16 0
BBX 16 18 0 0
BITMAP
FFFF
0608
0208
0208
0208
0208
0608
3C08
2008
2008
2008
2008
3018
1818
0FE8
0008
0008
0008
ENDCHAR
STARTCHAR uni0930
ENCODING 2352
SWIDTH 337 0
DWIDTH 9 0
BBX 10 18 0 0
BITMAP
FFC0
0200
0200
0200
0200
0200
0200
0200
0600
7C00
6000
2000
1000
1800
0800
0400
0600
0300
ENDCHAR
STARTCHAR uni0930093C
ENCODING 2353
SWIDTH 347 0
DWIDTH 10 0
BBX 10 19 0 -1
BITMAP
FFC0
0200
0200
0200
0200
0200
0200
0200
0600
7C00
6000
3000
1000
1800
0C00
0400
0600
0200
C100
ENDCHAR
STARTCHAR uni0932
ENCODING 2354
SWIDTH 676 0
DWIDTH 19 0
BBX 19 18 0 0
BITMAP
FFFFE0
000100
000100
000100
000100
0F3D00
19E300
30C100
20C100
204100
204100
204100
200100
200100
300100
100100
1F0100
000100
ENDCHAR
STARTCHAR uni0933
ENCODING 2355
SWIDTH 672 0
DWIDTH 19 0
BBX 19 17 0 1
BITMAP
FFFFE0
000800
000800
000800
000800
0F1E00
11A300
20C180
204180
204080
204080
204080
204080
204180
20C180
30E100
1F3E00
ENDCHAR
STARTCHAR uni0933093C
ENCODING 2356
SWIDTH 672 0
DWIDTH 19 0
BBX 19 19 0 -1
BITMAP
FFFFE0
000800
000800
000800
000800
0F1E00
11A300
20C180
204180
204080
204080
204080
204080
204180
20C180
30E100
1F3E00
000000
060000
ENDCHAR
STARTCHAR uni0935
ENCODING 2357
SWIDTH 484 0
DWIDTH 14 0
BBX 14 18 0 0
BITMAP
FFFC
0020
0020
0020
0F20
3020
2020
2020
2020
2020
2020
2020
2060
3060
1FA0
0020
0020
0020
ENDCHAR
STARTCHAR uni0936
ENCODING 2358
SWIDTH 614 0
DWIDTH 17 0
BBX 17 18 1 0
BITMAP
1E0F80
230C00
610C00
410C00
410C00
010C00
010C00
010C00
030C00
FE0C00
C00C00
600C00
200C00
300C00
180C00
080C00
0C0C00
060C00
ENDCHAR
STARTCHAR uni0937
ENCODING 2359
SWIDTH 505 0
DWIDTH 14 0
BBX 15 18 0 0
BITMAP
FFFE
3030
3830
3830
3430
3230
3130
31B0
30F0
3070
3030
1870
0FF0
0030
0030
0030
0030
0030
ENDCHAR
STARTCHAR uni0938
ENCODING 2360
SWIDTH 575 0
DWIDTH 16 0
BBX 17 18 0 0
BITMAP
FFFF80
060C00
060C00
060C00
060C00
060C00
060C00
040C00
0C0C00
7FFC00
600C00
200C00
300C00
100C00
080C00
0C0C00
040C00
060C00
ENDCHAR
STARTCHAR uni0939
ENCODING 2361
SWIDTH 481 0
DWIDTH 13 0
BBX 14 19 0 -1
BITMAP
FFFC
0020
0020
0020
0FE0
1800
3000
3000
3000
1000
0FC0
1860
3020
2020
2020
2000
3000
1000
0FE0
ENDCHAR
STARTCHAR uni093C
ENCODING 2364
SWIDTH 0 0
DWIDTH 0 0
BBX 1 1 -4 -2
BITMAP
80
ENDCHAR
STARTCHAR uni093D
ENCODING 2365
SWIDTH 529 0
DWIDTH 15 0
BBX 10 18 2 0
BITMAP
1F80
3000
2000
6000
2000
2000
3000
1C00
0700
0380
00C0
0040
0040
0040
4040
C040
30C0
1F80
ENDCHAR
STARTCHAR uni093E
ENCODING 2366
SWIDTH 231 0
DWIDTH 6 0
BBX 7 18 0 0
BITMAP
FE
10
10
10
10
10
10
10
10
10
10
10
10
10
10
10
10
10
ENDCHAR
STARTCHAR uni093F
ENCODING 2367
SWIDTH 231 0
DWIDTH 6 0
BBX 18 25 0 0
BITMAP
0FFF00
180180
100080
1000C0
1000C0
100000
100000
FE0000
100000
100000
100000
100000
100000
100000
100000
100000
100000
100000
100000
100000
100000
100000
100000
100000
100000
ENDCHAR
STARTCHAR uni0940
ENCODING 2368
SWIDTH 231 0
DWIDTH 6 0
BBX 11 25 -4 0
BITMAP
3C00
6600
C300
8100
8100
0100
0100
0FE0
0100
0100
0100
0100
0100
0100
0100
0100
0100
0100
0100
0100
0100
0100
0100
0100
0100
ENDCHAR
STARTCHAR uni0941
ENCODING 2369
SWIDTH 0 0
DWIDTH 0 0
BBX 11 7 -10 -7
BITMAP
03C0
0060
C020
4020
2060
3040
0FC0
ENDCHAR
STARTCHAR uni0942
ENCODING 2370
SWIDTH 0 0
DWIDTH 0 0
BBX 10 7 -7 -7
BITMAP
7C00
C300
8100
8180
8080
C0C0
7000
ENDCHAR
STARTCHAR uni0943
ENCODING 2371
SWIDTH 0 0
DWIDTH 0 0
BBX 9 7 -8 -7
BITMAP
3800
4000
C000
C000
C080
6300
3E00
ENDCHAR
STARTCHAR uni0945
ENCODING 2373
SWIDTH 0 0
DWIDTH 0 0
BBX 9 4 -8 20
BITMAP
C080
4080
4180
3F00
ENDCHAR
STARTCHAR uni0946
ENCODING 2374
SWIDTH 0 0
DWIDTH 0 0
BBX 8 8 -10 17
BITMAP
80
C0
40
30
1C
06
02
03
ENDCHAR
STARTCHAR uni0947
ENCODING 2375
SWIDTH 0 0
DWIDTH 0 0
BBX 7 8 -9 17
BITMAP
C0
60
20
30
18
08
0C
06
ENDCHAR
STARTCHAR uni0948
ENCODING 2376
SWIDTH 0 0
DWIDTH 0 0
BBX 7 8 -9 17
BITMAP
C4
44
64
34
14
1C
0C
06
ENDCHAR
STARTCHAR uni0949
ENCODING 2377
SWIDTH 231 0
DWIDTH 6 0
BBX 9 24 -1 0
BITMAP
8100
8180
C100
7F00
0000
0000
7F00
0800
0800
0800
0800
0800
0800
0800
0800
0800
0800
0800
0800
0800
0800
0800
0800
0800
ENDCHAR
STARTCHAR uni094A
ENCODING 2378
SWIDTH 231 0
DWIDTH 6 0
BBX 10 25 -3 0
BITMAP
8000
8000
C000
7000
1800
0600
0600
1FC0
0200
0200
0200
0200
0200
0200
0200
0200
0200
0200
0200
0200
0200
0200
0200
0200
0200
ENDCHAR
STARTCHAR uni094B
ENCODING 2379
SWIDTH 231 0
DWIDTH 6 0
BBX 9 25 -2 0
BITMAP
C000
4000
6000
3000
1000
1800
0C00
3F80
0400
0400
0400
0400
0400
0400
0400
0400
0400
0400
0400
0400
0400
0400
0400
0400
0400
ENDCHAR
STARTCHAR uni094C
ENCODING 2380
SWIDTH 231 0
DWIDTH 6 0
BBX 9 25 -2 0
BITMAP
8400
C400
6400
2400
1400
1C00
0C00
3F80
0400
0400
0400
0400
0400
0400
0400
0400
0400
0400
0400
0400
0400
0400
0400
0400
0400
ENDCHAR
STARTCHAR uni094D
ENCODING 2381
SWIDTH 0 0
DWIDTH 0 0
BBX 4 5 -4 -6
BITMAP
80
40
60
20
30
ENDCHAR
STARTCHAR uni0950
ENCODING 2384
SWIDTH 847 0
DWIDTH 24 0
BBX 19 22 2 1
BITMAP
000C00
000000
000000
000020
000060
3E0FC0
030000
010000
018000
018000
018FC0
010060
030020
1E0020
030020
01F820
018820
818820
818820
810820
C30C60
7E07C0
ENDCHAR
STARTCHAR uni0951
ENCODING 2385
SWIDTH 0 0
DWIDTH 0 0
BBX 1 5 -4 20
BITMAP
80
80
80
80
80
ENDCHAR
STARTCHAR uni0952
ENCODING 2386
SWIDTH 0 0
DWIDTH 0 0
BBX 9 1 -12 -3
BITMAP
FF80
ENDCHAR
STARTCHAR uni0953
ENCODING 2387
SWIDTH 0 0
DWIDTH 0 0
BBX 4 5 -7 20
BITMAP
80
40
60
20
30
ENDCHAR
STARTCHAR uni0954
ENCODING 2388
SWIDTH 0 0
DWIDTH 0 0
BBX 5 5 -4 20
BITMAP
18
30
20
60
C0
ENDCHAR
STARTCHAR uni0915093C
ENCODING 2392
SWIDTH 725 0
DWIDTH 20 0
BBX 21 19 0 -1
BITMAP
FFFFF8
006000
006000
006000
0E6F80
3070C0
206040
206060
206060
206060
206060
206060
206040
30E0C0
1FE780
006000
006000
006000
0C0000
ENDCHAR
STARTCHAR uni0916093C
ENCODING 2393
SWIDTH 696 0
DWIDTH 19 0
BBX 20 19 0 -1
BITMAP
FFFFF0
020080
020080
020080
020080
021C80
022080
026080
064080
7C4080
604080
204180
106180
183E80
080080
040080
060080
030080
600000
ENDCHAR
STARTCHAR uni0917093C
ENCODING 2394
SWIDTH 494 0
DWIDTH 14 0
BBX 14 19 0 -1
BITMAP
FFFC
0820
0820
0820
0820
0820
0820
0820
0820
1820
7020
0020
0020
0020
0020
0020
0020
0020
1000
ENDCHAR
STARTCHAR uni091C093C
ENCODING 2395
SWIDTH 547 0
DWIDTH 15 0
BBX 16 19 0 -1
BITMAP
FFFF
0018
0018
0018
0018
0018
3FF8
0618
0318
0318
0318
0318
0318
0318
0218
7C18
0018
0018
3000
ENDCHAR
STARTCHAR uni0921093C
ENCODING 2396
SWIDTH 475 0
DWIDTH 13 0
BBX 14 21 0 -3
BITMAP
FFFC
0060
0060
0060
0060
1FE0
3000
2000
2000
3000
1FC0
0060
0030
0030
2030
2030
3060
1FC0
0000
0000
0300
ENDCHAR
STARTCHAR uni0922093C
ENCODING 2397
SWIDTH 485 0
DWIDTH 14 0
BBX 14 20 0 -2
BITMAP
FFFC
0060
0060
0060
0060
0FE0
1800
3000
2000
20E0
2130
2110
2110
2010
3010
1030
1FE0
0000
0000
0300
ENDCHAR
STARTCHAR uni092B093C
ENCODING 2398
SWIDTH 739 0
DWIDTH 21 0
BBX 21 19 0 -1
BITMAP
FFFFF8
302000
302000
302000
302F80
3038C0
303060
302020
302020
302020
186020
0FA020
002060
002040
002780
002000
002000
002000
080000
ENDCHAR
STARTCHAR uni092F093C
ENCODING 2399
SWIDTH 564 0
DWIDTH 16 0
BBX 16 19 0 -1
BITMAP
FFFF
0608
0208
0208
0208
0208
0608
3C08
2008
2008
2008
2008
3018
1818
0FE8
0008
0008
0008
1000
ENDCHAR
STARTCHAR uni0960
ENCODING 2400
SWIDTH 753 0
DWIDTH 21 0
BBX 21 21 0 -3
BITMAP
FFFFF8
002000
002000
002000
002000
002000
1FA0E0
3061A0
202720
202C20
2039E0
003300
00E200
01A200
032300
0621E0
182300
302200
000200
000300
0001F0
ENDCHAR
STARTCHAR uni0961
ENCODING 2401
SWIDTH 676 0
DWIDTH 19 0
BBX 19 24 0 -6
BITMAP
FFFFE0
000100
000100
000100
000100
0F3D00
19E300
30C100
20C100
204100
204100
204100
200100
200F00
300C00
101800
1F1800
000800
000F80
000C00
001800
001800
000800
000F80
ENDCHAR
STARTCHAR uni0964
ENCODING 2404
SWIDTH 286 0
DWIDTH 8 0
BBX 1 18 4 0
BITMAP
80
80
80
80
80
80
80
80
80
80
80
80
80
80
80
80
80
80
ENDCHAR
STARTCHAR uni0965
ENCODING 2405
SWIDTH 518 0
DWIDTH 15 0
BBX 8 18 4 0
BITMAP
83
83
83
83
83
83
83
83
83
83
83
83
83
83
83
83
83
83
ENDCHAR
STARTCHAR uni0966
ENCODING 2406
SWIDTH 519 0
DWIDTH 15 0
BBX 11 18 2 0
BITMAP
3F80
60C0
C040
8060
8060
8060
8060
8060
8060
8060
8060
8060
8060
8060
8060
C040
40C0
7F80
ENDCHAR
STARTCHAR uni0967
ENCODING 2407
SWIDTH 288 0
DWIDTH 8 0
BBX 6 19 0 0
BITMAP
04
1C
7C
CC
0C
0C
0C
0C
0C
0C
0C
0C
0C
0C
0C
0C
0C
0C
0C
ENDCHAR
STARTCHAR uni0968
ENCODING 2408
SWIDTH 453 0
DWIDTH 13 0
BBX 11 18 1 0
BITMAP
3F80
60C0
4040
C040
C060
4060
0040
00C0
0180
0300
0C00
1800
3000
6000
4000
4000
4000
7FE0
ENDCHAR
STARTCHAR uni0969
ENCODING 2409
SWIDTH 489 0
DWIDTH 14 0
BBX 10 18 2 0
BITMAP
7F00
C180
80C0
80C0
80C0
00C0
00C0
0180
0F00
0180
0080
00C0
80C0
80C0
80C0
80C0
C180
7F00
ENDCHAR
STARTCHAR uni096A
ENCODING 2410
SWIDTH 453 0
DWIDTH 13 0
BBX 13 19 0 0
BITMAP
00C0
00C0
0140
0340
0240
0640
0440
0C40
0840
1040
3040
2040
6040
4040
FFF8
0040
0040
0040
0040
ENDCHAR
STARTCHAR uni096B
ENCODING 2411
SWIDTH 480 0
DWIDTH 13 0
BBX 10 18 2 0
BITMAP
FFC0
8000
8000
8000
8000
8000
8000
BF00
C180
80C0
0040
0040
0040
8040
8040
80C0
C080
7F00
ENDCHAR
STARTCHAR uni096C
ENCODING 2412
SWIDTH 495 0
DWIDTH 14 0
BBX 10 18 2 0
BITMAP
3FC0
6000
C000
8000
8000
8000
8000
BF80
E0C0
C040
8040
8040
8040
8040
8040
C040
40C0
7F80
ENDCHAR
STARTCHAR uni096D
ENCODING 2413
SWIDTH 380 0
DWIDTH 11 0
BBX 10 18 0 1
BITMAP
FFC0
00C0
00C0
0080
0180
0180
0100
0300
0200
0600
0600
0400
0C00
0C00
0800
1800
1000
3000
ENDCHAR
STARTCHAR uni096E
ENCODING 2414
SWIDTH 523 0
DWIDTH 15 0
BBX 11 18 2 0
BITMAP
3F80
60C0
C060
8060
8060
8060
8060
40C0
3F80
60C0
C040
8060
8060
8060
8060
C060
40C0
7F80
ENDCHAR
STARTCHAR uni096F
ENCODING 2415
SWIDTH 493 0
DWIDTH 14 0
BBX 11 18 1 0
BITMAP
3F80
60C0
4060
C060
C060
C060
C060
C060
4060
6060
3FE0
0060
0060
0060
0060
0060
0040
7F80
ENDCHAR
STARTCHAR uni0970
ENCODING 2416
SWIDTH 391 0
DWIDTH 11 0
BBX 9 9 1 4
BITMAP
3E00
6300
C180
8180
8180
8180
C180
4100
3E00
ENDCHAR
STARTCHAR uni0972
ENCODING 2418
SWIDTH 598 0
DWIDTH 17 0
BBX 17 24 1 0
BITMAP
008080
008180
00C180
007F00
000000
000000
7C0F00
060800
030800
030800
030800
030800
030800
060800
3C0800
060800
03F800
030800
030800
030800
030800
060800
FC0800
000800
ENDCHAR
STARTCHAR Wgrave
ENCODING 7808
SWIDTH 795 0
DWIDTH 22 0
BBX 20 23 1 0
BITMAP
018000
008000
004000
002000
000000
C06010
C06030
C07030
40D030
409020
609020
609860
618860
210860
210840
330C40
3304C0
1204C0
120680
160680
1C0280
1C0380
0C0380
ENDCHAR
STARTCHAR wgrave
ENCODING 7809
SWIDTH 682 0
DWIDTH 19 0
BBX 18 19 1 0
BITMAP
060000
030000
018000
000000
000000
8080C0
81C080
C14180
414180
414100
636100
622300
222200
223200
361600
141600
141400
1C1C00
180C00
ENDCHAR
STARTCHAR Wacute
ENCODING 7810
SWIDTH 795 0
DWIDTH 22 0
BBX 20 23 1 0
BITMAP
001C00
001000
003000
002000
000000
C06010
C06030
C07030
40D030
409020
609020
609860
618860
210860
210840
330C40
3304C0
1204C0
120680
160680
1C0280
1C0380
0C0380
ENDCHAR
STARTCHAR wacute
ENCODING 7811
SWIDTH 682 0
DWIDTH 19 0
BBX 18 19 1 0
BITMAP
003000
006000
00C000
000000
000000
8080C0
81C080
C14180
414180
414100
636100
622300
222200
223200
361600
141600
141400
1C1C00
180C00
ENDCHAR
STARTCHAR Wdieresis
ENCODING 7812
SWIDTH 795 0
DWIDTH 22 0
BBX 20 23 1 0
BITMAP
018800
018800
018800
018800
000000
C06010
C06030
C07030
40D030
409020
609020
609860
618860
210860
210840
330C40
3304C0
1204C0
120680
160680
1C0280
1C0380
0C0380
ENDCHAR
STARTCHAR wdieresis
ENCODING 7813
SWIDTH 682 0
DWIDTH 19 0
BBX 18 19 1 0
BITMAP
023000
023000
023000
023000
000000
8080C0
81C080
C14180
414180
414100
636100
622300
222200
223200
361600
141600
141400
1C1C00
180C00
ENDCHAR
STARTCHAR uni1E9E
ENCODING 7838
SWIDTH 542 0
DWIDTH 15 0
BBX 12 18 2 0
BITMAP
3FE0
6060
C040
C0C0
C080
C180
C100
C300
C3C0
C060
C020
C030
C030
C030
C030
C020
C060
C7C0
ENDCHAR
STARTCHAR Ygrave
ENCODING 7922
SWIDTH 493 0
DWIDTH 14 0
BBX 12 23 1 0
BITMAP
1800
0800
0400
0200
0000
8030
C020
4060
6040
20C0
3080
1180
1900
0B00
0E00
0600
0600
0600
0600
0600
0600
0600
0600
ENDCHAR
STARTCHAR ygrave
ENCODING 7923
SWIDTH 459 0
DWIDTH 13 0
BBX 11 23 1 -4
BITMAP
1800
0800
0400
0000
0000
8020
C060
4040
40C0
60C0
2080
2180
3180
1100
1B00
1B00
0A00
0E00
0400
0400
0C00
1800
F000
ENDCHAR
STARTCHAR uni200B
ENCODING 8203
SWIDTH 0 0
DWIDTH 0 0
BBX 1 1 0 0
BITMAP
00
ENDCHAR
STARTCHAR uni200C
ENCODING 8204
SWIDTH 0 0
DWIDTH 0 0
BBX 2 29 -1 -6
BITMAP
C0
C0
C0
C0
C0
C0
C0
C0
C0
C0
C0
C0
C0
C0
C0
C0
C0
C0
C0
C0
C0
C0
C0
C0
C0
C0
C0
C0
C0
ENDCHAR
STARTCHAR uni200D
ENCODING 8205
SWIDTH 0 0
DWIDTH 0 0
BBX 8 29 -4 -6
BITMAP
42
E7
3C
18
3C
7E
DB
18
18
18
18
18
18
18
18
18
18
18
18
18
18
18
18
18
18
18
18
18
18
ENDCHAR
STARTCHAR endash
ENCODING 8211
SWIDTH 408 0
DWIDTH 11 0
BBX 9 1 1 8
BITMAP
FF80
ENDCHAR
STARTCHAR emdash
ENCODING 8212
SWIDTH 537 0
DWIDTH 15 0
BBX 13 1 1 8
BITMAP
FFF8
ENDCHAR
STARTCHAR quoteleft
ENCODING 8216
SWIDTH 179 0
DWIDTH 5 0
BBX 1 7 2 11
BITMAP
80
80
80
80
80
80
80
ENDCHAR
STARTCHAR quoteright
ENCODING 8217
SWIDTH 179 0
DWIDTH 5 0
BBX 1 7 2 11
BITMAP
80
80
80
80
80
80
80
ENDCHAR
STARTCHAR quotesinglbase
ENCODING 8218
SWIDTH 187 0
DWIDTH 5 0
BBX 1 7 2 -3
BITMAP
80
80
80
80
80
80
80
ENDCHAR
STARTCHAR quotedblleft
ENCODING 8220
SWIDTH 329 0
DWIDTH 9 0
BBX 5 7 2 11
BITMAP
88
88
88
88
88
88
88
ENDCHAR
STARTCHAR quotedblright
ENCODING 8221
SWIDTH 329 0
DWIDTH 9 0
BBX 5 7 2 11
BITMAP
88
88
88
88
88
88
88
ENDCHAR
STARTCHAR quotedblbase
ENCODING 8222
SWIDTH 337 0
DWIDTH 9 0
BBX 6 7 2 -3
BITMAP
8C
8C
8C
88
88
88
88
ENDCHAR
STARTCHAR dagger
ENCODING 8224
SWIDTH 427 0
DWIDTH 12 0
BBX 10 18 1 0
BITMAP
0C00
0C00
0C00
0C00
0C00
FFC0
0C00
0C00
0C00
0C00
0C00
0C00
0C00
0C00
0C00
0800
0800
0800
ENDCHAR
STARTCHAR daggerdbl
ENCODING 8225
SWIDTH 427 0
DWIDTH 12 0
BBX 10 18 1 0
BITMAP
0C00
0C00
0C00
0C00
0C00
FFC0
0C00
0C00
0C00
0C00
0C00
0C00
FFC0
0800
0C00
0C00
0C00
0C00
ENDCHAR
STARTCHAR bullet
ENCODING 8226
SWIDTH 273 0
DWIDTH 8 0
BBX 2 5 3 6
BITMAP
C0
C0
C0
C0
C0
ENDCHAR
STARTCHAR ellipsis
ENCODING 8230
SWIDTH 591 0
DWIDTH 17 0
BBX 13 4 2 0
BITMAP
8618
8618
8618
8618
ENDCHAR
STARTCHAR perthousand
ENCODING 8240
SWIDTH 1027 0
DWIDTH 29 0
BBX 27 18 1 0
BITMAP
3C080000
66080000
C2100000
C3100000
C3300000
C2200000
42600000
7E400000
00400000
00800000
008F07C0
01908C40
0110C820
03104820
02104820
0210C820
04198CC0
040F87C0
ENDCHAR
STARTCHAR guilsinglleft
ENCODING 8249
SWIDTH 290 0
DWIDTH 8 0
BBX 4 10 2 2
BITMAP
10
10
20
40
80
80
40
20
10
10
ENDCHAR
STARTCHAR guilsinglright
ENCODING 8250
SWIDTH 290 0
DWIDTH 8 0
BBX 4 10 2 2
BITMAP
80
80
40
20
10
10
20
40
80
80
ENDCHAR
STARTCHAR fraction
ENCODING 8260
SWIDTH 117 0
DWIDTH 3 0
BBX 15 18 -6 0
BITMAP
0006
000C
0008
0010
0030
0020
0040
0080
0180
0100
0200
0400
0C00
0800
1000
3000
6000
C000
ENDCHAR
STARTCHAR Euro
ENCODING 8364
SWIDTH 523 0
DWIDTH 15 0
BBX 12 18 1 0
BITMAP
0FC0
1860
3030
2030
2030
2000
2000
FF00
2000
2000
FF00
2000
2000
2030
2030
3030
1860
0FC0
ENDCHAR
STARTCHAR uni20B9
ENCODING 8377
SWIDTH 414 0
DWIDTH 12 0
BBX 10 18 1 0
BITMAP
FFC0
0C00
0600
0600
FFC0
0600
0600
0400
0C00
F800
C000
6000
2000
3000
1800
0800
0400
0600
ENDCHAR
STARTCHAR trademark
ENCODING 8482
SWIDTH 591 0
DWIDTH 17 0
BBX 13 7 2 12
BITMAP
FB18
2318
22A8
22A8
2248
2208
2208
ENDCHAR
STARTCHAR uni2126
ENCODING 8486
SWIDTH 629 0
DWIDTH 18 0
BBX 15 18 1 0
BITMAP
0FF0
3018
200C
2004
2004
2004
2004
2004
2004
2004
2004
2004
2004
2004
200C
200C
1008
FE7E
ENDCHAR
STARTCHAR partialdiff
ENCODING 8706
SWIDTH 481 0
DWIDTH 13 0
BBX 10 18 2 0
BITMAP
7800
0E00
0100
0080
0080
00C0
3EC0
C1C0
80C0
80C0
80C0
80C0
80C0
80C0
80C0
80C0
C180
7F00
ENDCHAR
STARTCHAR uni2206
ENCODING 8710
SWIDTH 594 0
DWIDTH 17 0
BBX 15 18 1 0
BITMAP
0300
0380
0680
06C0
04C0
0C40
0860
0820
1820
1030
1010
3010
2018
6008
600C
400C
C004
FFFE
ENDCHAR
STARTCHAR minus
ENCODING 8722
SWIDTH 523 0
DWIDTH 15 0
BBX 11 1 2 9
BITMAP
FFE0
ENDCHAR
STARTCHAR approxequal
ENCODING 8776
SWIDTH 523 0
DWIDTH 15 0
BBX 11 6 2 6
BITMAP
FFE0
0000
0000
0000
FC60
CFC0
ENDCHAR
STARTCHAR notequal
ENCODING 8800
SWIDTH 523 0
DWIDTH 15 0
BBX 11 12 2 3
BITMAP
0100
0200
0200
FFE0
0400
0400
0400
0800
FFE0
0800
1000
1000
ENDCHAR
STARTCHAR lessequal
ENCODING 8804
SWIDTH 523 0
DWIDTH 15 0
BBX 11 11 2 4
BITMAP
0020
01E0
1E00
F000
C000
3C00
0780
00E0
0000
0000
FFE0
ENDCHAR
STARTCHAR greaterequal
ENCODING 8805
SWIDTH 523 0
DWIDTH 15 0
BBX 11 11 2 4
BITMAP
8000
F000
1E00
01C0
00E0
0780
3C00
E000
0000
0000
FFE0
ENDCHAR
STARTCHAR uni25CC
ENCODING 9676
SWIDTH 701 0
DWIDTH 20 0
BBX 16 17 2 1
BITMAP
0320
1B30
1B34
180E
000C
6000
E003
4003
4003
C000
C002
3007
7002
3008
04DC
0EC8
04C0
ENDCHAR
STARTCHAR commaaccent
ENCODING 63171
SWIDTH 0 0
DWIDTH 0 0
BBX 1 6 6 -7
BITMAP
80
80
80
80
80
80
ENDCHAR
STARTCHAR .notdef
ENCODING -1
SWIDTH 600 0
DWIDTH 17 0
BBX 10 17 3 0
BITMAP
FFC0
C040
C040
C040
C040
C040
C040
C040
C040
C040
C040
C040
C040
C040
C040
C040
FFC0
ENDCHAR
STARTCHAR .null
ENCODING -1
SWIDTH 0 0
DWIDTH 0 0
BBX 1 1 0 0
BITMAP
00
ENDCHAR
STARTCHAR nonmarkingreturn
ENCODING -1
SWIDTH 333 0
DWIDTH 9 0
BBX 1 1 0 0
BITMAP
00
ENDCHAR
STARTCHAR uni0915094D
ENCODING -1
SWIDTH 519 0
DWIDTH 15 0
BBX 18 18 0 0
BITMAP
FFFFC0
006000
006000
006000
0E6F80
3070C0
206040
206000
206000
206000
206000
206000
206000
30E000
1FE000
006000
006000
006000
ENDCHAR
STARTCHAR uni0916094D
ENCODING -1
SWIDTH 468 0
DWIDTH 13 0
BBX 16 18 0 0
BITMAP
FFFF
0200
0200
0200
0200
021C
0220
0260
0640
7C40
6040
2040
1061
183E
0800
0400
0600
0300
ENDCHAR
STARTCHAR uni0917094D
ENCODING -1
SWIDTH 264 0
DWIDTH 7 0
BBX 8 11 0 7
BITMAP
FF
08
08
08
08
08
08
08
08
18
70
ENDCHAR
STARTCHAR uni0918094D
ENCODING -1
SWIDTH 321 0
DWIDTH 9 0
BBX 13 15 0 3
BITMAP
FFF0
1000
3000
2000
2000
2000
3000
0F00
1000
3000
2000
2000
2010
3018
1FE0
ENDCHAR
STARTCHAR uni0919094D
ENCODING -1
SWIDTH 505 0
DWIDTH 14 0
BBX 15 24 0 -6
BITMAP
FFFE
0060
0060
0060
0060
1FE0
3000
2000
2008
3000
1FC0
0060
0030
0030
2030
2030
3020
1FE0
0000
0000
0300
0180
0080
00C0
ENDCHAR
STARTCHAR uni091A094D
ENCODING -1
SWIDTH 330 0
DWIDTH 9 0
BBX 13 15 0 3
BITMAP
FFF8
0000
0000
0000
0000
0000
7F80
0C00
1800
1000
1000
1000
1808
0810
0FE0
ENDCHAR
STARTCHAR uni091B094D
ENCODING -1
SWIDTH 581 0
DWIDTH 16 0
BBX 17 17 0 1
BITMAP
FFFF80
180000
300000
300000
307800
300C00
300400
100400
0E0400
180400
300400
300400
300400
300400
300400
100C00
1FF800
ENDCHAR
STARTCHAR uni091C094D
ENCODING -1
SWIDTH 309 0
DWIDTH 9 0
BBX 12 16 0 2
BITMAP
FFF0
0000
0000
0000
0000
0000
3FF0
0600
0300
0300
0300
0300
0300
0300
0200
7C00
ENDCHAR
STARTCHAR uni091D094D
ENCODING -1
SWIDTH 432 0
DWIDTH 12 0
BBX 15 19 0 -1
BITMAP
FFFE
00C0
00C0
00C0
1FC0
3000
2000
2000
3000
1FFE
00C0
0060
2060
2060
3040
2FC0
2000
2000
2000
ENDCHAR
STARTCHAR uni091E094D
ENCODING -1
SWIDTH 359 0
DWIDTH 10 0
BBX 13 15 0 3
BITMAP
FFF8
0000
0000
0000
0000
3E00
0300
0100
0100
01F8
0100
0100
0100
0300
7E00
ENDCHAR
STARTCHAR uni091F094D
ENCODING -1
SWIDTH 485 0
DWIDTH 14 0
BBX 14 24 0 -6
BITMAP
FFFC
0060
0060
0060
0060
0FE0
1800
3000
2000
2000
2000
2010
2010
2010
3010
1030
1FE0
0000
0000
0300
0100
0080
00C0
0040
ENDCHAR
STARTCHAR uni0920094D
ENCODING -1
SWIDTH 512 0
DWIDTH 14 0
BBX 15 24 0 -6
BITMAP
FFFE
0020
0020
0020
0060
0FC0
1860
3030
2010
2010
2010
2010
2010
2010
3010
3030
1FE0
0000
0000
0300
0100
0180
00C0
0040
ENDCHAR
STARTCHAR uni0921094D
ENCODING -1
SWIDTH 475 0
DWIDTH 13 0
BBX 14 24 0 -6
BITMAP
FFFC
0060
0060
0060
0060
1FE0
3000
2000
2000
3000
1FC0
0060
0030
0030
2030
2030
3060
1FC0
0000
0000
0300
0180
0080
00C0
ENDCHAR
STARTCHAR uni0922094D
ENCODING -1
SWIDTH 485 0
DWIDTH 14 0
BBX 14 24 0 -6
BITMAP
FFFC
0060
0060
0060
0060
0FE0
1800
3000
2000
20E0
2130
2110
2110
2010
3010
1030
1FE0
0000
0000
0300
0100
0080
00C0
0040
ENDCHAR
STARTCHAR uni0923094D
ENCODING -1
SWIDTH 454 0
DWIDTH 13 0
BBX 13 13 0 5
BITMAP
FFF8
3040
3040
3040
3040
3040
3040
3040
3040
3040
3040
10C0
0F80
ENDCHAR
STARTCHAR uni0924094D
ENCODING -1
SWIDTH 263 0
DWIDTH 7 0
BBX 10 18 0 0
BITMAP
FFC0
0000
0000
0000
0000
0000
1FC0
3000
3000
2000
2000
2000
2000
2000
2000
2000
3000
1E00
ENDCHAR
STARTCHAR uni0925094D
ENCODING -1
SWIDTH 359 0
DWIDTH 10 0
BBX 11 15 2 3
BITMAP
3C00
6600
4200
C200
C200
0200
0200
0600
FC00
8000
8000
8000
8020
C060
7FC0
ENDCHAR
STARTCHAR uni0926094D
ENCODING -1
SWIDTH 489 0
DWIDTH 14 0
BBX 14 22 0 -4
BITMAP
FFFC
0020
0020
0020
0020
0FE0
1800
3000
2000
2000
2000
2030
2030
3030
1FF0
0030
0030
0030
0300
0100
0080
00C0
ENDCHAR
STARTCHAR uni0927094D
ENCODING -1
SWIDTH 321 0
DWIDTH 9 0
BBX 13 15 0 3
BITMAP
FE78
1000
3000
2000
2000
2000
3000
0F00
1000
3000
2000
2000
2010
3018
1FE0
ENDCHAR
STARTCHAR uni0928094D
ENCODING -1
SWIDTH 233 0
DWIDTH 7 0
BBX 9 12 0 6
BITMAP
FF80
0000
0000
0000
0000
0000
0000
3F80
6000
4000
4000
6000
ENDCHAR
STARTCHAR uni092A094D
ENCODING -1
SWIDTH 269 0
DWIDTH 8 0
BBX 11 13 0 5
BITMAP
FFE0
3000
3000
3000
3000
3000
3000
3000
3000
3000
3020
1860
0FC0
ENDCHAR
STARTCHAR uni092B094D
ENCODING -1
SWIDTH 530 0
DWIDTH 15 0
BBX 19 18 0 0
BITMAP
FFFFE0
302000
302000
302000
302F80
3038C0
303040
302000
302000
302000
186000
0FA000
002000
002000
002000
002000
002000
002000
ENDCHAR
STARTCHAR uni092C094D
ENCODING -1
SWIDTH 265 0
DWIDTH 7 0
BBX 11 15 0 3
BITMAP
FFE0
0000
0000
0000
0F00
3000
3000
2800
2400
2200
2120
20A0
2060
3060
1FC0
ENDCHAR
STARTCHAR uni092D094D
ENCODING -1
SWIDTH 261 0
DWIDTH 7 0
BBX 10 13 0 5
BITMAP
C1C0
6000
3000
3000
3000
3000
3000
3000
3FC0
3000
3000
3000
2000
ENDCHAR
STARTCHAR uni092E094D
ENCODING -1
SWIDTH 261 0
DWIDTH 7 0
BBX 10 13 0 5
BITMAP
FFC0
3000
3000
3000
3000
3000
3000
3000
3FC0
3000
3000
3000
2000
ENDCHAR
STARTCHAR uni092F094D
ENCODING -1
SWIDTH 323 0
DWIDTH 9 0
BBX 13 15 0 3
BITMAP
FFF0
0600
0200
0200
0200
0200
0600
3C00
2000
2000
2000
2000
3018
1830
0FE0
ENDCHAR
STARTCHAR uni0930094D
ENCODING -1
SWIDTH 337 0
DWIDTH 9 0
BBX 10 24 0 -6
BITMAP
FFC0
0200
0200
0200
0200
0200
0200
0200
0600
7C00
6000
2000
1000
1800
0800
0400
0600
0300
0000
0800
0C00
0600
0200
0300
ENDCHAR
STARTCHAR uni0932094D
ENCODING -1
SWIDTH 431 0
DWIDTH 12 0
BBX 16 17 0 1
BITMAP
FFFF
0000
0000
0000
0000
0F3C
19E3
30C0
20C0
2040
2040
2040
2000
2000
3000
1000
1F00
ENDCHAR
STARTCHAR uni0933094D
ENCODING -1
SWIDTH 677 0
DWIDTH 19 0
BBX 19 17 0 1
BITMAP
FFFFE0
000000
000000
000000
000000
0F3E00
11A300
20C180
204180
204080
204080
204080
204080
204180
20C180
30E100
1F3E00
ENDCHAR
STARTCHAR uni0935094D
ENCODING -1
SWIDTH 255 0
DWIDTH 7 0
BBX 11 15 0 3
BITMAP
FFE0
0000
0000
0000
0F00
3000
2000
2000
2000
2000
2020
2020
2020
3060
1FC0
ENDCHAR
STARTCHAR uni0936094D
ENCODING -1
SWIDTH 378 0
DWIDTH 11 0
BBX 8 18 1 0
BITMAP
1E
23
61
41
41
01
01
01
03
FE
C0
60
20
30
18
08
0C
06
ENDCHAR
STARTCHAR uni0937094D
ENCODING -1
SWIDTH 282 0
DWIDTH 8 0
BBX 12 13 0 5
BITMAP
FFF0
3000
3800
3800
3400
3200
3100
3180
30C0
3040
3030
1860
0FC0
ENDCHAR
STARTCHAR uni0938094D
ENCODING -1
SWIDTH 338 0
DWIDTH 9 0
BBX 13 18 0 0
BITMAP
FFF8
0600
0600
0600
0600
0600
0600
0400
0C00
7FF8
6000
2000
3000
1000
0800
0C00
0400
0600
ENDCHAR
STARTCHAR uni0939094D
ENCODING -1
SWIDTH 457 0
DWIDTH 13 0
BBX 16 19 0 -1
BITMAP
FFFC
0020
0020
0020
0FE0
1800
3000
3000
3000
1000
0FFF
1800
3000
2000
2000
2000
3000
1000
0FE0
ENDCHAR
STARTCHAR uni0915093C094D
ENCODING -1
SWIDTH 519 0
DWIDTH 15 0
BBX 18 19 0 -1
BITMAP
FFFFC0
006000
006000
006000
0E6F80
3070C0
206040
206000
206000
206000
206000
206000
206000
30E000
1FE000
006000
006000
006000
180000
ENDCHAR
STARTCHAR uni0916093C094D
ENCODING -1
SWIDTH 463 0
DWIDTH 13 0
BBX 16 19 0 -1
BITMAP
FFFF
0200
0200
0200
0200
021C
0220
0260
0640
7C40
6040
2040
1061
183E
0C00
0400
0600
0300
2000
ENDCHAR
STARTCHAR uni0917093C094D
ENCODING -1
SWIDTH 264 0
DWIDTH 7 0
BBX 8 18 0 0
BITMAP
FF
08
08
08
08
08
08
08
08
18
70
00
00
00
00
00
00
10
ENDCHAR
STARTCHAR uni091C093C094D
ENCODING -1
SWIDTH 314 0
DWIDTH 9 0
BBX 12 20 0 -2
BITMAP
FFF0
0000
0000
0000
0000
0000
3FF0
0600
0300
0300
0300
0300
0300
0300
0200
7C00
0000
0000
0000
1000
ENDCHAR
STARTCHAR uni0928093C094D
ENCODING -1
SWIDTH 241 0
DWIDTH 7 0
BBX 10 18 0 0
BITMAP
FFC0
0000
0000
0000
0000
0000
0000
3FC0
6000
6000
6000
2000
0000
0000
0000
0000
0000
1800
ENDCHAR
STARTCHAR uni092B093C094D
ENCODING -1
SWIDTH 530 0
DWIDTH 15 0
BBX 19 19 0 -1
BITMAP
FFFFE0
302000
302000
302000
302F80
3038C0
303040
302000
302000
302000
186000
0FA000
002000
002000
002000
002000
002000
002000
080000
ENDCHAR
STARTCHAR uni092F093C094D
ENCODING -1
SWIDTH 325 0
DWIDTH 9 0
BBX 13 19 0 -1
BITMAP
FFF0
0600
0200
0200
0200
0200
0600
3C00
2000
2000
2000
2000
3018
1830
0FE0
0000
0000
0000
0C00
ENDCHAR
STARTCHAR uni09080902
ENCODING -1
SWIDTH 478 0
DWIDTH 13 0
BBX 14 26 0 -1
BITMAP
0078
00C0
0180
0130
0100
0100
0180
FFFC
0060
0060
0060
1FE0
3000
2000
2000
2000
3000
1FC0
0060
0030
2030
2030
3020
2FE0
2000
2000
ENDCHAR
STARTCHAR uni09300941
ENCODING -1
SWIDTH 533 0
DWIDTH 15 0
BBX 15 18 0 0
BITMAP
FFFE
0200
0200
0200
0200
03F0
0218
0208
0608
7C08
6008
2018
1030
18E0
0840
0400
0600
0300
ENDCHAR
STARTCHAR uni09300942
ENCODING -1
SWIDTH 645 0
DWIDTH 18 0
BBX 18 18 0 0
BITMAP
FFFFC0
020000
020000
020000
020000
023E00
022300
026100
064100
7C4100
600100
200100
100600
180C00
083800
040000
060000
030000
ENDCHAR
STARTCHAR uni09390941
ENCODING -1
SWIDTH 495 0
DWIDTH 14 0
BBX 14 25 0 -7
BITMAP
FFFC
0020
0020
0020
0FE0
1800
3000
3000
3000
1000
0FC0
1860
3020
2020
2020
2000
3000
1000
0FE0
0030
2010
2010
3010
1C30
07C0
ENDCHAR
STARTCHAR uni09390942
ENCODING -1
SWIDTH 492 0
DWIDTH 14 0
BBX 14 25 0 -7
BITMAP
FFFC
0020
0020
0020
0020
1FE0
3800
3000
3000
1000
0FC0
1860
3020
2020
2020
2000
3000
1000
0F80
18E0
1020
1030
1010
1818
0E00
ENDCHAR
STARTCHAR uni09260943
ENCODING -1
SWIDTH 390 0
DWIDTH 11 0
BBX 11 16 0 2
BITMAP
FFE0
0180
0180
0180
1F80
3800
2000
2000
3000
1F00
1800
3000
2000
2000
3000
1FC0
ENDCHAR
STARTCHAR uni09390943
ENCODING -1
SWIDTH 519 0
DWIDTH 15 0
BBX 15 21 0 -3
BITMAP
FFFE
0020
0020
0020
1FE0
3000
2000
2000
2000
3000
1FF0
1118
3308
2300
2300
2100
21F8
2000
2000
3000
1FE0
ENDCHAR
STARTCHAR uni094D0930
ENCODING -1
SWIDTH 0 0
DWIDTH 0 0
BBX 8 6 -11 -5
BITMAP
10
18
2C
66
C2
81
ENDCHAR
STARTCHAR uni0930094D.1
ENCODING -1
SWIDTH 192 0
DWIDTH 5 0
BBX 10 8 -2 10
BITMAP
3F00
0000
0000
0000
0000
8040
C0C0
7F80
ENDCHAR
STARTCHAR uni0930094D.2
ENCODING -1
SWIDTH 0 0
DWIDTH 0 0
BBX 5 8 -4 17
BITMAP
78
C0
C0
80
80
80
80
C0
ENDCHAR
STARTCHAR uni0930094D0902
ENCODING -1
SWIDTH 0 0
DWIDTH 0 0
BBX 5 8 -4 17
BITMAP
78
40
C0
80
90
80
80
C0
ENDCHAR
STARTCHAR uni093E0930094D
ENCODING -1
SWIDTH 231 0
DWIDTH 6 0
BBX 7 25 0 0
BITMAP
0E
18
10
10
10
10
10
FE
10
10
10
10
10
10
10
10
10
10
10
10
10
10
10
10
10
ENDCHAR
STARTCHAR uni093E0930094D0902
ENCODING -1
SWIDTH 231 0
DWIDTH 6 0
BBX 7 25 0 0
BITMAP
0E
18
10
12
10
10
10
FE
10
10
10
10
10
10
10
10
10
10
10
10
10
10
10
10
10
ENDCHAR
STARTCHAR uni0930094D.aMatraI
ENCODING -1
SWIDTH 0 0
DWIDTH 0 0
BBX 4 6 -1 18
BITMAP
70
C0
80
80
80
80
ENDCHAR
STARTCHAR uni0902.aMatraI
ENCODING -1
SWIDTH 0 0
DWIDTH 0 0
BBX 2 1 1 22
BITMAP
C0
ENDCHAR
STARTCHAR uni0930094D0902.aMatraI
ENCODING -1
SWIDTH 0 0
DWIDTH 0 0
BBX 4 6 -1 18
BITMAP
70
C0
80
90
80
80
ENDCHAR
STARTCHAR uni09400930094D
ENCODING -1
SWIDTH 231 0
DWIDTH 6 0
BBX 11 25 -4 0
BITMAP
3CE0
6780
C300
8100
8100
0100
0100
0FE0
0100
0100
0100
0100
0100
0100
0100
0100
0100
0100
0100
0100
0100
0100
0100
0100
0100
ENDCHAR
STARTCHAR uni09400902
ENCODING -1
SWIDTH 231 0
DWIDTH 6 0
BBX 11 25 -4 0
BITMAP
3C00
E600
C360
8100
8100
0100
0100
0FE0
0100
0100
0100
0100
0100
0100
0100
0100
0100
0100
0100
0100
0100
0100
0100
0100
0100
ENDCHAR
STARTCHAR uni09400930094D0902
ENCODING -1
SWIDTH 231 0
DWIDTH 6 0
BBX 11 25 -4 0
BITMAP
7CE0
E780
C300
8120
8100
0100
0100
0FE0
0100
0100
0100
0100
0100
0100
0100
0100
0100
0100
0100
0100
0100
0100
0100
0100
0100
ENDCHAR
STARTCHAR uni0940.aLong
ENCODING -1
SWIDTH 231 0
DWIDTH 6 0
BBX 18 25 -11 0
BITMAP
3FF800
600C00
C00600
C00200
C00200
000200
000200
001FC0
000200
000200
000200
000200
000200
000200
000200
000200
000200
000200
000200
000200
000200
000200
000200
000200
000200
ENDCHAR
STARTCHAR uni09400930094D.aLong
ENCODING -1
SWIDTH 231 0
DWIDTH 6 0
BBX 18 25 -11 0
BITMAP
3FF9C0
600F00
C00600
C00200
C00200
000200
000200
001FC0
000200
000200
000200
000200
000200
000200
000200
000200
000200
000200
000200
000200
000200
000200
000200
000200
000200
ENDCHAR
STARTCHAR uni09400902.aLong
ENCODING -1
SWIDTH 231 0
DWIDTH 6 0
BBX 18 25 -11 0
BITMAP
3FF800
600C00
C00600
C00240
C00200
000200
000200
001FC0
000200
000200
000200
000200
000200
000200
000200
000200
000200
000200
000200
000200
000200
000200
000200
000200
000200
ENDCHAR
STARTCHAR uni09400930094D0902.aLong
ENCODING -1
SWIDTH 231 0
DWIDTH 6 0
BBX 18 25 -11 0
BITMAP
3FF9C0
600F00
C00600
C00240
800200
000200
000200
001FC0
000200
000200
000200
000200
000200
000200
000200
000200
000200
000200
000200
000200
000200
000200
000200
000200
000200
ENDCHAR
STARTCHAR uni09470930094D
ENCODING -1
SWIDTH 0 0
DWIDTH 0 0
BBX 10 8 -9 17
BITMAP
C3C0
6200
2600
3400
1C00
0C00
0400
0200
ENDCHAR
STARTCHAR uni09470902
ENCODING -1
SWIDTH 0 0
DWIDTH 0 0
BBX 9 8 -9 17
BITMAP
C000
6000
2000
3180
1800
0800
0C00
0600
ENDCHAR
STARTCHAR uni09470901
ENCODING -1
SWIDTH 0 0
DWIDTH 0 0
BBX 14 8 -9 17
BITMAP
C060
6204
2204
3204
1B04
09F8
0C00
0600
ENDCHAR
STARTCHAR uni09470930094D0902
ENCODING -1
SWIDTH 0 0
DWIDTH 0 0
BBX 10 8 -9 17
BITMAP
C1C0
6200
2600
3400
1C80
0C00
0400
0200
ENDCHAR
STARTCHAR uni09480930094D
ENCODING -1
SWIDTH 0 0
DWIDTH 0 0
BBX 10 8 -9 17
BITMAP
8DC0
4F00
6E00
2E00
3400
1400
0C00
0600
ENDCHAR
STARTCHAR uni09480902
ENCODING -1
SWIDTH 0 0
DWIDTH 0 0
BBX 10 8 -9 17
BITMAP
C400
4400
6400
34C0
1400
1C00
0A00
0600
ENDCHAR
STARTCHAR uni09480901
ENCODING -1
SWIDTH 0 0
DWIDTH 0 0
BBX 17 8 -9 17
BITMAP
C40800
448080
648180
34C100
147F00
1C0000
0C0000
060000
ENDCHAR
STARTCHAR uni09480930094D0902
ENCODING -1
SWIDTH 0 0
DWIDTH 0 0
BBX 10 8 -9 17
BITMAP
8DC0
4F00
6E00
2E00
3480
1400
0C00
0600
ENDCHAR
STARTCHAR uni094B0930094D
ENCODING -1
SWIDTH 231 0
DWIDTH 6 0
BBX 9 25 -2 0
BITMAP
C380
4600
6400
3400
1400
1C00
0C00
3F80
0400
0400
0400
0400
0400
0400
0400
0400
0400
0400
0400
0400
0400
0400
0400
0400
0400
ENDCHAR
STARTCHAR uni094B0902
ENCODING -1
SWIDTH 231 0
DWIDTH 6 0
BBX 9 25 -2 0
BITMAP
C000
4000
6300
3000
1000
1800
0C00
3F80
0400
0400
0400
0400
0400
0400
0400
0400
0400
0400
0400
0400
0400
0400
0400
0400
0400
ENDCHAR
STARTCHAR uni094B0930094D0902
ENCODING -1
SWIDTH 231 0
DWIDTH 6 0
BBX 9 25 -2 0
BITMAP
C380
4600
6400
3480
1C00
1C00
0C00
3F80
0400
0400
0400
0400
0400
0400
0400
0400
0400
0400
0400
0400
0400
0400
0400
0400
0400
ENDCHAR
STARTCHAR uni094C0930094D
ENCODING -1
SWIDTH 231 0
DWIDTH 6 0
BBX 10 25 -3 0
BITMAP
C4C0
6500
2600
3600
1E00
0E00
0600
1FC0
0200
0200
0200
0200
0200
0200
0200
0200
0200
0200
0200
0200
0200
0200
0200
0200
0200
ENDCHAR
STARTCHAR uni094C0902
ENCODING -1
SWIDTH 231 0
DWIDTH 6 0
BBX 9 25 -2 0
BITMAP
8400
C400
6580
2400
1400
1C00
0C00
3F80
0400
0400
0400
0400
0400
0400
0400
0400
0400
0400
0400
0400
0400
0400
0400
0400
0400
ENDCHAR
STARTCHAR uni094C0930094D0902
ENCODING -1
SWIDTH 231 0
DWIDTH 6 0
BBX 10 25 -3 0
BITMAP
C4C0
6500
2600
3640
1E00
0E00
0600
1FC0
0200
0200
0200
0200
0200
0200
0200
0200
0200
0200
0200
0200
0200
0200
0200
0200
0200
ENDCHAR
STARTCHAR uni0915094D0937
ENCODING -1
SWIDTH 656 0
DWIDTH 18 0
BBX 17 18 2 0
BITMAP
1E0F80
330C00
618C00
608C00
608C00
618C00
210C00
7FFC00
C00C00
800C00
800C00
818C00
818C00
818C00
C18C00
7F8C00
018C00
018C00
ENDCHAR
STARTCHAR uni0915094D0937094D
ENCODING -1
SWIDTH 429 0
DWIDTH 12 0
BBX 13 18 2 0
BITMAP
1E00
3300
6180
6080
6080
6180
2100
7FF8
C000
8000
8000
8180
8180
8180
C180
7F80
0180
0180
ENDCHAR
STARTCHAR uni0915094D0937094D092E
ENCODING -1
SWIDTH 933 0
DWIDTH 26 0
BBX 25 18 2 0
BITMAP
1E1FFF80
33040C00
61840C00
60840C00
60840C00
61840C00
21040C00
7FFC0C00
C007FC00
80040C00
80040C00
81840C00
81840C00
81800C00
C1800C00
7F800C00
01800C00
01800800
ENDCHAR
STARTCHAR uni0915094D0937094D092E094D
ENCODING -1
SWIDTH 717 0
DWIDTH 20 0
BBX 21 18 2 0
BITMAP
1E1FF8
330400
618400
608400
608400
618400
210400
7FFC00
C007F8
800400
800400
818400
818400
818000
C18000
7F8000
018000
018000
ENDCHAR
STARTCHAR uni0915094D0937094D092E094D092F
ENCODING -1
SWIDTH 1283 0
DWIDTH 36 0
BBX 34 18 2 0
BITMAP
1E1FFFFFC0
3304018200
6184008200
608400C200
608400C200
6184008200
2104018200
7FFC0F0200
C007F80200
8004080200
8004080200
8184080200
81840C0200
8180060600
C18003FA00
7F80000200
0180000200
0180000200
ENDCHAR
STARTCHAR uni0915094D0937094D092F
ENCODING -1
SWIDTH 989 0
DWIDTH 28 0
BBX 26 18 2 0
BITMAP
1E1FFFC0
33018200
61808200
60808200
60808200
61808200
21018200
7FFF0200
C0080200
80080200
80080200
81880200
818C0600
81840E00
C183FA00
7F800200
01800200
01800200
ENDCHAR
STARTCHAR uni0915094D0937094D0935
ENCODING -1
SWIDTH 936 0
DWIDTH 26 0
BBX 25 18 2 0
BITMAP
1E1FFF80
33000C00
61800C00
60800C00
6083CC00
61860C00
21040C00
7FFC0C00
C00C0C00
800C0C00
800C0C00
818C0C00
81840C00
81861C00
C183FC00
7F800C00
01800C00
01800C00
ENDCHAR
STARTCHAR uni091C094D091E
ENCODING -1
SWIDTH 629 0
DWIDTH 18 0
BBX 18 20 0 -2
BITMAP
FFFFC0
000200
000200
000200
000200
1FFE00
300200
200200
200200
300200
1FC200
006200
002200
202200
202200
306200
2FC200
200200
200000
200000
ENDCHAR
STARTCHAR uni091C094D091E094D
ENCODING -1
SWIDTH 398 0
DWIDTH 11 0
BBX 14 20 0 -2
BITMAP
FFFC
0000
0000
0000
0000
1FFC
3000
2000
2000
3000
1FC0
0060
0020
2020
2020
3060
2FC0
2000
2000
2000
ENDCHAR
STARTCHAR uni091C094D091E094D092F
ENCODING -1
SWIDTH 975 0
DWIDTH 27 0
BBX 28 20 0 -2
BITMAP
FFFFFFF0
00004180
00006180
00002180
00002180
1FFC2180
300E6180
2007C180
20060180
30060180
1FC60180
00660180
00220180
20230380
2021FF80
30600180
2FC00180
20000180
20000000
20000000
ENDCHAR
STARTCHAR uni0915094D0928
ENCODING -1
SWIDTH 1003 0
DWIDTH 28 0
BBX 28 18 0 0
BITMAP
FFFFFFF0
006000C0
006000C0
006000C0
0E6F80C0
3070C0C0
206040C0
20607FC0
2060C0C0
206080C0
206080C0
2060C0C0
206000C0
30E000C0
1FE000C0
006000C0
006000C0
006000C0
ENDCHAR
STARTCHAR uni0916094D0928
ENCODING -1
SWIDTH 958 0
DWIDTH 27 0
BBX 27 18 0 0
BITMAP
FFFFFFE0
02000100
02000100
02000100
02000100
021E0100
02230100
02618100
0641FF00
7C418100
60410100
20610100
103F0100
18018100
08000100
04000100
06000100
03000100
ENDCHAR
STARTCHAR uni0917094D0928
ENCODING -1
SWIDTH 736 0
DWIDTH 21 0
BBX 21 18 0 0
BITMAP
FFFFF8
080040
080040
080040
080040
080040
080040
083FC0
086040
184040
704040
004040
000040
000040
000040
000040
000040
000040
ENDCHAR
STARTCHAR uni0918094D0928
ENCODING -1
SWIDTH 814 0
DWIDTH 23 0
BBX 23 18 0 0
BITMAP
FFFFFE
100010
300010
200010
200010
300010
0F0010
100FF0
301810
201010
201010
301010
103010
1FF810
000010
000010
000010
000010
ENDCHAR
STARTCHAR uni091A094D0928
ENCODING -1
SWIDTH 829 0
DWIDTH 23 0
BBX 24 18 0 0
BITMAP
FFFFFF
000018
000018
000018
000018
7F8018
0C0018
180FF8
100818
101818
101818
181818
083818
07E818
000018
000018
000018
000018
ENDCHAR
STARTCHAR uni091B094D0928
ENCODING -1
SWIDTH 977 0
DWIDTH 27 0
BBX 28 18 0 0
BITMAP
FFFFFFF0
18000180
30000180
30000180
30780180
300C0180
30040180
1004FF80
0E04C180
18058180
30058180
30048180
30048180
30040180
30040180
100C0180
1FF80180
00000180
ENDCHAR
STARTCHAR uni091C094D0928
ENCODING -1
SWIDTH 831 0
DWIDTH 23 0
BBX 24 18 0 0
BITMAP
FFFFFF
000018
000018
000018
000018
000018
000018
3FFFF8
061818
031818
031818
031818
030818
030018
030018
020018
7C0018
000018
ENDCHAR
STARTCHAR uni091D094D0928
ENCODING -1
SWIDTH 935 0
DWIDTH 26 0
BBX 27 19 0 -1
BITMAP
FFFFFFE0
00C00300
00C00300
00C00300
1FC00300
30000300
20000300
2001FF00
30030300
1FFF0300
00C30300
00630300
20600300
20600300
30400300
2FC00300
20000300
20000300
20000000
ENDCHAR
STARTCHAR uni091F094D0928
ENCODING -1
SWIDTH 494 0
DWIDTH 14 0
BBX 14 25 0 -7
BITMAP
FFFC
0060
0060
0060
0060
0060
0FE0
1800
3000
2000
2010
2010
2010
3030
1FE0
0020
0020
0020
1FE0
3020
2020
2020
3020
0020
0020
ENDCHAR
STARTCHAR uni0920094D0928
ENCODING -1
SWIDTH 516 0
DWIDTH 14 0
BBX 15 25 0 -7
BITMAP
FFFE
0020
0020
0020
0060
0FC0
1830
3010
2010
2010
2010
2010
2010
3030
1FE0
0020
0020
0020
1FE0
3020
2020
2020
3020
0020
0020
ENDCHAR
STARTCHAR uni0921094D0928
ENCODING -1
SWIDTH 481 0
DWIDTH 13 0
BBX 14 25 0 -7
BITMAP
FFFC
0020
0020
0020
1FE0
3000
3000
2000
3000
1FC0
0060
0030
2030
2030
3020
1FE0
0020
0020
1FE0
3020
2020
2020
3020
0020
0020
ENDCHAR
STARTCHAR uni0924094D0928
ENCODING -1
SWIDTH 756 0
DWIDTH 21 0
BBX 22 18 0 0
BITMAP
FFFFFC
000060
000060
000060
000060
000060
1FC060
303FE0
206060
206060
206060
206060
200060
200060
200060
200060
300060
1E0060
ENDCHAR
STARTCHAR uni0925094D0928
ENCODING -1
SWIDTH 855 0
DWIDTH 24 0
BBX 22 18 2 0
BITMAP
3C7FFC
660020
C20020
C20020
420020
020020
060020
FC1FE0
803020
802020
802020
802020
C07020
7FD020
000020
000020
000020
000020
ENDCHAR
STARTCHAR uni0926094D0928
ENCODING -1
SWIDTH 955 0
DWIDTH 27 0
BBX 27 24 0 -6
BITMAP
FFFFFFE0
00200100
00200100
00200100
00200100
0FE00100
18000100
3000FF00
20018100
20010100
20010100
20310100
20300100
30300100
1FF00100
00300100
00300100
00300100
00000000
00300000
00100000
00080000
000C0000
00040000
ENDCHAR
STARTCHAR uni0927094D0928
ENCODING -1
SWIDTH 814 0
DWIDTH 23 0
BBX 23 18 0 0
BITMAP
FE3FFE
100010
300010
200010
200010
300010
0F0010
100FF0
301810
201010
201010
301010
103010
1FF810
000010
000010
000010
000010
ENDCHAR
STARTCHAR uni0928094D0928
ENCODING -1
SWIDTH 738 0
DWIDTH 21 0
BBX 21 18 0 0
BITMAP
FFFFF8
000040
000040
000040
000040
000040
000040
3FFFC0
606040
604040
604040
604040
000040
000040
000040
000040
000040
000040
ENDCHAR
STARTCHAR uni092A094D0928
ENCODING -1
SWIDTH 782 0
DWIDTH 22 0
BBX 22 18 0 0
BITMAP
FFFFFC
300020
300020
300020
300020
300020
300020
301FE0
303020
302020
186020
0FE020
001020
000020
000020
000020
000020
000020
ENDCHAR
STARTCHAR uni092B094D0928
ENCODING -1
SWIDTH 1013 0
DWIDTH 28 0
BBX 29 18 0 0
BITMAP
FFFFFFF8
302000C0
302000C0
302000C0
302F80C0
3038C0C0
303040C0
30207FC0
302040C0
3020C0C0
1860C0C0
0FA040C0
002000C0
002000C0
002000C0
002000C0
002000C0
002000C0
ENDCHAR
STARTCHAR uni092C094D0928
ENCODING -1
SWIDTH 810 0
DWIDTH 23 0
BBX 23 18 0 0
BITMAP
FFFFFE
000010
000010
000010
0F0010
380010
380010
2C0FF0
261810
231010
211010
209010
204010
306010
1F8010
000010
000010
000010
ENDCHAR
STARTCHAR uni092D094D0928
ENCODING -1
SWIDTH 757 0
DWIDTH 21 0
BBX 22 18 0 0
BITMAP
C1FFFC
600060
300060
300060
300060
300060
300060
303FE0
3FE060
306060
306060
306060
300060
000060
000060
000060
000060
000060
ENDCHAR
STARTCHAR uni092E094D0928
ENCODING -1
SWIDTH 757 0
DWIDTH 21 0
BBX 22 18 0 0
BITMAP
FFFFFC
300060
300060
300060
300060
300060
300060
303FE0
3FE060
306060
306060
306060
300060
000060
000060
000060
000060
000060
ENDCHAR
STARTCHAR uni092F094D0928
ENCODING -1
SWIDTH 829 0
DWIDTH 23 0
BBX 24 18 0 0
BITMAP
FFFFFF
060018
020018
020018
020018
020018
060018
3C0FF8
200818
201818
201818
301818
103818
0FE818
000018
000018
000018
000018
ENDCHAR
STARTCHAR uni0935094D0928
ENCODING -1
SWIDTH 798 0
DWIDTH 22 0
BBX 23 18 0 0
BITMAP
FFFFFE
000030
000030
000030
0F0030
300030
200030
201FF0
201030
203030
203030
201030
202030
304030
1F8030
000030
000030
000030
ENDCHAR
STARTCHAR uni0936094D0928
ENCODING -1
SWIDTH 845 0
DWIDTH 24 0
BBX 23 18 1 0
BITMAP
1E1FFE
230010
610010
410010
410010
010010
010010
010FF0
031810
FE1010
C01010
601010
200010
300010
180010
080010
0C0010
060010
ENDCHAR
STARTCHAR uni0938094D0928
ENCODING -1
SWIDTH 831 0
DWIDTH 23 0
BBX 24 18 0 0
BITMAP
FFFFFF
060018
060018
060018
060018
060018
060018
040FF8
0C0C18
7FF818
601818
201818
300818
100018
080018
0C0018
040018
060018
ENDCHAR
STARTCHAR uni0939094D0928
ENCODING -1
SWIDTH 500 0
DWIDTH 14 0
BBX 14 20 0 -2
BITMAP
FFFC
0030
0030
0030
0FF0
1800
3000
3000
3000
1000
0FF8
1838
3058
2198
2118
2118
2110
3080
1000
0FE0
ENDCHAR
STARTCHAR uni0915094D0930
ENCODING -1
SWIDTH 725 0
DWIDTH 20 0
BBX 21 19 0 -1
BITMAP
FFFFF8
006000
006000
006000
0E6F80
3070C0
206040
206060
206060
206060
206060
206060
206040
30E0C0
1FE780
016000
026000
0C6000
180000
ENDCHAR
STARTCHAR uni0916094D0930
ENCODING -1
SWIDTH 698 0
DWIDTH 20 0
BBX 20 19 0 -1
BITMAP
FFFFF0
020080
020080
020080
020080
021C80
023080
026080
064080
7C4080
604080
206180
106180
183E80
0C0480
040C80
061880
033080
006000
ENDCHAR
STARTCHAR uni0917094D0930
ENCODING -1
SWIDTH 494 0
DWIDTH 14 0
BBX 14 18 0 0
BITMAP
FFFC
0820
0820
0820
0820
0820
0820
0820
0820
1860
7060
00A0
0120
0320
0620
0420
0820
1820
ENDCHAR
STARTCHAR uni0918094D0930
ENCODING -1
SWIDTH 559 0
DWIDTH 16 0
BBX 16 19 0 -1
BITMAP
FFFF
1008
3008
2008
2008
2008
3008
0F08
1008
3008
2008
2008
3018
3018
1FE8
00C8
0188
0308
0C00
ENDCHAR
STARTCHAR uni0919094D0930
ENCODING -1
SWIDTH 505 0
DWIDTH 14 0
BBX 15 22 0 -4
BITMAP
FFFE
0060
0060
0060
0060
1FE0
3000
2000
2008
3000
1FC0
0060
0030
0030
2030
2030
3020
1FE0
0700
0C80
18C0
3060
ENDCHAR
STARTCHAR uni091A094D0930
ENCODING -1
SWIDTH 563 0
DWIDTH 16 0
BBX 16 19 0 -1
BITMAP
FFFF
0008
0008
0008
0008
0008
7F88
0C08
1808
1008
1008
1008
1808
1818
0FE8
00C8
0188
0308
0C00
ENDCHAR
STARTCHAR uni091B094D0930
ENCODING -1
SWIDTH 581 0
DWIDTH 16 0
BBX 17 21 0 -3
BITMAP
FFFF80
180800
300800
300800
300800
300800
307800
100C00
0E0400
180400
300400
300400
300400
300400
300400
100C00
1FF800
03C000
026000
043000
081000
ENDCHAR
STARTCHAR uni091C094D0930
ENCODING -1
SWIDTH 547 0
DWIDTH 15 0
BBX 16 19 0 -1
BITMAP
FFFF
0018
0018
0018
0018
0018
3FF8
0618
0318
0318
0318
0318
0318
0238
7E78
00D8
0198
0318
0200
ENDCHAR
STARTCHAR uni091D094D0930
ENCODING -1
SWIDTH 684 0
DWIDTH 19 0
BBX 20 19 0 -1
BITMAP
FFFFF0
00C180
00C180
00C180
1FC180
300180
200180
200180
300180
1FFF80
00C180
006180
206180
206380
304780
2FCD80
201980
201180
202000
ENDCHAR
STARTCHAR uni091E094D0930
ENCODING -1
SWIDTH 598 0
DWIDTH 17 0
BBX 17 19 0 -1
BITMAP
FFFF80
000400
000400
000400
000400
3E0400
030400
010400
010400
01FC00
010400
010400
010C00
031C00
7E3400
006400
00C400
018400
010000
ENDCHAR
STARTCHAR uni091F094D0930
ENCODING -1
SWIDTH 485 0
DWIDTH 14 0
BBX 14 21 0 -3
BITMAP
FFFC
0060
0060
0060
0060
0FE0
1800
3000
2000
2000
2000
2010
2010
2010
3010
1020
1FE0
0780
04C0
0C60
1830
ENDCHAR
STARTCHAR uni0920094D0930
ENCODING -1
SWIDTH 512 0
DWIDTH 14 0
BBX 15 21 0 -3
BITMAP
FFFE
0020
0020
0020
0060
0FC0
1860
3030
2010
2010
2010
2010
2010
2010
3010
3030
1FE0
0780
04C0
0860
1830
ENDCHAR
STARTCHAR uni0921094D0930
ENCODING -1
SWIDTH 475 0
DWIDTH 13 0
BBX 14 22 0 -4
BITMAP
FFFC
0060
0060
0060
0060
1FE0
3000
2000
2000
3000
1FC0
0060
0030
0030
2030
2030
3020
1FC0
0780
0CC0
0840
1060
ENDCHAR
STARTCHAR uni0922094D0930
ENCODING -1
SWIDTH 485 0
DWIDTH 14 0
BBX 14 21 0 -3
BITMAP
FFFC
0060
0060
0060
0060
0FE0
1800
3000
2000
20E0
2130
2110
2110
2010
3010
1030
1FE0
0380
04C0
0C60
1830
ENDCHAR
STARTCHAR uni0923094D0930
ENCODING -1
SWIDTH 681 0
DWIDTH 19 0
BBX 19 18 0 0
BITMAP
FFFFE0
304180
304180
304180
304180
304180
304180
304180
304180
304180
304380
10C380
0F8580
000D80
001980
003180
006180
00C180
ENDCHAR
STARTCHAR uni0924094D0930
ENCODING -1
SWIDTH 493 0
DWIDTH 14 0
BBX 14 18 0 0
BITMAP
FFFC
0020
0020
0020
0020
0020
1FA0
3060
2020
2020
2020
2020
0060
01A0
0320
0620
0C20
3020
ENDCHAR
STARTCHAR uni0925094D0930
ENCODING -1
SWIDTH 593 0
DWIDTH 17 0
BBX 15 19 2 -1
BITMAP
3C1E
6610
4210
C210
C210
0210
0210
0610
FC10
8010
8010
8010
8030
C070
7FD0
0190
0610
0C10
3800
ENDCHAR
STARTCHAR uni0926094D0930
ENCODING -1
SWIDTH 489 0
DWIDTH 14 0
BBX 14 19 0 -1
BITMAP
FFFC
0020
0020
0020
0020
0FE0
1800
3000
2000
2000
2000
2030
2030
3030
1FF0
01B0
0330
0630
0400
ENDCHAR
STARTCHAR uni0927094D0930
ENCODING -1
SWIDTH 560 0
DWIDTH 16 0
BBX 16 19 0 -1
BITMAP
FE7F
1008
3008
2008
2008
2008
3008
0F08
1008
3008
2008
2008
3018
3018
1FE8
00C8
0188
0308
0600
ENDCHAR
STARTCHAR uni0928094D0930
ENCODING -1
SWIDTH 473 0
DWIDTH 13 0
BBX 14 18 0 0
BITMAP
FFFC
0060
0060
0060
0060
0060
0060
3FE0
6060
6060
60E0
61E0
0360
0260
0660
0C60
1860
3060
ENDCHAR
STARTCHAR uni092A094D0930
ENCODING -1
SWIDTH 503 0
DWIDTH 14 0
BBX 15 19 0 -1
BITMAP
FFFE
3030
3030
3030
3030
3030
3030
3030
3030
3030
3030
1870
0FF0
01B0
0330
0630
0C30
1830
1000
ENDCHAR
STARTCHAR uni092B094D0930
ENCODING -1
SWIDTH 741 0
DWIDTH 21 0
BBX 21 18 0 0
BITMAP
FFFFF8
302000
302000
302000
302F80
3038C0
303060
302020
302020
302020
186020
0FA020
01A060
032040
062780
0C2000
082000
302000
ENDCHAR
STARTCHAR uni092C094D0930
ENCODING -1
SWIDTH 491 0
DWIDTH 14 0
BBX 14 19 0 -1
BITMAP
FFFC
0020
0020
0020
0F20
3820
3820
2C20
2620
2320
2120
20A0
2060
3060
1FA0
0120
0220
0420
1C00
ENDCHAR
STARTCHAR uni092D094D0930
ENCODING -1
SWIDTH 491 0
DWIDTH 14 0
BBX 14 18 0 0
BITMAP
C1FC
6020
3020
3020
3020
3020
3020
3020
3FE0
3020
3060
30E0
31A0
0320
0220
0420
0C20
1820
ENDCHAR
STARTCHAR uni092E094D0930
ENCODING -1
SWIDTH 490 0
DWIDTH 14 0
BBX 14 18 0 0
BITMAP
FFFC
3020
3020
3020
3020
3020
3020
3020
3FE0
3020
3060
30E0
31A0
0320
0620
0420
0820
1820
ENDCHAR
STARTCHAR uni092F094D0930
ENCODING -1
SWIDTH 564 0
DWIDTH 16 0
BBX 16 19 0 -1
BITMAP
FFFF
0608
0208
0208
0208
0208
0608
3C08
2008
2008
2008
2008
3018
1818
0FE8
00C8
0188
0308
0C00
ENDCHAR
STARTCHAR uni0935094D0930
ENCODING -1
SWIDTH 484 0
DWIDTH 14 0
BBX 14 19 0 -1
BITMAP
FFFC
0020
0020
0020
0F20
3020
2020
2020
2020
2020
2020
2020
2060
3060
1FA0
0120
0620
0C20
1800
ENDCHAR
STARTCHAR uni0936094D0930
ENCODING -1
SWIDTH 558 0
DWIDTH 16 0
BBX 15 18 1 0
BITMAP
3E1E
6310
4110
4110
4110
6110
2310
3610
0C10
3710
E1B0
80F0
0190
0310
0E10
1810
0010
0010
ENDCHAR
STARTCHAR uni0938094D0930
ENCODING -1
SWIDTH 604 0
DWIDTH 17 0
BBX 17 18 0 0
BITMAP
FFFF80
060400
060400
060400
060400
060400
060400
040400
0C0400
7FFC00
601C00
201400
302400
106400
08C400
0C0400
040400
060400
ENDCHAR
STARTCHAR uni0939094D0930
ENCODING -1
SWIDTH 505 0
DWIDTH 14 0
BBX 15 20 0 -2
BITMAP
FFFE
0020
0020
0020
1FE0
3000
2000
2000
2000
3000
0FF0
1070
20D0
2090
2190
2310
2010
2000
3000
1FE0
ENDCHAR
STARTCHAR uni0915093C094D0930
ENCODING -1
SWIDTH 725 0
DWIDTH 20 0
BBX 21 21 0 -3
BITMAP
FFFFF8
006000
006000
006000
0E6F80
3070C0
206040
206060
206060
206060
206060
206060
206040
30E0C0
1FE780
016000
026000
046000
0C0000
100000
020000
ENDCHAR
STARTCHAR uni0916093C094D0930
ENCODING -1
SWIDTH 698 0
DWIDTH 20 0
BBX 20 21 0 -3
BITMAP
FFFFF0
020080
020080
020080
020080
021C80
023080
026080
064080
7C4080
604080
206180
306180
183E80
080680
0C0C80
061880
021080
013080
006000
000C00
ENDCHAR
STARTCHAR uni0917093C094D0930
ENCODING -1
SWIDTH 494 0
DWIDTH 14 0
BBX 14 20 0 -2
BITMAP
FFFC
0820
0820
0820
0820
0820
0820
0820
0820
1860
7060
00A0
0120
0320
0620
0C20
1820
1020
0000
0200
ENDCHAR
STARTCHAR uni091C093C094D0930
ENCODING -1
SWIDTH 547 0
DWIDTH 15 0
BBX 16 19 0 -1
BITMAP
FFFF
0018
0018
0018
0018
0018
3FF8
0618
0318
0318
0318
0318
0318
0318
0238
7C78
0098
0118
4200
ENDCHAR
STARTCHAR uni0921093C094D0930
ENCODING -1
SWIDTH 475 0
DWIDTH 13 0
BBX 14 22 0 -4
BITMAP
FFFC
0060
0060
0060
0060
1FE0
3000
2000
2000
3000
1FC0
0060
0030
0030
2030
2030
3020
1FC0
0780
CCC0
0840
1060
ENDCHAR
STARTCHAR uni0922093C094D0930
ENCODING -1
SWIDTH 485 0
DWIDTH 14 0
BBX 14 21 0 -3
BITMAP
FFFC
0060
0060
0060
0060
0FE0
1800
3000
2000
20E0
2130
2110
2110
2010
3010
1030
0FE0
C680
04C0
0C60
1830
ENDCHAR
STARTCHAR uni0928093C094D0930
ENCODING -1
SWIDTH 473 0
DWIDTH 13 0
BBX 14 21 0 -3
BITMAP
FFFC
0060
0060
0060
0060
0060
0060
3FE0
2060
6060
60E0
61E0
2160
0360
0660
0C60
1860
1060
2020
0000
0400
ENDCHAR
STARTCHAR uni092B093C094D0930
ENCODING -1
SWIDTH 741 0
DWIDTH 21 0
BBX 21 20 0 -2
BITMAP
FFFFF8
302000
302000
302000
302F80
3038C0
303060
302020
302020
302020
186020
0FA020
01A060
032040
062780
0C2000
082000
302000
000000
020000
ENDCHAR
STARTCHAR uni092F093C094D0930
ENCODING -1
SWIDTH 564 0
DWIDTH 16 0
BBX 16 20 0 -2
BITMAP
FFFF
0608
0208
0208
0208
0208
0608
3C08
2008
2008
2008
2008
3018
1818
0FE8
00C8
0188
0608
0C00
0080
ENDCHAR
STARTCHAR uni0915094D0930094D
ENCODING -1
SWIDTH 518 0
DWIDTH 15 0
BBX 18 19 0 -1
BITMAP
FFFFC0
006000
006000
006000
0E6F80
3070C0
206040
206000
206000
206000
206000
206000
206000
30E000
1FE000
016000
026000
0C6000
180000
ENDCHAR
STARTCHAR uni0916094D0930094D
ENCODING -1
SWIDTH 469 0
DWIDTH 13 0
BBX 17 19 0 -1
BITMAP
FFFF00
020000
020000
020000
020000
021C00
023000
026000
064000
7C4000
604000
206180
106300
183E00
0C0600
040C00
061800
033000
006000
ENDCHAR
STARTCHAR uni0917094D0930094D
ENCODING -1
SWIDTH 264 0
DWIDTH 7 0
BBX 11 18 0 0
BITMAP
FF00
0800
0800
0800
0800
0800
0800
0800
0800
1860
7040
0080
0180
0300
0600
0400
0800
1800
ENDCHAR
STARTCHAR uni0918094D0930094D
ENCODING -1
SWIDTH 319 0
DWIDTH 9 0
BBX 13 19 0 -1
BITMAP
FFF0
1000
3000
2000
2000
2000
3000
0F00
1000
3000
2000
2000
3018
3030
1FE0
00C0
0180
0300
0C00
ENDCHAR
STARTCHAR uni091A094D0930094D
ENCODING -1
SWIDTH 331 0
DWIDTH 9 0
BBX 13 19 0 -1
BITMAP
FFF0
0000
0000
0000
0000
0000
7F80
0C00
1800
1000
1000
1000
1808
1810
0FE0
00C0
0180
0300
0C00
ENDCHAR
STARTCHAR uni091C094D0930094D
ENCODING -1
SWIDTH 312 0
DWIDTH 9 0
BBX 13 19 0 -1
BITMAP
FFF0
0000
0000
0000
0000
0000
3FF0
0600
0300
0300
0300
0300
0318
0310
0220
7C40
0080
0100
0200
ENDCHAR
STARTCHAR uni091D094D0930094D
ENCODING -1
SWIDTH 441 0
DWIDTH 12 0
BBX 16 19 0 -1
BITMAP
FFFE
00C0
00C0
00C0
1FC0
3000
2000
2000
3000
1FFF
00C1
0061
2061
2062
3046
2FCC
2018
2010
2020
ENDCHAR
STARTCHAR uni091E094D0930094D
ENCODING -1
SWIDTH 374 0
DWIDTH 10 0
BBX 14 19 0 -1
BITMAP
FFF8
0000
0000
0000
0000
3E00
0300
0100
0100
01FC
0104
0104
010C
0318
7E10
0020
0060
00C0
0180
ENDCHAR
STARTCHAR uni091F094D0930094D
ENCODING -1
SWIDTH 485 0
DWIDTH 14 0
BBX 14 26 0 -8
BITMAP
FFFC
0060
0060
0060
0060
0FE0
1800
3000
2000
2000
2000
2010
2010
2010
3010
1030
1FE0
0780
04C0
0C60
1830
0100
0180
0080
00C0
0060
ENDCHAR
STARTCHAR uni0920094D0930094D
ENCODING -1
SWIDTH 512 0
DWIDTH 14 0
BBX 15 26 0 -8
BITMAP
FFFE
0020
0020
0020
0060
0FC0
1860
3030
2010
2010
2010
2010
2010
2010
3010
3030
1FE0
0380
04C0
0C60
1830
0100
0180
0080
0040
0060
ENDCHAR
STARTCHAR uni0921094D0930094D
ENCODING -1
SWIDTH 475 0
DWIDTH 13 0
BBX 14 27 0 -9
BITMAP
FFFC
0060
0060
0060
0060
1FE0
3000
2000
2000
3000
1FC0
0060
0020
0030
2030
2030
3020
1FE0
0780
0C80
0840
1060
0300
0100
0180
00C0
0040
ENDCHAR
STARTCHAR uni0922094D0930094D
ENCODING -1
SWIDTH 485 0
DWIDTH 14 0
BBX 14 26 0 -8
BITMAP
FFFC
0060
0060
0060
0060
0FE0
1800
3000
2000
20E0
2130
2110
2110
2010
3010
1030
1FE0
0380
06C0
0C60
1830
0100
0180
0080
0040
0060
ENDCHAR
STARTCHAR uni0923094D0930094D
ENCODING -1
SWIDTH 457 0
DWIDTH 13 0
BBX 16 18 0 0
BITMAP
FFF8
3040
3040
3040
3040
3040
3040
3040
3040
3041
3043
10C2
0F84
0008
0018
0030
0060
00C0
ENDCHAR
STARTCHAR uni0924094D0930094D
ENCODING -1
SWIDTH 268 0
DWIDTH 8 0
BBX 12 18 0 0
BITMAP
FFF0
0000
0000
0000
0000
0000
1F80
3040
2020
2020
2020
2020
0060
0180
0300
0600
0C00
3000
ENDCHAR
STARTCHAR uni0925094D0930094D
ENCODING -1
SWIDTH 358 0
DWIDTH 10 0
BBX 11 19 2 -1
BITMAP
3C00
6600
4200
C200
C200
0200
0200
0600
FC00
8000
8000
8000
8020
C060
7FC0
0180
0600
0C00
3800
ENDCHAR
STARTCHAR uni0926094D0930094D
ENCODING -1
SWIDTH 489 0
DWIDTH 14 0
BBX 14 24 0 -6
BITMAP
FFFC
0020
0020
0020
0020
0FE0
1800
3000
2000
2000
2000
2030
2030
3030
1FF0
01B0
0330
0230
0400
0080
00C0
0060
0020
0030
ENDCHAR
STARTCHAR uni0927094D0930094D
ENCODING -1
SWIDTH 322 0
DWIDTH 9 0
BBX 13 19 0 -1
BITMAP
FC70
1000
3000
2000
2000
2000
3000
0F00
1000
3000
2000
2000
3018
3030
1FE0
00C0
0180
0300
0600
ENDCHAR
STARTCHAR uni0928094D0930094D
ENCODING -1
SWIDTH 247 0
DWIDTH 7 0
BBX 11 18 0 0
BITMAP
FFE0
0000
0000
0000
0000
0000
0000
3FE0
6060
6060
6040
6080
0100
0300
0600
0C00
1800
3000
ENDCHAR
STARTCHAR uni092A094D0930094D
ENCODING -1
SWIDTH 270 0
DWIDTH 8 0
BBX 11 19 0 -1
BITMAP
FF80
3000
3000
3000
3000
3000
3000
3000
3000
3000
3020
1860
0FC0
0180
0300
0600
0C00
1800
1000
ENDCHAR
STARTCHAR uni092B094D0930094D
ENCODING -1
SWIDTH 523 0
DWIDTH 15 0
BBX 19 18 -1 0
BITMAP
FFFFE0
101000
101000
101000
1017C0
101860
101020
101000
101000
103000
183000
0FD000
009000
011000
031000
061000
0C1000
181000
ENDCHAR
STARTCHAR uni092C094D0930094D
ENCODING -1
SWIDTH 267 0
DWIDTH 7 0
BBX 11 19 0 -1
BITMAP
FFE0
0000
0000
0000
0F00
3800
3800
2C00
2600
2300
2100
20A0
2060
3040
1FC0
0180
0300
0600
1C00
ENDCHAR
STARTCHAR uni092D094D0930094D
ENCODING -1
SWIDTH 257 0
DWIDTH 7 0
BBX 11 18 0 0
BITMAP
C1E0
6000
3000
3000
3000
3000
3000
3000
3FE0
3060
3040
3080
3180
0300
0600
0400
0800
1800
ENDCHAR
STARTCHAR uni092E094D0930094D
ENCODING -1
SWIDTH 261 0
DWIDTH 7 0
BBX 11 18 0 0
BITMAP
FFE0
3000
3000
3000
3000
3000
3000
3000
3FE0
3060
3040
3080
2180
0300
0600
0400
0800
1800
ENDCHAR
STARTCHAR uni092F094D0930094D
ENCODING -1
SWIDTH 323 0
DWIDTH 9 0
BBX 13 19 0 -1
BITMAP
FFE0
0600
0200
0200
0200
0200
0600
3C00
2000
2000
2000
2000
3008
1830
0FE0
00C0
0180
0300
0C00
ENDCHAR
STARTCHAR uni0935094D0930094D
ENCODING -1
SWIDTH 255 0
DWIDTH 7 0
BBX 11 19 0 -1
BITMAP
FF80
0000
0000
0000
0F00
3000
2000
2000
2000
2000
2000
2000
2060
30C0
1F80
0100
0600
0C00
1800
ENDCHAR
STARTCHAR uni0938094D0930094D
ENCODING -1
SWIDTH 347 0
DWIDTH 10 0
BBX 13 18 0 0
BITMAP
FFF0
0600
0600
0600
0600
0600
0600
0400
0C00
7FF8
6018
2030
3020
1040
08C0
0D80
0400
0600
ENDCHAR
STARTCHAR uni0915093C094D0930094D
ENCODING -1
SWIDTH 518 0
DWIDTH 15 0
BBX 18 21 0 -3
BITMAP
FFFFC0
006000
006000
006000
0E6F80
3070C0
206040
206000
206000
206000
206000
206000
206000
30E000
1FE000
016000
026000
066000
0C2000
180000
020000
ENDCHAR
STARTCHAR uni0916093C094D0930094D
ENCODING -1
SWIDTH 466 0
DWIDTH 13 0
BBX 17 20 0 -2
BITMAP
FFFF00
020000
020000
020000
020000
021C00
023000
026000
064000
7C4000
604000
206180
106300
183E00
0C0400
040C00
061800
033000
006000
000C00
ENDCHAR
STARTCHAR uni0917093C094D0930094D
ENCODING -1
SWIDTH 264 0
DWIDTH 7 0
BBX 11 20 0 -2
BITMAP
FF00
0800
0800
0800
0800
0800
0800
0800
0800
1860
7040
0080
0100
0300
0600
0C00
1800
1000
0000
0300
ENDCHAR
STARTCHAR uni091C093C094D0930094D
ENCODING -1
SWIDTH 320 0
DWIDTH 9 0
BBX 13 20 0 -2
BITMAP
FFF0
0000
0000
0000
0000
0000
3FF0
0600
0300
0300
0300
0300
0310
0318
0220
7C40
0080
0100
0300
4000
ENDCHAR
STARTCHAR uni0928093C094D0930094D
ENCODING -1
SWIDTH 247 0
DWIDTH 7 0
BBX 11 20 0 -2
BITMAP
FFE0
0000
0000
0000
0000
0000
0000
3FE0
6060
6060
6040
6080
0100
0300
0600
0C00
1800
3000
0000
0600
ENDCHAR
STARTCHAR uni092B093C094D0930094D
ENCODING -1
SWIDTH 523 0
DWIDTH 15 0
BBX 19 20 -1 -2
BITMAP
FFFFE0
101000
101000
101000
1017C0
101860
101020
101000
101000
103000
183000
0FD000
009000
011000
031000
061000
0C1000
181000
000000
030000
ENDCHAR
STARTCHAR uni092F093C094D0930094D
ENCODING -1
SWIDTH 323 0
DWIDTH 9 0
BBX 13 20 0 -2
BITMAP
FFE0
0600
0200
0200
0200
0200
0600
3C00
2000
2000
2000
2000
3008
1830
0FE0
00C0
0100
0600
0C00
0080
ENDCHAR
STARTCHAR uni0915094D0915
ENCODING -1
SWIDTH 1255 0
DWIDTH 35 0
BBX 36 18 0 0
BITMAP
FFFFFFFFF0
006000C000
006000C000
006000C000
0E6FBCDF00
3070E0E180
206040C080
206040C080
206040C080
206040C080
206040C080
206040C080
206040C080
30E061C180
1FE03FCF00
006000C000
006000C000
006000C000
ENDCHAR
STARTCHAR uni0915094D0916
ENCODING -1
SWIDTH 1256 0
DWIDTH 35 0
BBX 36 18 0 0
BITMAP
FFFFFFFFF0
0060060180
0060060180
0060060180
0E6F060180
3071863980
2060C66180
2060464180
2060444180
20607C4180
2060404180
2060204180
2060306380
30E0103F80
1FE0080180
00600C0180
0060040180
0060020180
ENDCHAR
STARTCHAR uni0915094D091A
ENCODING -1
SWIDTH 1086 0
DWIDTH 30 0
BBX 31 18 0 0
BITMAP
FFFFFFFE
00600030
00600030
00600030
0E6F0030
30730030
2060FF30
20601030
20602030
20602030
20602030
20602030
20602030
30E03070
1FE01FF0
00600030
00600030
00600030
ENDCHAR
STARTCHAR uni0915094D091C
ENCODING -1
SWIDTH 1071 0
DWIDTH 30 0
BBX 30 18 0 0
BITMAP
FFFFFFFC
00600020
00600020
00600020
0E600020
306F7FE0
20700C20
20600420
20600420
20600420
20600420
20600420
20600420
30E00420
1FE00C20
0060F820
00600020
00600020
ENDCHAR
STARTCHAR uni0915094D091F
ENCODING -1
SWIDTH 984 0
DWIDTH 28 0
BBX 28 18 0 0
BITMAP
FFFFFFF0
00600180
00600180
00600180
0E6F8180
3070FF80
20606000
2060C000
20608000
20608000
20608000
20608040
20608040
30E08040
1FE08040
00604080
00607F80
00600000
ENDCHAR
STARTCHAR uni0915094D0923
ENCODING -1
SWIDTH 1183 0
DWIDTH 33 0
BBX 34 18 0 0
BITMAP
FFFFFFFFC0
0060C10600
0060C10600
0060C10600
0E60C10600
306FC10600
2070C10600
2060C10600
2060C10600
2060C10600
2060410600
2060630600
20603E0600
30E0000600
1FE0000600
0060000600
0060000600
0060000600
ENDCHAR
STARTCHAR uni0915094D0924
ENCODING -1
SWIDTH 761 0
DWIDTH 21 0
BBX 22 18 0 0
BITMAP
FFFFFC
001000
001000
001000
001000
001000
3FF7C0
0C1860
181020
181030
101030
101030
101030
181020
081060
0F13C0
001000
001000
ENDCHAR
STARTCHAR uni0915094D0925
ENCODING -1
SWIDTH 1118 0
DWIDTH 31 0
BBX 32 18 0 0
BITMAP
FFFE3C1F
00606218
00606318
00604118
0E600118
30600318
20600218
206FFE18
2070C018
2060C018
2060C018
2060C018
20604018
30E06038
1FE03FF8
00600018
00600018
00600018
ENDCHAR
STARTCHAR uni0915094D0926
ENCODING -1
SWIDTH 1009 0
DWIDTH 28 0
BBX 29 18 0 0
BITMAP
FFFFFFF8
006000C0
006000C0
006000C0
0E6F80C0
3071FFC0
20606000
20604000
2060C000
2060C000
2060C000
2060C040
20604040
30E060C0
1FE03FC0
00600040
00600040
00600040
ENDCHAR
STARTCHAR uni0915094D092A
ENCODING -1
SWIDTH 1007 0
DWIDTH 28 0
BBX 29 18 0 0
BITMAP
FFFFFFF8
0060C0C0
0060C0C0
0060C0C0
0E60C0C0
306FC0C0
2070C0C0
2060C0C0
2060C0C0
2060C0C0
206040C0
206061C0
20603FC0
30E000C0
1FE000C0
006000C0
006000C0
006000C0
ENDCHAR
STARTCHAR uni0915094D092B
ENCODING -1
SWIDTH 1242 0
DWIDTH 35 0
BBX 35 18 0 0
BITMAP
FFFFFFFFE0
0060C08000
0060C08000
0060C08000
0E60C0BE00
306FC0E300
2070C0C180
2060C08080
2060C08080
2060C08080
2060618080
20603E8080
2060008180
30E0008100
1FE0009F00
0060008000
0060008000
0060008000
ENDCHAR
STARTCHAR uni0915094D092E
ENCODING -1
SWIDTH 994 0
DWIDTH 28 0
BBX 28 18 0 0
BITMAP
FFFFFFF0
0060C080
0060C080
0060C080
0E60C080
306FC080
2070C080
2060C080
2060FF80
2060C080
2060C080
2060C080
2060C080
30E00080
1FE00080
00600080
00600080
00600080
ENDCHAR
STARTCHAR uni0915094D092F
ENCODING -1
SWIDTH 1076 0
DWIDTH 30 0
BBX 31 18 0 0
BITMAP
FFFFFFFE
00601830
00600C30
00600C30
0E600C30
30600830
206FF830
2070C030
2060C030
2060C030
2060C030
2060C030
20604030
30E06070
1FE03FB0
00600030
00600030
00600030
ENDCHAR
STARTCHAR uni0915094D0932
ENCODING -1
SWIDTH 1178 0
DWIDTH 33 0
BBX 33 18 0 0
BITMAP
FFFFFFFF80
0060000400
0060000400
0060000400
0E6F800400
3070FCF400
2060678C00
2060C30400
2060810400
2060810400
2060810400
2060810400
2060800400
30E0800400
1FE0C00400
0060400400
00603C0400
0060000400
ENDCHAR
STARTCHAR uni0915094D0935
ENCODING -1
SWIDTH 1013 0
DWIDTH 28 0
BBX 29 18 0 0
BITMAP
FFFFFFF8
006000C0
006000C0
006000C0
0E6FBCC0
3070E0C0
206040C0
206040C0
206040C0
206040C0
206040C0
206040C0
206040C0
30E061C0
1FE03FC0
006000C0
006000C0
006000C0
ENDCHAR
STARTCHAR uni0915094D0936
ENCODING -1
SWIDTH 1194 0
DWIDTH 33 0
BBX 34 18 0 0
BITMAP
FFFF0F03C0
0060198200
006030C200
006030C200
0E6030C200
306F80C200
2070C0C200
2060408200
2060418200
20607F0200
2060600200
2060300200
2060100200
30E0180200
1FE00C0200
0060040200
0060060200
0060030200
ENDCHAR
STARTCHAR uni0915094D0938
ENCODING -1
SWIDTH 1143 0
DWIDTH 32 0
BBX 32 18 0 0
BITMAP
FFFFFFFF
00600608
00600408
00600408
0E6F0408
30718408
2060C408
20604408
20604C08
20607FF8
20606008
20602008
20603008
30E01008
1FE01808
00600C08
00600408
00600608
ENDCHAR
STARTCHAR uni0916094D0916
ENCODING -1
SWIDTH 1223 0
DWIDTH 34 0
BBX 35 18 0 0
BITMAP
FFFFFFFFE0
0200040300
0200040300
0200040300
0200040300
021C047300
022004C300
02600C8300
0640088300
7C40F88300
6040C08300
2040C08300
1061E0C700
183F307F00
0800100300
0400180300
06000C0300
0300040300
ENDCHAR
STARTCHAR uni0916094D0924
ENCODING -1
SWIDTH 984 0
DWIDTH 28 0
BBX 28 18 0 0
BITMAP
FFFFFFF0
02000080
02000080
02000080
02000080
021C0080
02207F80
0260C080
06408080
7C408080
60408080
20408080
10608080
183F8080
08008080
04008080
0600C080
03007080
ENDCHAR
STARTCHAR uni0916094D092E
ENCODING -1
SWIDTH 965 0
DWIDTH 27 0
BBX 27 18 0 0
BITMAP
FFFFFFE0
02018100
02008100
02008100
02008100
021C8100
02208100
02608100
0640FF00
7C408100
60408100
20618100
10610100
183F0100
08000100
04000100
06000100
03000100
ENDCHAR
STARTCHAR uni0916094D092F
ENCODING -1
SWIDTH 1047 0
DWIDTH 29 0
BBX 30 18 0 0
BITMAP
FFFFFFFC
02001060
02001860
02000860
02000860
021C1860
02201860
0261F060
06418060
7C418060
60418060
20408060
10618060
183EC0E0
08007FE0
04000060
06000060
03000060
ENDCHAR
STARTCHAR uni0916094D0935
ENCODING -1
SWIDTH 975 0
DWIDTH 27 0
BBX 28 18 0 0
BITMAP
FFFFFFF0
02000180
02000180
02000180
02007980
021CC180
02608180
02608180
06408180
7C408180
60408180
20408180
10618180
183EC380
08007F80
04000180
06000180
03000180
ENDCHAR
STARTCHAR uni0916094D0936
ENCODING -1
SWIDTH 1123 0
DWIDTH 31 0
BBX 32 18 0 0
BITMAP
FFFC3C0F
02006608
0200C308
0200C308
0200C308
021C4308
02200308
02600208
06400608
7C43FC08
60410008
20418008
1061C008
183E4008
08006008
04003008
06001008
03001808
ENDCHAR
STARTCHAR uni0917094D0917
ENCODING -1
SWIDTH 744 0
DWIDTH 21 0
BBX 21 18 0 0
BITMAP
FFFFF8
081040
081040
081040
081040
081040
081040
081040
081040
183040
70E040
000040
000040
000040
000040
000040
000040
000040
ENDCHAR
STARTCHAR uni0917094D0918
ENCODING -1
SWIDTH 823 0
DWIDTH 23 0
BBX 23 18 0 0
BITMAP
FFFFFE
083018
082018
086018
086018
086018
083018
081E18
083018
186018
706018
006018
006018
003038
001FF8
000018
000018
000018
ENDCHAR
STARTCHAR uni0917094D091C
ENCODING -1
SWIDTH 801 0
DWIDTH 22 0
BBX 23 18 0 0
BITMAP
FFFFFE
080010
080010
080010
080010
080010
087FF0
080C10
080610
180210
700210
000210
000210
000610
000410
00FC10
000010
000010
ENDCHAR
STARTCHAR uni0917094D0923
ENCODING -1
SWIDTH 945 0
DWIDTH 26 0
BBX 27 18 0 0
BITMAP
FFFFFFE0
0820C100
0820C100
0820C100
0820C100
0820C100
0820C100
0820C100
0820C100
1820C100
7020C100
00308100
001F0100
00000100
00000100
00000100
00000100
00000100
ENDCHAR
STARTCHAR uni0917094D0926
ENCODING -1
SWIDTH 748 0
DWIDTH 21 0
BBX 21 18 0 0
BITMAP
FFFFF8
080040
080040
080040
080040
081FC0
083000
086000
086000
186000
706000
006020
006020
002060
001FA0
000020
000020
000020
ENDCHAR
STARTCHAR uni0917094D0927
ENCODING -1
SWIDTH 823 0
DWIDTH 23 0
BBX 23 18 0 0
BITMAP
FFFCFE
083018
082018
086018
086018
082018
083018
081E18
083018
182018
706018
006018
006018
002018
003038
001FD8
000018
000018
ENDCHAR
STARTCHAR uni0917094D092C
ENCODING -1
SWIDTH 755 0
DWIDTH 21 0
BBX 22 18 0 0
BITMAP
FFFFFC
080060
080060
080060
081E60
083060
087060
086860
086460
186260
706160
0060E0
006060
0030E0
001FE0
000060
000060
000060
ENDCHAR
STARTCHAR uni0917094D092D
ENCODING -1
SWIDTH 755 0
DWIDTH 21 0
BBX 22 18 0 0
BITMAP
FFC3FC
086060
086060
082060
082060
082060
082060
082060
083FE0
182060
702060
002060
002060
000060
000060
000060
000060
000060
ENDCHAR
STARTCHAR uni0917094D092E
ENCODING -1
SWIDTH 754 0
DWIDTH 21 0
BBX 22 18 0 0
BITMAP
FFFFFC
082060
082060
082060
082060
082060
082060
082060
083FE0
182060
702060
002060
002060
000060
000060
000060
000060
000060
ENDCHAR
STARTCHAR uni0917094D092F
ENCODING -1
SWIDTH 828 0
DWIDTH 23 0
BBX 24 18 0 0
BITMAP
FFFFFF
080C18
080618
080618
080618
080618
080418
087C18
086018
186018
706018
006018
002018
003038
001FD8
000018
000018
000018
ENDCHAR
STARTCHAR uni0917094D0932
ENCODING -1
SWIDTH 924 0
DWIDTH 26 0
BBX 26 18 0 0
BITMAP
FFFFFFC0
08000200
08000200
08000200
08000200
081E7A00
0833C600
08618200
08418200
18418200
70418200
00418200
00400200
00400200
00400200
00600200
003E0200
00000200
ENDCHAR
STARTCHAR uni0917094D0935
ENCODING -1
SWIDTH 747 0
DWIDTH 21 0
BBX 21 18 0 0
BITMAP
FFFFF8
080040
080040
080040
081E40
083040
086040
086040
086040
186040
706040
006040
006040
0030C0
001FC0
000040
000040
000040
ENDCHAR
STARTCHAR uni0917094D0938
ENCODING -1
SWIDTH 839 0
DWIDTH 23 0
BBX 24 18 0 0
BITMAP
FFFFFF
080408
080408
080408
080408
080408
080408
080C08
080808
18FFF8
704008
006008
002008
003008
001808
000808
000C08
000408
ENDCHAR
STARTCHAR uni0918094D092E
ENCODING -1
SWIDTH 818 0
DWIDTH 23 0
BBX 23 18 0 0
BITMAP
FFFFFE
101810
301810
201810
201810
201810
301810
0F1810
101FF0
301810
201810
201810
201810
303010
1FE010
000010
000010
000010
ENDCHAR
STARTCHAR uni0918094D092F
ENCODING -1
SWIDTH 867 0
DWIDTH 24 0
BBX 25 18 0 0
BITMAP
FFFFFF80
10060C00
30030C00
20010C00
20010C00
20030C00
30030C00
1F3E0C00
10300C00
30300C00
20300C00
20300C00
20100C00
30181C00
1FE7FC00
00000C00
00000C00
00000C00
ENDCHAR
STARTCHAR uni091A094D091A
ENCODING -1
SWIDTH 868 0
DWIDTH 24 0
BBX 25 18 0 0
BITMAP
FFFFFF80
00000C00
00000C00
00000C00
00000C00
00000C00
7F3FCC00
0C0C0C00
18080C00
10180C00
10180C00
10180C00
18080C00
081C1C00
0FE7FC00
00000C00
00000C00
00000C00
ENDCHAR
STARTCHAR uni091A094D091B
ENCODING -1
SWIDTH 922 0
DWIDTH 26 0
BBX 26 17 0 1
BITMAP
FFFFFFC0
000C0200
00080200
00080200
00080200
00080200
7F881E00
0C0C0600
18078300
100C0300
10080300
10080300
18080300
08180300
0FF80300
000C0600
0007FC00
ENDCHAR
STARTCHAR uni091A094D092E
ENCODING -1
SWIDTH 830 0
DWIDTH 23 0
BBX 24 18 0 0
BITMAP
FFFFFF
000818
000818
000818
000818
7F8818
0C0818
180818
100FF8
100818
100818
180818
081818
0FF018
000018
000018
000018
000018
ENDCHAR
STARTCHAR uni091A094D092F
ENCODING -1
SWIDTH 904 0
DWIDTH 25 0
BBX 26 18 0 0
BITMAP
FFFFFFC0
00030600
00018600
00008600
00008600
00018600
7F818600
0C1F0600
18180600
10180600
10180600
10180600
18080600
081C0E00
0FE7FE00
00000600
00000600
00000600
ENDCHAR
STARTCHAR uni091B094D092F
ENCODING -1
SWIDTH 1068 0
DWIDTH 30 0
BBX 30 18 0 0
BITMAP
FFFFFFFC
18000020
30000020
30000020
307FF820
300C0C20
30040420
10040420
0E040420
18040C20
30047820
30044020
30044020
30046060
30043FA0
100C0020
1FF80020
00000020
ENDCHAR
STARTCHAR uni091B094D0935
ENCODING -1
SWIDTH 581 0
DWIDTH 16 0
BBX 17 21 0 -3
BITMAP
FFFF80
180800
300800
300800
300800
307800
100C00
0E0400
180400
300400
300400
300400
300400
100C00
1FF800
180800
100800
100800
100800
181800
0FF000
ENDCHAR
STARTCHAR uni091C094D0915
ENCODING -1
SWIDTH 1054 0
DWIDTH 30 0
BBX 30 18 0 0
BITMAP
FFFFFFFC
00001000
00001000
00001000
000797C0
000C1860
3FF81030
06101030
03101030
03101030
03101030
03101030
03183030
03183060
020FD3C0
7C001000
00001000
00001000
ENDCHAR
STARTCHAR uni091C094D091C
ENCODING -1
SWIDTH 903 0
DWIDTH 25 0
BBX 26 18 0 0
BITMAP
FFFFFFC0
00000600
00000600
00000600
00000600
00000600
3FE7FE00
06018600
0300C600
0300C600
0300C600
0300C600
0300C600
0300C600
02008600
7C3F0600
00000600
00000600
ENDCHAR
STARTCHAR uni091C094D091D
ENCODING -1
SWIDTH 990 0
DWIDTH 28 0
BBX 28 19 0 -1
BITMAP
FFFFFFF0
00002080
00002080
00002080
000FE080
000C0080
3FF80080
06180080
03180080
03180080
030FFF80
03006080
03003080
03103080
02103080
7C183080
0017E080
00100080
00100000
ENDCHAR
STARTCHAR uni091C094D091F
ENCODING -1
SWIDTH 815 0
DWIDTH 23 0
BBX 23 17 0 1
BITMAP
FFFFFE
000010
000010
000010
000010
0007F0
3FFC00
061800
021800
031000
031000
031008
031008
031008
061808
7C0C18
0007F0
ENDCHAR
STARTCHAR uni091C094D0921
ENCODING -1
SWIDTH 797 0
DWIDTH 22 0
BBX 23 18 0 0
BITMAP
FFFFFE
000030
000030
000030
000030
000FF0
3FF800
061000
021000
031800
030FE0
030030
030010
030018
061018
7C1018
001810
000FE0
ENDCHAR
STARTCHAR uni091C094D0924
ENCODING -1
SWIDTH 830 0
DWIDTH 23 0
BBX 24 18 0 0
BITMAP
FFFFFF
000018
000018
000018
000018
000018
3FF7F8
061C18
021818
031818
031818
031818
031818
031818
061818
7C1818
000818
000718
ENDCHAR
STARTCHAR uni091C094D0926
ENCODING -1
SWIDTH 817 0
DWIDTH 23 0
BBX 23 18 0 0
BITMAP
FFFFFE
000010
000010
000010
000010
0007F0
3FFC00
061800
031800
031000
031000
031018
031818
030818
0207F8
7C0018
000018
000018
ENDCHAR
STARTCHAR uni091C094D092C
ENCODING -1
SWIDTH 820 0
DWIDTH 23 0
BBX 23 18 0 0
BITMAP
FFFFFE
000010
000010
000010
000790
000C10
3FFC10
061610
031310
031190
0310D0
031070
031830
030830
020FD0
7C0010
000010
000010
ENDCHAR
STARTCHAR uni091C094D092E
ENCODING -1
SWIDTH 813 0
DWIDTH 23 0
BBX 23 18 0 0
BITMAP
FFFFFE
001810
001810
001810
001810
001810
3FF810
061810
031FF0
031810
031810
031810
031810
030010
020010
7C0010
000010
000010
ENDCHAR
STARTCHAR uni091C094D092F
ENCODING -1
SWIDTH 893 0
DWIDTH 25 0
BBX 25 18 0 0
BITMAP
FFFFFF80
00030400
00010400
00018400
00018400
3FF18400
06110400
021F0400
03100400
03100400
03100400
03180400
03080400
020C0C00
0607F400
7C000400
00000400
00000400
ENDCHAR
STARTCHAR uni091C094D0935
ENCODING -1
SWIDTH 813 0
DWIDTH 23 0
BBX 23 18 0 0
BITMAP
FFFFFE
000010
000010
000010
000790
000C10
3FF810
061010
031010
031010
031010
031010
031810
030830
020FD0
7C0010
000010
000010
ENDCHAR
STARTCHAR uni091D094D092E
ENCODING -1
SWIDTH 936 0
DWIDTH 26 0
BBX 27 19 0 -1
BITMAP
FFFFFFE0
00C10300
00C10300
00C10300
1FC10300
30010300
20010300
20010300
3001FF00
1FFF0300
00C10300
00610300
20610300
20600300
30400300
2FC00300
20000300
20000300
20000000
ENDCHAR
STARTCHAR uni091D094D092F
ENCODING -1
SWIDTH 1000 0
DWIDTH 28 0
BBX 28 19 0 -1
BITMAP
FFFFFFF0
00C06080
00C02080
00C03080
1FC03080
30003080
20002080
2003E080
30020080
1FFE0080
00C20080
00630080
20610080
20618180
3040FE80
2FC00080
20000080
20000080
20000000
ENDCHAR
STARTCHAR uni091E094D091B
ENCODING -1
SWIDTH 913 0
DWIDTH 26 0
BBX 26 17 0 1
BITMAP
FFFFFFC0
000C0600
00080600
00180600
3C180600
02180600
01181C00
010C0600
01078200
01FC0300
01080300
01180300
03180300
7E180300
00080200
000C0600
0007FC00
ENDCHAR
STARTCHAR uni091E094D091C
ENCODING -1
SWIDTH 932 0
DWIDTH 26 0
BBX 26 18 0 0
BITMAP
FFFFFFC0
00000300
00000300
00000300
00000300
00000300
3E07FF00
0300C300
01004300
01006300
01F06300
01006300
01006300
03004300
7E00C300
000F8300
00000300
00000300
ENDCHAR
STARTCHAR uni091E094D0936
ENCODING -1
SWIDTH 975 0
DWIDTH 27 0
BBX 28 18 0 0
BITMAP
FFC3C1F0
00066180
000C2180
000C2180
3E0C2180
03002180
01002180
01002180
01006180
01FFC180
01080180
010C0180
01040180
03020180
7E030180
00010180
00008180
0000C180
ENDCHAR
STARTCHAR uni091F094D091F
ENCODING -1
SWIDTH 494 0
DWIDTH 14 0
BBX 14 26 0 -8
BITMAP
FFFC
0060
0060
0060
0FE0
1800
3000
2000
2000
2010
2010
2010
3030
1FE0
0060
0060
0FE0
1800
3000
2000
2000
2010
2010
2010
3030
1FE0
ENDCHAR
STARTCHAR uni091F094D0920
ENCODING -1
SWIDTH 495 0
DWIDTH 14 0
BBX 14 26 0 -8
BITMAP
FFFC
0060
0060
0060
0FE0
1800
3000
2000
2000
2010
2010
2010
3030
1FE0
0020
0060
0FC0
1860
3030
2010
2010
2010
2010
2010
3030
1FE0
ENDCHAR
STARTCHAR uni091F094D092F
ENCODING -1
SWIDTH 990 0
DWIDTH 28 0
BBX 28 18 0 0
BITMAP
FFFFFFF0
00600080
00600080
00600080
00600080
0FFFE080
18003080
30001080
20001080
20001080
20003080
2001E080
20110080
20110180
30118180
1030FE80
1FE00080
00000080
ENDCHAR
STARTCHAR uni091F094D0935
ENCODING -1
SWIDTH 501 0
DWIDTH 14 0
BBX 14 21 0 -3
BITMAP
FFFC
0060
0060
0060
0060
0FE0
1800
3000
2000
2000
2010
2010
2010
3030
1FF0
1810
3010
3010
3030
1020
1FC0
ENDCHAR
STARTCHAR uni0920094D092F
ENCODING -1
SWIDTH 998 0
DWIDTH 28 0
BBX 28 18 0 0
BITMAP
FFFFFFF0
00200080
00200080
00200080
00600080
0FC7E080
18683080
30301080
20101080
20101080
20103080
2011E080
20110080
20110080
30118180
3030FE80
1FE00080
00000080
ENDCHAR
STARTCHAR uni0921094D0921
ENCODING -1
SWIDTH 493 0
DWIDTH 14 0
BBX 14 26 0 -8
BITMAP
FFFC
0020
0020
0020
1FE0
3000
3000
2000
3000
1FC0
0060
0030
2030
2030
3020
1FE0
3000
3000
2000
3000
1FE0
0060
0030
2030
3030
1FE0
ENDCHAR
STARTCHAR uni0921094D0922
ENCODING -1
SWIDTH 493 0
DWIDTH 14 0
BBX 14 25 0 -7
BITMAP
FFFC
0020
0020
0020
1FE0
3000
3000
2000
3000
1FC0
0060
0030
2030
2030
3020
1FE0
1800
3000
20E0
21B0
2110
2110
3010
1830
0FE0
ENDCHAR
STARTCHAR uni0921094D092F
ENCODING -1
SWIDTH 973 0
DWIDTH 27 0
BBX 28 18 0 0
BITMAP
FFFFFFF0
00600180
00600180
00600180
00600180
1FFFE180
30006180
20003180
20003180
30002180
1FC3E180
00630180
00330180
00330180
20318380
2030FD80
30200180
1FE00180
ENDCHAR
STARTCHAR uni0921094D0935
ENCODING -1
SWIDTH 493 0
DWIDTH 14 0
BBX 14 22 0 -4
BITMAP
FFFC
0020
0020
0020
1FE0
3000
3000
2000
3000
1FC0
0060
0030
2030
2030
3030
1FF0
1830
3030
3030
3030
1060
0FC0
ENDCHAR
STARTCHAR uni0922094D092F
ENCODING -1
SWIDTH 981 0
DWIDTH 27 0
BBX 28 18 0 0
BITMAP
FFFFFFF0
00600080
00600080
00600080
00600080
0FFFE080
18002080
30003080
20001080
20E03080
21303080
2113E080
21130180
21110180
30118380
1030FE80
1FE00080
00000080
ENDCHAR
STARTCHAR uni0923094D091F
ENCODING -1
SWIDTH 908 0
DWIDTH 25 0
BBX 26 17 0 1
BITMAP
FFFFFFC0
30400400
30400400
30400400
30400400
3040FC00
30430000
30420000
30420000
30420000
30420000
10C20000
0F820100
00020100
00020300
00030200
0001FE00
ENDCHAR
STARTCHAR uni0923094D0920
ENCODING -1
SWIDTH 936 0
DWIDTH 26 0
BBX 27 17 0 1
BITMAP
FFFFFFE0
30400600
30400600
30400600
30400600
3040FC00
30430600
30420300
30420100
30420100
30420100
10C20100
0F820100
00020100
00020300
00030200
0001FE00
ENDCHAR
STARTCHAR uni0923094D0921
ENCODING -1
SWIDTH 892 0
DWIDTH 25 0
BBX 25 18 0 0
BITMAP
FFFFFF80
30400400
30400400
30400400
30400400
3041FC00
30430000
30420000
30420000
30430000
3041FC00
10C00600
0F800200
00000200
00020200
00020200
00020600
0001FC00
ENDCHAR
STARTCHAR uni0923094D0922
ENCODING -1
SWIDTH 908 0
DWIDTH 25 0
BBX 26 17 0 1
BITMAP
FFFFFFC0
30400600
30400600
30400600
30400600
3040FE00
30410000
30420000
30420000
30421E00
30421300
10C21100
0F821100
00021100
00020100
00030300
0001FE00
ENDCHAR
STARTCHAR uni0923094D0923
ENCODING -1
SWIDTH 1127 0
DWIDTH 32 0
BBX 32 18 0 0
BITMAP
FFFFFFFF
30410208
30410208
30410208
30410208
30410208
30410208
30410208
30410208
30410208
30410608
10C18408
0F80F808
00000008
00000008
00000008
00000008
00000008
ENDCHAR
STARTCHAR uni0923094D092E
ENCODING -1
SWIDTH 932 0
DWIDTH 26 0
BBX 26 18 0 0
BITMAP
FFFFFFC0
30410300
30410300
30410300
30410300
30410300
30410300
30410300
3041FF00
30410300
30410300
10C10300
0F810300
00000300
00000300
00000300
00000300
00000300
ENDCHAR
STARTCHAR uni0923094D092F
ENCODING -1
SWIDTH 998 0
DWIDTH 28 0
BBX 28 18 0 0
BITMAP
FFFFFFF0
30406080
30402080
30403080
30403080
30402080
30406080
3043C080
30420080
30420080
30420080
10C20080
0F830080
00018180
0000FE80
00000080
00000080
00000080
ENDCHAR
STARTCHAR uni0923094D0935
ENCODING -1
SWIDTH 923 0
DWIDTH 26 0
BBX 26 18 0 0
BITMAP
FFFFFFC0
30400200
30400200
30400200
3040F200
30418200
30430200
30420200
30420200
30420200
30420200
10C20200
0F830200
00010600
0000FA00
00000200
00000200
00000200
ENDCHAR
STARTCHAR uni0924094D0915
ENCODING -1
SWIDTH 992 0
DWIDTH 28 0
BBX 28 18 0 0
BITMAP
FFFFFFF0
00004000
00004000
00004000
001E5F00
00307180
1FE060C0
30604040
30604040
20604040
20604040
20604040
206040C0
2030C080
201F4F80
20004000
30004000
1E004000
ENDCHAR
STARTCHAR uni0924094D0916
ENCODING -1
SWIDTH 1014 0
DWIDTH 28 0
BBX 29 18 0 0
BITMAP
FFFFFFF8
000100C0
000100C0
000100C0
000100C0
00011CC0
1FC130C0
306120C0
202320C0
203E20C0
203020C0
201020C0
201830C0
200C1FC0
200400C0
200600C0
300300C0
1E0180C0
ENDCHAR
STARTCHAR uni0924094D0924
ENCODING -1
SWIDTH 542 0
DWIDTH 15 0
BBX 16 18 0 0
BITMAP
FFFF
0018
0018
0018
0018
0018
7FF8
0C18
1818
1818
1018
1018
1018
1018
1018
1818
0818
0718
ENDCHAR
STARTCHAR uni0924094D0925
ENCODING -1
SWIDTH 869 0
DWIDTH 24 0
BBX 25 18 0 0
BITMAP
FF0F0F80
00118C00
00318C00
00208C00
00008C00
00018C00
00010C00
1FFF0C00
30600C00
20600C00
20600C00
20600C00
20200C00
20301C00
201FFC00
20000C00
30000C00
1E000C00
ENDCHAR
STARTCHAR uni0924094D092A
ENCODING -1
SWIDTH 757 0
DWIDTH 21 0
BBX 22 18 0 0
BITMAP
FFFFFC
006060
006060
006060
006060
006060
1FE060
306060
206060
206060
202060
2030E0
201FE0
200060
200060
200060
300060
1E0060
ENDCHAR
STARTCHAR uni0924094D092B
ENCODING -1
SWIDTH 992 0
DWIDTH 28 0
BBX 28 18 0 0
BITMAP
FFFFFFF0
00604000
00604000
00604000
00605F00
00607180
1FE060C0
30604040
20604040
20604040
2030C040
201F4040
200040C0
20004080
20004F80
20004000
30004000
1E004000
ENDCHAR
STARTCHAR uni0924094D092E
ENCODING -1
SWIDTH 764 0
DWIDTH 21 0
BBX 22 18 0 0
BITMAP
FFFFFC
002060
002060
002060
002060
002060
1FE060
302060
203FE0
202060
202060
202060
202060
200060
200060
200060
300060
1E0060
ENDCHAR
STARTCHAR uni0924094D092F
ENCODING -1
SWIDTH 830 0
DWIDTH 23 0
BBX 24 18 0 0
BITMAP
FFFFFF
000C18
000618
000218
000218
000618
000618
1FFC18
306018
206018
206018
206018
202018
203038
201FF8
200018
300018
1E0018
ENDCHAR
STARTCHAR uni0924094D0932
ENCODING -1
SWIDTH 957 0
DWIDTH 27 0
BBX 27 18 0 0
BITMAP
FFFFFFE0
00000100
00000100
00000100
00000100
1FCF3D00
3071E300
2020C100
2020C100
2020C100
2020C100
2020C100
20200100
20200100
20200100
20300100
301F0100
1E000100
ENDCHAR
STARTCHAR uni0924094D0935
ENCODING -1
SWIDTH 751 0
DWIDTH 21 0
BBX 21 18 0 0
BITMAP
FFFFF8
000040
000040
000040
001E40
003040
1FE040
306040
306040
206040
206040
206040
206040
2030C0
201FC0
200040
300040
1E0040
ENDCHAR
STARTCHAR uni0924094D0938
ENCODING -1
SWIDTH 876 0
DWIDTH 25 0
BBX 25 18 0 0
BITMAP
FFFFFF80
00020400
00020400
00020400
00020400
00020400
1F820400
30460400
20640400
207FFC00
20200400
20300400
20100400
20180400
200C0400
20040400
30060400
1E020400
ENDCHAR
STARTCHAR uni0925094D092F
ENCODING -1
SWIDTH 931 0
DWIDTH 26 0
BBX 24 18 2 0
BITMAP
3C7FFF
660608
420208
C20308
C20308
020308
020208
063C08
FC3008
803008
803008
803008
803008
C07818
7FCFE8
000008
000008
000008
ENDCHAR
STARTCHAR uni0925094D0935
ENCODING -1
SWIDTH 862 0
DWIDTH 24 0
BBX 23 18 2 0
BITMAP
3C7FFE
660030
C20030
C20030
420F30
021830
021030
063030
FC3030
803030
803030
803030
803030
C07870
7FCFF0
000030
000030
000030
ENDCHAR
STARTCHAR uni0926094D0917
ENCODING -1
SWIDTH 489 0
DWIDTH 14 0
BBX 14 21 0 -3
BITMAP
FFFC
0020
0020
0020
0020
0FE0
1800
3000
2000
2000
2030
2030
2030
3070
1FF0
0430
0430
0430
0400
0C00
3800
ENDCHAR
STARTCHAR uni0926094D0918
ENCODING -1
SWIDTH 686 0
DWIDTH 19 0
BBX 20 19 0 -1
BITMAP
FFFFF0
000180
000180
000180
000180
007F80
00C000
1F8000
318000
618000
618000
218080
1C8080
30C180
607E80
606080
606080
204080
3F8000
ENDCHAR
STARTCHAR uni0926094D0926
ENCODING -1
SWIDTH 506 0
DWIDTH 14 0
BBX 15 20 0 -2
BITMAP
FFFE
0030
0020
0020
0020
1FE0
3800
3000
3000
3000
1F80
1800
3000
3010
3010
3030
1FF0
0010
0010
0010
ENDCHAR
STARTCHAR uni0926094D0927
ENCODING -1
SWIDTH 686 0
DWIDTH 19 0
BBX 20 19 0 -1
BITMAP
FFFFF0
000180
000180
000180
000180
007F80
00C000
1C8000
318000
618000
618000
218080
1C8080
30C180
607E80
606080
606080
204080
3F8000
ENDCHAR
STARTCHAR uni0926094D092C
ENCODING -1
SWIDTH 481 0
DWIDTH 13 0
BBX 14 21 0 -3
BITMAP
FFFC
0020
0020
0020
0020
0FE0
1800
3000
2000
2000
2000
2030
2030
3030
1FF0
1C30
3630
3330
30A0
1060
1FC0
ENDCHAR
STARTCHAR uni0926094D092D
ENCODING -1
SWIDTH 499 0
DWIDTH 14 0
BBX 14 23 0 -5
BITMAP
FFFC
0020
0020
0020
0FE0
1800
3000
2000
2020
2020
3020
1060
0FE0
0020
7020
1820
0820
0820
0FE0
0820
0820
0020
0020
ENDCHAR
STARTCHAR uni0926094D092E
ENCODING -1
SWIDTH 706 0
DWIDTH 20 0
BBX 20 18 0 0
BITMAP
FFFFF0
004080
004080
004080
1FC080
300080
200080
200080
200080
206080
206080
306080
1FE080
007F80
006080
006080
006080
000080
ENDCHAR
STARTCHAR uni0926094D092F
ENCODING -1
SWIDTH 583 0
DWIDTH 16 0
BBX 17 18 0 0
BITMAP
FFFF80
010C00
010C00
010C00
1F0C00
380C00
200C00
200C00
300C00
1F0C00
180C00
300C00
200C00
200C00
301C00
1FFC00
000C00
000C00
ENDCHAR
STARTCHAR uni0926094D0935
ENCODING -1
SWIDTH 483 0
DWIDTH 14 0
BBX 14 21 0 -3
BITMAP
FFFC
0020
0020
0020
0020
0FE0
1800
3000
2000
2000
2000
2030
2030
3030
1FF0
1830
3030
3030
3020
1060
1FC0
ENDCHAR
STARTCHAR uni0927094D092E
ENCODING -1
SWIDTH 817 0
DWIDTH 23 0
BBX 23 18 0 0
BITMAP
FE3FFE
101810
301810
201810
201810
201810
101810
0F1810
301FF0
201810
201810
201810
301810
301010
1FE010
000010
000010
000010
ENDCHAR
STARTCHAR uni0927094D092F
ENCODING -1
SWIDTH 886 0
DWIDTH 25 0
BBX 25 18 0 0
BITMAP
FE3FFF80
10030400
30010400
20010400
20010400
20010400
30030400
1F1E0400
10100400
30100400
20100400
20100400
20180C00
301C0C00
1FF7F400
00000400
00000400
00000400
ENDCHAR
STARTCHAR uni0927094D0935
ENCODING -1
SWIDTH 810 0
DWIDTH 23 0
BBX 23 18 0 0
BITMAP
FE3FFE
100010
300010
200010
200790
200C10
301810
0F1010
101010
301010
201010
201010
201010
301830
1FE7D0
000010
000010
000010
ENDCHAR
STARTCHAR uni0928094D0915
ENCODING -1
SWIDTH 973 0
DWIDTH 27 0
BBX 28 18 0 0
BITMAP
FFFFFFF0
0000C000
0000C000
0000C000
003CDF00
0060E180
0040C080
3FC0C080
6040C0C0
4040C0C0
4040C0C0
6040C0C0
0040C080
0061C180
003FCF00
0000C000
0000C000
0000C000
ENDCHAR
STARTCHAR uni0928094D091A
ENCODING -1
SWIDTH 820 0
DWIDTH 23 0
BBX 23 18 0 0
BITMAP
FFFFFE
000010
000010
000010
000010
00FF10
001810
003010
003010
3FB010
603010
403010
403010
601830
000FD0
000010
000010
000010
ENDCHAR
STARTCHAR uni0928094D091B
ENCODING -1
SWIDTH 781 0
DWIDTH 22 0
BBX 22 17 0 1
BITMAP
FFFFFC
00C020
008020
008020
008020
008020
0081E0
00C020
3FF830
604030
608010
608010
208010
008030
008030
00C060
007FC0
ENDCHAR
STARTCHAR uni0928094D091F
ENCODING -1
SWIDTH 715 0
DWIDTH 20 0
BBX 20 17 0 1
BITMAP
FFFFF0
000080
000080
000080
000080
003F80
006000
3FC000
60C000
40C000
40C000
60C060
00C060
00C060
004040
0060C0
003F80
ENDCHAR
STARTCHAR uni0928094D0921
ENCODING -1
SWIDTH 705 0
DWIDTH 20 0
BBX 20 18 0 0
BITMAP
FFFFF0
000080
000080
000080
000080
003F80
006000
3FC000
604000
404000
407F80
6001C0
000040
000040
00C040
00C040
0040C0
007F80
ENDCHAR
STARTCHAR uni0928094D0924
ENCODING -1
SWIDTH 717 0
DWIDTH 20 0
BBX 20 18 0 0
BITMAP
FFFFF0
0000C0
0000C0
0000C0
0000C0
0000C0
007FC0
3FE0C0
60C0C0
4080C0
4080C0
6080C0
0080C0
0080C0
0080C0
00C0C0
0040C0
0038C0
ENDCHAR
STARTCHAR uni0928094D0925
ENCODING -1
SWIDTH 804 0
DWIDTH 23 0
BBX 23 18 0 0
BITMAP
FC3C1E
006610
00C210
00C210
004210
000210
000610
3FFC10
608010
408010
408010
608030
208030
00C070
007FD0
000010
000010
000010
ENDCHAR
STARTCHAR uni0928094D0926
ENCODING -1
SWIDTH 724 0
DWIDTH 20 0
BBX 21 18 0 0
BITMAP
FFFFF8
0000C0
0000C0
0000C0
0000C0
003FC0
006000
3FC000
60C000
40C000
40C000
60C040
004040
0060C0
003FC0
000040
000040
000040
ENDCHAR
STARTCHAR uni0928094D0927
ENCODING -1
SWIDTH 753 0
DWIDTH 21 0
BBX 22 18 0 0
BITMAP
FFF3FC
00C060
008060
018060
018060
008060
00C060
3FF860
60C060
408060
418060
618060
218060
008060
00C0E0
007FE0
000060
000060
ENDCHAR
STARTCHAR uni0928094D092A
ENCODING -1
SWIDTH 742 0
DWIDTH 21 0
BBX 21 18 0 0
BITMAP
FFFFF8
004040
004040
004040
004040
004040
004040
004040
3FC040
604040
606040
6020C0
601F40
000040
000040
000040
000040
000040
ENDCHAR
STARTCHAR uni0928094D092B
ENCODING -1
SWIDTH 970 0
DWIDTH 27 0
BBX 28 18 0 0
BITMAP
FFFFFFF0
0040C000
0040C000
0040C000
0040FF00
0040E180
0040C080
3FC0C080
6040C080
4040C080
4061C080
603FC080
0000C080
0000C180
0000CF00
0000C000
0000C000
0000C000
ENDCHAR
STARTCHAR uni0928094D092D
ENCODING -1
SWIDTH 739 0
DWIDTH 21 0
BBX 21 18 0 0
BITMAP
FF83F8
00C040
004040
006040
006040
006040
006040
006040
3FFFC0
606040
606040
606040
206040
000040
000040
000040
000040
000040
ENDCHAR
STARTCHAR uni0928094D092E
ENCODING -1
SWIDTH 735 0
DWIDTH 21 0
BBX 21 18 0 0
BITMAP
FFFFF8
004040
004040
004040
004040
004040
004040
004040
3FFFC0
604040
604040
604040
204040
000040
000040
000040
000040
000040
ENDCHAR
STARTCHAR uni0928094D092F
ENCODING -1
SWIDTH 801 0
DWIDTH 22 0
BBX 23 18 0 0
BITMAP
FFFFFE
000830
000C10
000410
000410
000410
000C10
3FF810
604010
404010
404010
604030
004030
006070
003FD0
000010
000010
000010
ENDCHAR
STARTCHAR uni0928094D0935
ENCODING -1
SWIDTH 732 0
DWIDTH 21 0
BBX 21 18 0 0
BITMAP
FFFFF8
000040
000040
000040
001E40
006040
004040
3FC040
604040
404040
404040
604040
0040C0
0060C0
003F40
000040
000040
000040
ENDCHAR
STARTCHAR uni0928094D0938
ENCODING -1
SWIDTH 867 0
DWIDTH 24 0
BBX 25 18 0 0
BITMAP
FFFFFF80
00060C00
00060C00
00060C00
00060C00
00060C00
00060C00
3F860C00
60C40C00
407FFC00
40600C00
60200C00
00100C00
00180C00
00080C00
000C0C00
00040C00
00060C00
ENDCHAR
STARTCHAR uni0928094D0939
ENCODING -1
SWIDTH 714 0
DWIDTH 20 0
BBX 20 19 0 -1
BITMAP
FFFFF0
0000C0
0000C0
0000C0
003FC0
006000
004000
3FC000
604000
606000
603F80
6060C0
0040C0
004040
004040
004000
004000
006000
003FC0
ENDCHAR
STARTCHAR uni092A094D091F
ENCODING -1
SWIDTH 489 0
DWIDTH 14 0
BBX 14 18 0 0
BITMAP
FFFC
3030
3030
3030
3030
3030
3030
1030
0FE0
3000
3000
2000
2000
2010
2010
2010
1030
1FE0
ENDCHAR
STARTCHAR uni092A094D0920
ENCODING -1
SWIDTH 506 0
DWIDTH 14 0
BBX 15 18 0 0
BITMAP
FFFE
3010
3010
3010
3010
3010
3030
1020
0FC0
1030
3030
2010
2010
2010
2010
3010
1030
1FE0
ENDCHAR
STARTCHAR uni092A094D0924
ENCODING -1
SWIDTH 495 0
DWIDTH 14 0
BBX 14 18 0 0
BITMAP
FFFC
2020
2020
2020
2020
2020
3020
1020
1FE0
3020
2020
2020
2020
2020
2020
2020
3020
1E20
ENDCHAR
STARTCHAR uni092A094D092A
ENCODING -1
SWIDTH 770 0
DWIDTH 22 0
BBX 22 18 0 0
BITMAP
FFFFFC
302020
302020
302020
302020
302020
302020
302020
302020
302020
302060
187060
0FDFA0
000020
000020
000020
000020
000020
ENDCHAR
STARTCHAR uni092A094D092B
ENCODING -1
SWIDTH 1003 0
DWIDTH 28 0
BBX 28 18 0 0
BITMAP
FFFFFFF0
30206000
30206000
30206000
30207F80
302070C0
30206040
30206040
30206040
30206040
30206040
1870E040
0FDFE040
000060C0
00006780
00006000
00006000
00006000
ENDCHAR
STARTCHAR uni092A094D092E
ENCODING -1
SWIDTH 774 0
DWIDTH 22 0
BBX 22 18 0 0
BITMAP
FFFFFC
303020
303020
303020
303020
303020
303020
303020
303FE0
303020
187020
0FF020
003020
000020
000020
000020
000020
000020
ENDCHAR
STARTCHAR uni092A094D092F
ENCODING -1
SWIDTH 855 0
DWIDTH 24 0
BBX 24 18 0 0
BITMAP
FFFFFF
300608
300208
300308
300308
300208
300608
303C08
302008
302008
302008
187008
0FF008
001818
000FE8
000008
000008
000008
ENDCHAR
STARTCHAR uni092A094D0932
ENCODING -1
SWIDTH 960 0
DWIDTH 27 0
BBX 27 18 0 0
BITMAP
FFFFFFE0
30000100
30000100
30000100
30000100
300F3D00
3019E300
3030C100
3020C100
3020C100
3020C100
1860C100
0FE04100
00200100
00200100
00300100
001F0100
00000100
ENDCHAR
STARTCHAR uni092A094D0935
ENCODING -1
SWIDTH 780 0
DWIDTH 22 0
BBX 22 18 0 0
BITMAP
FFFFFC
300020
300020
300020
300F20
301820
303020
302020
302020
302020
302020
186020
0FF020
003060
001FA0
000020
000020
000020
ENDCHAR
STARTCHAR uni092A094D0938
ENCODING -1
SWIDTH 880 0
DWIDTH 25 0
BBX 25 18 0 0
BITMAP
FFFFFF80
30020400
30020400
30020400
30020400
30020400
30020400
30020400
30060400
307FFC00
30200400
18700400
0FD00400
00180400
000C0400
00040400
00060400
00030400
ENDCHAR
STARTCHAR uni092B094D091C
ENCODING -1
SWIDTH 1100 0
DWIDTH 31 0
BBX 31 18 0 0
BITMAP
FFFFFFFE
30200010
30200010
30200010
30200010
302F3FF0
30380410
30300210
30200210
30200210
18600210
0FA00210
00200210
00200210
00200610
0020FC10
00200010
00200010
ENDCHAR
STARTCHAR uni092B094D091F
ENCODING -1
SWIDTH 1006 0
DWIDTH 28 0
BBX 29 18 0 0
BITMAP
FFFFFFF8
30200080
30200080
30200080
302F8080
3038FF80
30306000
30204000
3020C000
3020C000
1860C000
0FA0C060
0020C060
00204060
00204060
002060C0
00203F80
00200000
ENDCHAR
STARTCHAR uni092B094D0924
ENCODING -1
SWIDTH 1034 0
DWIDTH 29 0
BBX 29 18 0 0
BITMAP
FFFFFFF8
30200040
30200040
30200040
30200040
302F8040
30307FC0
30206040
30206040
30204040
18604040
0FA04040
00204040
00204040
00204040
00204040
00206040
00203C40
ENDCHAR
STARTCHAR uni092B094D092A
ENCODING -1
SWIDTH 1021 0
DWIDTH 29 0
BBX 29 18 0 0
BITMAP
FFFFFFF8
30204040
30204040
30204040
30204040
302FC040
30384040
30304040
30204040
30204040
302040C0
186060C0
0FA03F40
00200040
00200040
00200040
00200040
00200040
ENDCHAR
STARTCHAR uni092B094D092B
ENCODING -1
SWIDTH 1256 0
DWIDTH 35 0
BBX 36 18 0 0
BITMAP
FFFFFFFFF0
302040C000
302040C000
302040C000
302040FF00
302FC0E180
303840C080
303040C080
302040C080
302040C080
186061C080
0FA03FC080
002000C080
002000C180
002000CF00
002000C000
002000C000
002000C000
ENDCHAR
STARTCHAR uni092B094D092F
ENCODING -1
SWIDTH 1120 0
DWIDTH 31 0
BBX 31 18 0 0
BITMAP
FFFFFFFE
30200810
30200410
30200410
30200410
30200C10
302FF810
30384010
30304010
30204010
18604010
0FA04010
00206030
00202070
00201FD0
00200010
00200010
00200010
ENDCHAR
STARTCHAR uni092B094D0932
ENCODING -1
SWIDTH 1202 0
DWIDTH 34 0
BBX 34 18 0 0
BITMAP
FFFFFFFFC0
3020000200
3020000200
3020000200
302F800200
3038FE7A00
303063C600
3020418600
3020418200
3020418200
1860418200
0FA0410200
0020400200
0020400200
0020400200
0020600200
00203C0200
0020000200
ENDCHAR
STARTCHAR uni092B094D0936
ENCODING -1
SWIDTH 1211 0
DWIDTH 34 0
BBX 34 18 0 0
BITMAP
FFFF8F83C0
302018C200
3020104200
3020104200
302F104200
3039804200
3030C04200
3020404200
302040C200
30207F8200
1860600200
0FA0200200
0020300200
0020180200
0020080200
00200C0200
0020060200
0020020200
ENDCHAR
STARTCHAR uni092C094D091C
ENCODING -1
SWIDTH 883 0
DWIDTH 25 0
BBX 25 18 0 0
BITMAP
FFFFFF80
00000400
00000400
00000400
00000400
0F000400
301FFC00
38010400
2C008400
26008400
22008400
21008400
20808400
20C08400
30618400
1FFF0400
00000400
00000400
ENDCHAR
STARTCHAR uni092C094D091D
ENCODING -1
SWIDTH 962 0
DWIDTH 27 0
BBX 27 21 0 -3
BITMAP
FFFFFFE0
00004100
00004100
00004100
0F1FC100
30300100
30200100
28200100
24200100
22300100
213FFF00
20A06100
20602100
30602100
1FC02100
00102100
00106100
001FC100
00100000
00100000
00100000
ENDCHAR
STARTCHAR uni092C094D0924
ENCODING -1
SWIDTH 786 0
DWIDTH 22 0
BBX 22 18 0 0
BITMAP
FFFFFC
000020
000020
000020
0F0020
300020
380FE0
2C3820
243020
222020
212020
20A020
206020
306020
1FE020
003020
001020
001E20
ENDCHAR
STARTCHAR uni092C094D0926
ENCODING -1
SWIDTH 775 0
DWIDTH 22 0
BBX 22 18 0 0
BITMAP
FFFFFC
000020
000020
000020
0F0020
380FE0
301800
283000
242000
222000
212000
20A030
207030
307030
1FDFF0
000030
000030
000030
ENDCHAR
STARTCHAR uni092C094D0927
ENCODING -1
SWIDTH 844 0
DWIDTH 24 0
BBX 24 18 0 0
BITMAP
FFFC7F
001008
002008
002008
0F2008
302008
383008
280F08
241008
223008
212008
20A008
206008
307018
1FD018
001FE8
000008
000008
ENDCHAR
STARTCHAR uni092C094D092C
ENCODING -1
SWIDTH 783 0
DWIDTH 22 0
BBX 22 18 0 0
BITMAP
FFFFFC
000020
000020
000020
0F0F20
301820
383820
2C2C20
242620
222320
2121A0
20A0E0
207060
307060
1FDFA0
000020
000020
000020
ENDCHAR
STARTCHAR uni092C094D092D
ENCODING -1
SWIDTH 764 0
DWIDTH 21 0
BBX 22 18 0 0
BITMAP
FFC1FC
006060
002060
002060
0F2060
302060
382060
282060
243FE0
222060
212060
20A060
206060
306060
1FC060
000060
000060
000060
ENDCHAR
STARTCHAR uni092C094D092F
ENCODING -1
SWIDTH 852 0
DWIDTH 24 0
BBX 24 18 0 0
BITMAP
FFFFFF
000608
000208
000208
0F0208
380208
300608
283C08
242008
222008
212008
20A008
207008
307818
1FCFE8
000008
000008
000008
ENDCHAR
STARTCHAR uni092C094D0932
ENCODING -1
SWIDTH 961 0
DWIDTH 27 0
BBX 27 18 0 0
BITMAP
FFFFFFE0
00000100
00000100
00000100
0F000100
300F3D00
3819E300
2C30C100
2620C100
2320C100
21A0C100
20A0C100
20600100
30600100
1FF00100
00100100
000F0100
00000100
ENDCHAR
STARTCHAR uni092C094D0935
ENCODING -1
SWIDTH 776 0
DWIDTH 22 0
BBX 22 18 0 0
BITMAP
FFFFFC
000020
000020
000020
0F0F20
301820
303020
282020
242020
222020
212020
20A020
207020
307060
1FDFA0
000020
000020
000020
ENDCHAR
STARTCHAR uni092C094D0936
ENCODING -1
SWIDTH 926 0
DWIDTH 26 0
BBX 26 18 0 0
BITMAP
FF8F83C0
0018C200
00104200
00104200
0F104200
38004200
30004200
28004200
2400C200
223F8200
21300200
20B80200
20680200
306C0200
1FC40200
00020200
00030200
00018200
ENDCHAR
STARTCHAR uni092C094D0938
ENCODING -1
SWIDTH 897 0
DWIDTH 25 0
BBX 26 18 0 0
BITMAP
FFFFFFC0
00030600
00030600
00030600
0F030600
38030600
30030600
28020600
24060600
223FFE00
21300600
20B00600
20680600
306C0600
1FC40600
00060600
00020600
00030600
ENDCHAR
STARTCHAR uni092D094D092F
ENCODING -1
SWIDTH 827 0
DWIDTH 23 0
BBX 24 18 0 0
BITMAP
C1FFFF
600C18
300618
300618
300618
300618
300418
307818
3FE018
306018
306018
306018
302018
003038
001FF8
000018
000018
000018
ENDCHAR
STARTCHAR uni092D094D0932
ENCODING -1
SWIDTH 941 0
DWIDTH 26 0
BBX 27 18 0 0
BITMAP
C1FFFFE0
60000300
30000300
30000300
30000300
301E3F00
30314700
30208300
3FE08300
30608300
30608300
30608300
30600300
00600300
00200300
00300300
001E0300
00000300
ENDCHAR
STARTCHAR uni092D094D0935
ENCODING -1
SWIDTH 755 0
DWIDTH 21 0
BBX 22 18 0 0
BITMAP
C1FFFC
600060
300060
300060
301E60
303060
302060
306060
3FE060
306060
306060
306060
302060
0030E0
001FE0
000060
000060
000060
ENDCHAR
STARTCHAR uni092E094D0924
ENCODING -1
SWIDTH 765 0
DWIDTH 21 0
BBX 22 18 0 0
BITMAP
FFFFFC
300060
300060
300060
300060
300060
301FE0
303060
3FE060
306060
306060
306060
306060
006060
006060
002060
003060
001C60
ENDCHAR
STARTCHAR uni092E094D0926
ENCODING -1
SWIDTH 766 0
DWIDTH 21 0
BBX 22 18 0 0
BITMAP
FFFFFC
300020
300020
300020
300020
301FE0
303000
302000
3FE000
302000
302000
302020
302020
003060
001FE0
000020
000020
000020
ENDCHAR
STARTCHAR uni092E094D092A
ENCODING -1
SWIDTH 762 0
DWIDTH 21 0
BBX 22 18 0 0
BITMAP
FFFFFC
302060
302060
302060
302060
302060
302060
302060
3FE060
302060
302060
3030E0
301FE0
000060
000060
000060
000060
000060
ENDCHAR
STARTCHAR uni092E094D092C
ENCODING -1
SWIDTH 768 0
DWIDTH 22 0
BBX 22 18 0 0
BITMAP
FFFFFC
300020
300020
300020
301E20
303020
303020
302820
3FE420
302220
302120
3020A0
202060
0030E0
001FA0
000020
000020
000020
ENDCHAR
STARTCHAR uni092E094D092D
ENCODING -1
SWIDTH 768 0
DWIDTH 22 0
BBX 22 18 0 0
BITMAP
FFC1FC
306020
302020
302020
302020
302020
302020
302020
3FFFE0
302020
302020
302020
302020
000020
000020
000020
000020
000020
ENDCHAR
STARTCHAR uni092E094D092E
ENCODING -1
SWIDTH 759 0
DWIDTH 21 0
BBX 22 18 0 0
BITMAP
FFFFFC
302060
302060
302060
302060
302060
302060
302060
3FFFE0
302060
302060
302060
302060
000060
000060
000060
000060
000060
ENDCHAR
STARTCHAR uni092E094D092F
ENCODING -1
SWIDTH 834 0
DWIDTH 23 0
BBX 24 18 0 0
BITMAP
FFFFFF
300418
300618
300218
300218
300618
300418
307818
3FE018
306018
306018
302018
302018
003038
001FF8
000018
000018
000018
ENDCHAR
STARTCHAR uni092E094D0932
ENCODING -1
SWIDTH 945 0
DWIDTH 26 0
BBX 27 18 0 0
BITMAP
FFFFFFE0
30000100
30000100
30000100
30000100
301F3D00
30314700
3020C300
3FE08100
30208100
30208100
30208100
30200100
00200100
00200100
00300100
001E0100
00000100
ENDCHAR
STARTCHAR uni092E094D0935
ENCODING -1
SWIDTH 761 0
DWIDTH 21 0
BBX 22 18 0 0
BITMAP
FFFFFC
300060
300060
300060
301E60
303060
302060
302060
3FE060
302060
302060
302060
302060
0030E0
001FE0
000060
000060
000060
ENDCHAR
STARTCHAR uni092E094D0936
ENCODING -1
SWIDTH 884 0
DWIDTH 25 0
BBX 25 18 0 0
BITMAP
FF1F0780
30310400
30218400
30208400
30208400
30008400
30008400
30018400
30010400
3FFF0400
30600400
30200400
30300400
20180400
00080400
000C0400
00060400
00020400
ENDCHAR
STARTCHAR uni092E094D0938
ENCODING -1
SWIDTH 816 0
DWIDTH 23 0
BBX 23 18 0 0
BITMAP
FFFFFE
300810
300810
300810
300810
300810
300810
300810
301810
3FFFF0
30C010
304010
306010
202010
003010
001010
001810
000C10
ENDCHAR
STARTCHAR uni092E094D0939
ENCODING -1
SWIDTH 758 0
DWIDTH 21 0
BBX 22 19 0 -1
BITMAP
FFFFFC
300060
300060
300060
301FE0
303000
302000
302000
3FE000
303000
300FC0
301060
302020
002020
002020
002000
002000
003000
001FE0
ENDCHAR
STARTCHAR uni092F094D092F
ENCODING -1
SWIDTH 897 0
DWIDTH 25 0
BBX 26 18 0 0
BITMAP
FFFFFFC0
06030600
02018600
02018600
02018600
02018600
06010600
3C1F0600
20180600
20180600
20180600
20180600
30080600
183C0E00
0FE7F600
00000600
00000600
00000600
ENDCHAR
STARTCHAR uni0930094D092F
ENCODING -1
SWIDTH 713 0
DWIDTH 20 0
BBX 20 18 0 0
BITMAP
FFFFF0
006080
002080
003080
003080
803080
406080
3FC080
020080
020080
020080
020080
030080
018180
00FE80
000080
000080
000080
ENDCHAR
STARTCHAR uni0930094D0939
ENCODING -1
SWIDTH 619 0
DWIDTH 17 0
BBX 18 19 0 -1
BITMAP
FFFFC0
000600
000600
000600
00FE00
C10000
630000
3E0000
030000
030000
01FC00
018600
030200
020200
020200
020000
030000
010000
01FE00
ENDCHAR
STARTCHAR uni0932094D0915
ENCODING -1
SWIDTH 1182 0
DWIDTH 33 0
BBX 34 18 0 0
BITMAP
FFFFFFFFC0
0000030000
0000030000
0000030000
0000F3FC00
0F3D838600
19E3030200
30C1030200
20C3030200
2043030200
2043030200
2041030200
2001030200
2001870600
3000FF3C00
1000030000
1F00030000
0000030000
ENDCHAR
STARTCHAR uni0932094D0916
ENCODING -1
SWIDTH 1195 0
DWIDTH 33 0
BBX 34 18 0 0
BITMAP
FFFFFFFFC0
0000080200
0000080200
0000080200
0000080200
0F3C087200
19E2088200
30C1090200
20C1190200
2041F10200
2041810200
2040810600
2000C18600
200060FA00
3000200200
1000100200
1F00180200
00000C0200
ENDCHAR
STARTCHAR uni0932094D0917
ENCODING -1
SWIDTH 950 0
DWIDTH 27 0
BBX 27 18 0 0
BITMAP
FFFFFFE0
00004100
00004100
00004100
00004100
0F3C4100
19E04100
30C04100
20C0C100
2040C100
20408100
20470100
20400100
20000100
30000100
10000100
1F000100
00000100
ENDCHAR
STARTCHAR uni0932094D091C
ENCODING -1
SWIDTH 1035 0
DWIDTH 29 0
BBX 29 18 0 0
BITMAP
FFFFFFF8
00000040
00000040
00000040
00000040
0F3CFFC0
19E01840
30C00840
20C00840
20400840
20400840
20400840
20000840
20000840
30001840
1003F040
1F000040
00000040
ENDCHAR
STARTCHAR uni0932094D091F
ENCODING -1
SWIDTH 929 0
DWIDTH 26 0
BBX 26 17 0 1
BITMAP
FFFFFFC0
00000200
00000200
00000200
00000200
0F3EFE00
19E38000
30C10000
20C30000
20430000
20430000
20430180
20030180
20030180
30010100
10018300
1F00FE00
ENDCHAR
STARTCHAR uni0932094D0920
ENCODING -1
SWIDTH 953 0
DWIDTH 27 0
BBX 27 17 0 1
BITMAP
FFFFFFE0
00000200
00000200
00000200
00000200
0F3CFC00
19E38300
30C30100
20C30180
20430180
20430180
20430180
20030180
20030180
30030100
10018300
1F00FE00
ENDCHAR
STARTCHAR uni0932094D0921
ENCODING -1
SWIDTH 916 0
DWIDTH 26 0
BBX 26 18 0 0
BITMAP
FFFFFFC0
00000200
00000200
00000200
00000200
0F3CFE00
19E38000
30C30000
20C30000
20410000
2041FE00
20400700
20000300
20000100
30030100
10030300
1F010300
0001FE00
ENDCHAR
STARTCHAR uni0932094D0922
ENCODING -1
SWIDTH 924 0
DWIDTH 26 0
BBX 26 17 0 1
BITMAP
FFFFFFC0
00000200
00000200
00000200
00000200
0F3CFE00
19E38000
30C30000
20C30000
20430F00
20431900
20431100
20031180
20030180
30030100
10018300
1F00FE00
ENDCHAR
STARTCHAR uni0932094D0924
ENCODING -1
SWIDTH 929 0
DWIDTH 26 0
BBX 26 18 0 0
BITMAP
FFFFFFC0
00000200
00000200
00000200
00000200
0F3C0200
19E3FE00
30C10200
20C30200
20420200
20420200
20420200
20020200
20020200
30020200
10030200
1F030200
0001E200
ENDCHAR
STARTCHAR uni0932094D0925
ENCODING -1
SWIDTH 1061 0
DWIDTH 30 0
BBX 30 18 0 0
BITMAP
FFF8783C
0000CC20
00008420
00008420
00008420
0F3C0420
19E20420
30C30C20
20C1F820
20410020
20410020
20410020
20010060
200080E0
30007FA0
10000020
1F000020
00000020
ENDCHAR
STARTCHAR uni0932094D0926
ENCODING -1
SWIDTH 939 0
DWIDTH 26 0
BBX 27 18 0 0
BITMAP
FFFFFFE0
00000300
00000300
00000300
00000300
0F3CFF00
19E38000
30C10000
20C10000
20410000
20410000
20410100
20010100
20018300
3000FF00
10000100
1F000100
00000100
ENDCHAR
STARTCHAR uni0932094D092A
ENCODING -1
SWIDTH 939 0
DWIDTH 26 0
BBX 27 18 0 0
BITMAP
FFFFFFE0
00030300
00030300
00030300
00030300
0F3F0300
19E30300
30C30300
20C30300
20410300
20410300
20418700
2040FF00
20000300
30000300
10000300
1F000300
00000300
ENDCHAR
STARTCHAR uni0932094D092B
ENCODING -1
SWIDTH 1176 0
DWIDTH 33 0
BBX 33 18 0 0
BITMAP
FFFFFFFF80
0001020000
0001020000
0001020000
000102F800
0F3F038E00
19E1030200
30C1020200
20C1020200
2041020200
2041860200
2040FE0200
2000020200
2000020600
3000023C00
1000020000
1F00020000
0000020000
ENDCHAR
STARTCHAR uni0932094D092C
ENCODING -1
SWIDTH 949 0
DWIDTH 27 0
BBX 27 18 0 0
BITMAP
FFFFFFE0
00000100
00000100
00000100
0000F900
0F3F8100
19E3C100
30C16100
20C13100
20411900
20410900
20410500
20010300
20018300
3000FD00
10000100
1F000100
00000100
ENDCHAR
STARTCHAR uni0932094D092D
ENCODING -1
SWIDTH 931 0
DWIDTH 26 0
BBX 26 18 0 0
BITMAP
FFFE1FC0
00030200
00030200
00010200
00010200
0F3F0200
19E10200
30C10200
20C1FE00
20410200
20410200
20410200
20010200
20000200
30000200
10000200
1F000200
00000200
ENDCHAR
STARTCHAR uni0932094D092E
ENCODING -1
SWIDTH 931 0
DWIDTH 26 0
BBX 26 18 0 0
BITMAP
FFFFFFC0
00010200
00010200
00010200
00010200
0F3F0200
19E10200
30C10200
20C1FE00
20410200
20410200
20410200
20010200
20000200
30000200
10000200
1F000200
00000200
ENDCHAR
STARTCHAR uni0932094D092F
ENCODING -1
SWIDTH 1033 0
DWIDTH 29 0
BBX 29 18 0 0
BITMAP
FFFFFFF8
00003040
00001040
00001840
00001840
0F3E1840
19E31040
30C1E040
20410040
20410040
20410040
20010040
20018040
3000C0C0
30007F40
1F000040
00000040
00000040
ENDCHAR
STARTCHAR uni0932094D0932
ENCODING -1
SWIDTH 1112 0
DWIDTH 31 0
BBX 32 18 0 0
BITMAP
FFFFFFFF
00000018
00000018
00000018
00000018
0F3CF3F8
19E38A38
30C30C18
20C30418
20430418
20430418
20430418
20030018
20030018
30030018
10018018
1F00F018
00000018
ENDCHAR
STARTCHAR uni0932094D0935
ENCODING -1
SWIDTH 940 0
DWIDTH 26 0
BBX 27 18 0 0
BITMAP
FFFFFFE0
00000300
00000300
00000300
0000F300
0F3F8300
19E30300
30C10300
20C10300
20410300
20410300
20410300
20010300
20018700
3000FF00
10000300
1F000300
00000300
ENDCHAR
STARTCHAR uni0932094D0938
ENCODING -1
SWIDTH 1068 0
DWIDTH 30 0
BBX 30 18 0 0
BITMAP
FFFFFFFC
00001020
00001020
00001020
00001020
0F3C1020
19E21020
30C31020
20C13020
2041FFE0
20418020
20408020
2000C020
20004020
30006020
10002020
1F003020
00001820
ENDCHAR
STARTCHAR uni0932094D0939
ENCODING -1
SWIDTH 922 0
DWIDTH 26 0
BBX 26 19 0 -1
BITMAP
FFFFFFC0
00000200
00000200
00000200
0000FE00
0F3F8000
19E30000
30C10000
20C10000
20418000
2040FC00
20418600
20010300
20030300
30030300
10030000
1F010000
00018000
0000FE00
ENDCHAR
STARTCHAR uni0933094D092F
ENCODING -1
SWIDTH 1050 0
DWIDTH 29 0
BBX 30 18 0 0
BITMAP
FFFFFFFC
00001060
00001860
00000860
0F1E0860
31A30860
20C11860
2041F060
20408060
20408060
20408060
20418060
20418060
30E1C0E0
1FBF7FE0
00000060
00000060
00000060
ENDCHAR
STARTCHAR uni0935094D092F
ENCODING -1
SWIDTH 852 0
DWIDTH 24 0
BBX 24 18 0 0
BITMAP
FFFFFF
000608
000208
000208
0F0208
300208
200608
203C08
202008
202008
202008
202008
203008
307818
1FCFE8
000008
000008
000008
ENDCHAR
STARTCHAR uni0935094D0932
ENCODING -1
SWIDTH 961 0
DWIDTH 27 0
BBX 27 18 0 0
BITMAP
FFFFFFE0
00000100
00000100
00000100
0F000100
300F3D00
2019E300
2030C100
2020C100
2020C100
2020C100
20204100
20200100
30600100
1FD00100
001F0100
00000100
00000100
ENDCHAR
STARTCHAR uni0935094D0935
ENCODING -1
SWIDTH 776 0
DWIDTH 22 0
BBX 22 18 0 0
BITMAP
FFFFFC
000020
000020
000020
0F0F20
301820
203020
202020
202020
202020
202020
202020
203020
305060
1FDFA0
000020
000020
000020
ENDCHAR
STARTCHAR uni0935094D0939
ENCODING -1
SWIDTH 754 0
DWIDTH 21 0
BBX 21 19 0 -1
BITMAP
FFFFF8
000060
000060
000060
0F1FE0
303000
202000
202000
202000
203000
201FC0
203060
202020
306020
1FA020
002000
002000
003000
001FE0
ENDCHAR
STARTCHAR uni0936094D0915
ENCODING -1
SWIDTH 1093 0
DWIDTH 31 0
BBX 30 18 1 0
BITMAP
3E1FFFFC
63001000
61001000
41001000
410797C0
010C1860
01181030
01101030
03101010
FE101010
C0101010
60101030
20181030
30083060
180FD3C0
08001000
0C001000
06001000
ENDCHAR
STARTCHAR uni0936094D091A
ENCODING -1
SWIDTH 950 0
DWIDTH 27 0
BBX 26 18 1 0
BITMAP
1E1FFFC0
23000200
61000200
41000200
41000200
41000200
011FE200
01020200
03040200
FE040200
C0040200
60040200
20040600
30060600
1803FA00
08000200
0C000200
06000200
ENDCHAR
STARTCHAR uni0936094D091B
ENCODING -1
SWIDTH 968 0
DWIDTH 27 0
BBX 27 18 1 0
BITMAP
3E3FFFE0
63040200
610C0200
41080200
41080200
41080200
01081E00
010C0300
03038100
FE040100
C00C0100
60080100
20080100
30080100
180C0300
080C0300
0C07FE00
06000000
ENDCHAR
STARTCHAR uni0936094D091F
ENCODING -1
SWIDTH 854 0
DWIDTH 24 0
BBX 23 18 1 0
BITMAP
3E3FFE
630010
610010
410010
410010
0107F0
010C00
011800
031800
FE1800
C01800
601808
20180C
301808
181808
080C18
0C07F0
060000
ENDCHAR
STARTCHAR uni0936094D0924
ENCODING -1
SWIDTH 864 0
DWIDTH 24 0
BBX 24 18 1 0
BITMAP
1E3FFF
230018
610018
410018
410018
010018
0107F8
010C18
031818
FE1818
C01818
601818
201818
301818
181818
081818
0C0818
060718
ENDCHAR
STARTCHAR uni0936094D092E
ENCODING -1
SWIDTH 885 0
DWIDTH 25 0
BBX 24 18 1 0
BITMAP
3E3FFF
630C08
610C08
410C08
410C08
010C08
010C08
010C08
030FF8
FE0C08
C00C08
600C08
200C08
300008
180008
080008
0C0008
060008
ENDCHAR
STARTCHAR uni0936094D092F
ENCODING -1
SWIDTH 940 0
DWIDTH 26 0
BBX 26 18 1 0
BITMAP
1E3FFFC0
23030600
61018600
41008600
41008600
41018600
01018600
011F0600
03180600
FE180600
C0180600
60180600
20080600
300C0E00
1807FE00
08000600
0C000600
06000600
ENDCHAR
STARTCHAR uni0936094D0932
ENCODING -1
SWIDTH 1039 0
DWIDTH 29 0
BBX 28 18 1 0
BITMAP
3E1FFFF0
630000C0
610000C0
410000C0
410000C0
01079FC0
010CD1C0
011860C0
031820C0
FE1820C0
C01820C0
601820C0
201800C0
301800C0
181800C0
080800C0
0C0780C0
060000C0
ENDCHAR
STARTCHAR uni0936094D0935
ENCODING -1
SWIDTH 850 0
DWIDTH 24 0
BBX 23 18 1 0
BITMAP
3E1FFE
630010
610010
410010
410790
010C10
011810
011010
031010
FE1010
C01010
601010
201810
300830
1807D0
080010
0C0010
060010
ENDCHAR
STARTCHAR uni0936094D0936
ENCODING -1
SWIDTH 1009 0
DWIDTH 28 0
BBX 28 18 1 0
BITMAP
1E03C1F0
23066180
610C2180
41082180
41082180
01002180
01002180
01002180
03006180
FE1FC180
C0180180
600C0180
20040180
30060180
18030180
08010180
0C018180
0600C180
ENDCHAR
STARTCHAR uni0937094D0915
ENCODING -1
SWIDTH 1039 0
DWIDTH 29 0
BBX 29 18 0 0
BITMAP
FFFFFFF8
30003000
38003000
38003000
340F3FC0
32183860
31103020
30903020
30F03020
30703020
30303020
18703020
0FD03020
00187060
000FF3C0
00003000
00003000
00003000
ENDCHAR
STARTCHAR uni0937094D091F
ENCODING -1
SWIDTH 493 0
DWIDTH 14 0
BBX 14 18 0 0
BITMAP
FFFC
3030
3830
3430
3330
31B0
30F0
1030
0FE0
3000
3000
2000
2000
2010
2010
2010
1030
1FE0
ENDCHAR
STARTCHAR uni0937094D0920
ENCODING -1
SWIDTH 511 0
DWIDTH 14 0
BBX 15 18 0 0
BITMAP
FFFE
2FF0
3FF0
3FF0
3FF0
3FF0
3FF0
1FD0
0FE0
1FF0
3010
2010
2010
2010
2010
3010
3030
1FE0
ENDCHAR
STARTCHAR uni0937094D0923
ENCODING -1
SWIDTH 980 0
DWIDTH 27 0
BBX 28 18 0 0
BITMAP
FFFFFFF0
30106080
38106080
38106080
34106080
32106080
31106080
31906080
30D06080
30506080
30306080
18784080
0FCF8080
00000080
00000080
00000080
00000080
00000080
ENDCHAR
STARTCHAR uni0937094D092A
ENCODING -1
SWIDTH 980 0
DWIDTH 27 0
BBX 28 18 0 0
BITMAP
FFFFFFF0
30106080
38106080
38106080
34106080
32106080
31106080
31906080
30D06080
30506080
30306080
18784080
0FCF8080
00000080
00000080
00000080
00000080
00000080
ENDCHAR
STARTCHAR uni0937094D092B
ENCODING -1
SWIDTH 1036 0
DWIDTH 29 0
BBX 29 18 0 0
BITMAP
FFFFFFF8
30103000
38103000
3C103000
36103F80
32103860
31103020
30903020
30503020
30303020
30387020
184FF020
0F803020
00003060
000033C0
00003000
00003000
00003000
ENDCHAR
STARTCHAR uni0937094D092E
ENCODING -1
SWIDTH 791 0
DWIDTH 22 0
BBX 23 18 0 0
BITMAP
FFFFFE
301030
381030
3C1030
361030
321030
311030
309030
30DFF0
307030
303030
187030
0FD030
000030
000030
000030
000030
000030
ENDCHAR
STARTCHAR uni0937094D092F
ENCODING -1
SWIDTH 877 0
DWIDTH 25 0
BBX 25 18 0 0
BITMAP
FFFFFF80
30020400
38010400
38010400
34010400
32010400
31030400
319E0400
30D00400
30500400
30300400
18700400
0FD00C00
00181C00
000FF400
00000400
00000400
00000400
ENDCHAR
STARTCHAR uni0937094D0935
ENCODING -1
SWIDTH 802 0
DWIDTH 22 0
BBX 23 18 0 0
BITMAP
FFFFFE
300010
380010
3C0010
340710
321810
311010
309010
30D010
307010
303010
187010
0FD030
001830
000FD0
000010
000010
000010
ENDCHAR
STARTCHAR uni0937094D0937
ENCODING -1
SWIDTH 804 0
DWIDTH 23 0
BBX 23 18 0 0
BITMAP
FFFFFE
301010
381810
381410
341610
321310
311110
319090
30D050
305070
303030
187830
0FCFD0
000010
000010
000010
000010
000010
ENDCHAR
STARTCHAR uni0938094D0915
ENCODING -1
SWIDTH 1089 0
DWIDTH 30 0
BBX 31 18 0 0
BITMAP
FFFFFFFE
06000800
06000800
06000800
0603CBE0
06060C30
060C0818
04080818
0C080818
7FF80818
60080818
20080818
300C1818
100C1830
0807E9E0
0C000800
04000800
06000800
ENDCHAR
STARTCHAR uni0938094D0916
ENCODING -1
SWIDTH 990 0
DWIDTH 28 0
BBX 28 18 0 0
BITMAP
FFFFFFF0
06020080
06020080
06020080
06020080
06021C80
06023080
04026080
0C066080
7FFC6080
60606080
20306080
30102180
10181E80
080C0080
0C040080
04060080
06030080
ENDCHAR
STARTCHAR uni0938094D091C
ENCODING -1
SWIDTH 970 0
DWIDTH 27 0
BBX 28 18 0 0
BITMAP
FFFFFFF0
06000180
06000180
06000180
06000180
06000180
0603FF80
04006180
0C002180
7FF83180
60003180
20003180
30003180
10003180
08006180
0C0FC180
04000180
06000180
ENDCHAR
STARTCHAR uni0938094D091F
ENCODING -1
SWIDTH 844 0
DWIDTH 24 0
BBX 24 18 0 0
BITMAP
FFFFFF
060018
060018
060018
060018
0603F8
060600
040C00
0C0800
7FF800
600800
200800
300804
100804
080C04
0C040C
0407F8
060000
ENDCHAR
STARTCHAR uni0938094D0924
ENCODING -1
SWIDTH 852 0
DWIDTH 24 0
BBX 24 18 0 0
BITMAP
FFFFFF
060008
060008
060008
060008
060008
0607F8
040C08
0C0808
7FF808
600808
200808
300808
100808
080808
0C0808
040C08
060788
ENDCHAR
STARTCHAR uni0938094D0925
ENCODING -1
SWIDTH 960 0
DWIDTH 27 0
BBX 27 18 0 0
BITMAP
FFE3C1E0
06066100
06042100
06042100
06042100
06042100
04002100
0C006100
7FFFC100
60080100
20080100
30080100
100C0100
18060300
0803FD00
0C000100
04000100
06000100
ENDCHAR
STARTCHAR uni0938094D0926
ENCODING -1
SWIDTH 851 0
DWIDTH 24 0
BBX 24 18 0 0
BITMAP
FFFFFF
060008
060008
060008
060008
0603F8
060600
040C00
0C0800
7FF800
600800
20080C
300C0C
18040C
0807FC
0C000C
04000C
06000C
ENDCHAR
STARTCHAR uni0938094D092A
ENCODING -1
SWIDTH 857 0
DWIDTH 24 0
BBX 24 18 0 0
BITMAP
FFFFFF
060C08
060C08
060C08
060C08
060C08
060C08
040C08
0C0C08
7FFC08
600C08
200618
3003F8
100008
080008
0C0008
040008
060008
ENDCHAR
STARTCHAR uni0938094D092B
ENCODING -1
SWIDTH 1092 0
DWIDTH 31 0
BBX 31 18 0 0
BITMAP
FFFFFFFE
060C0800
060C0800
060C0800
060C0BE0
060C0C30
060C0818
040C0818
0C0C0818
7FFC0818
600C1818
2007E818
30000818
10000830
080009E0
0C000800
04000800
06000800
ENDCHAR
STARTCHAR uni0938094D092C
ENCODING -1
SWIDTH 857 0
DWIDTH 24 0
BBX 24 18 0 0
BITMAP
FFFFFF
060008
060008
060008
0603C8
060608
060E08
040B08
0C0988
7FF8C8
600868
200838
300C18
100C18
0807F8
0C0008
040008
060008
ENDCHAR
STARTCHAR uni0938094D092E
ENCODING -1
SWIDTH 850 0
DWIDTH 24 0
BBX 24 18 0 0
BITMAP
FFFFFF
060C08
060C08
060C08
060C08
060C08
060C08
040C08
0C0C08
7FFFF8
600C08
200C08
300C08
100808
080008
0C0008
040008
060008
ENDCHAR
STARTCHAR uni0938094D092F
ENCODING -1
SWIDTH 920 0
DWIDTH 26 0
BBX 26 18 0 0
BITMAP
FFFFFFC0
06018200
06008200
06008200
06008200
06008200
06018200
040F0200
0C080200
7FF80200
60080200
20080200
300C0600
10060E00
0803FA00
0C000200
04000200
06000200
ENDCHAR
STARTCHAR uni0938094D0932
ENCODING -1
SWIDTH 1027 0
DWIDTH 29 0
BBX 29 18 0 0
BITMAP
FFFFFFF8
06000040
06000040
06000040
06000040
0603CF40
060478C0
04083040
0C083040
7FF83040
60083040
20083040
30080040
10080040
08080040
0C0C0040
0407C040
06000040
ENDCHAR
STARTCHAR uni0938094D0935
ENCODING -1
SWIDTH 842 0
DWIDTH 24 0
BBX 24 18 0 0
BITMAP
FFFFFF
060008
060008
060008
0603C8
060608
060C08
040808
0C0808
7FF808
600808
200808
300818
100C18
0807E8
0C0008
040008
060008
ENDCHAR
STARTCHAR uni0938094D0938
ENCODING -1
SWIDTH 871 0
DWIDTH 24 0
BBX 25 18 0 0
BITMAP
FFFFFF80
06060C00
06060C00
06060C00
06060C00
06060C00
06060C00
04060C00
0C040C00
7FFFFC00
60600C00
20300C00
30100C00
10180C00
08080C00
0C0C0C00
04060C00
06020C00
ENDCHAR
STARTCHAR uni0939094D0923
ENCODING -1
SWIDTH 1136 0
DWIDTH 32 0
BBX 32 25 0 -7
BITMAP
FFFFFFFF
00210208
00210208
00210208
0FE10208
18010208
30010208
30010208
30010208
10010208
0FC18208
18618608
3020FC08
20200008
20200008
20000008
30000008
10000008
0FE00000
00000000
00000000
01800000
00C00000
00400000
00600000
ENDCHAR
STARTCHAR uni0939094D092E
ENCODING -1
SWIDTH 746 0
DWIDTH 21 0
BBX 21 20 0 -2
BITMAP
FFFFF8
002040
002040
002040
1FE040
300040
300040
200040
300040
300040
0FE040
102040
302040
203FC0
202040
202040
202040
200040
300040
1FE000
ENDCHAR
STARTCHAR uni0939094D092F
ENCODING -1
SWIDTH 785 0
DWIDTH 22 0
BBX 22 22 0 -4
BITMAP
FFFFFC
002020
002020
002020
1FE020
300020
200020
200020
300020
1FF820
100C20
300420
200420
200420
207C20
204020
204020
206020
203060
101FA0
1F8020
000020
ENDCHAR
STARTCHAR uni0939094D0932
ENCODING -1
SWIDTH 1110 0
DWIDTH 31 0
BBX 31 26 0 -8
BITMAP
FFFFFFFE
00200018
00200018
00200018
0FE00018
1800F3F8
30019E38
30030C18
30030418
10020418
0FC20418
18620418
30220018
20230018
20230018
20010018
3000F018
10000018
0FE00000
00000000
00000000
01000000
01800000
00C00000
00400000
00600000
ENDCHAR
STARTCHAR uni0939094D0935
ENCODING -1
SWIDTH 920 0
DWIDTH 26 0
BBX 26 25 0 -7
BITMAP
FFFFFFC0
00200200
00200200
00200200
0FE0F200
18018200
30030200
30020200
30020200
10020200
0FC20200
18620200
30230200
20210600
2020FA00
20000200
30000200
10000200
0FE00000
00000000
00000000
01800000
00800000
00C00000
00600000
ENDCHAR
STARTCHAR uni0915093C094D0915093C
ENCODING -1
SWIDTH 1275 0
DWIDTH 36 0
BBX 36 19 0 -1
BITMAP
FFFFFFFFF0
0060004000
0060004000
0060004000
0E6F9E5F00
3070F06180
20606060C0
2060404040
2060404040
2060404040
2060404040
2060404040
20606040C0
30E020C080
1FE01F4F80
0060004000
0060004000
0060004000
0800180000
ENDCHAR
STARTCHAR uni0915093C094D0924
ENCODING -1
SWIDTH 1016 0
DWIDTH 28 0
BBX 29 19 0 -1
BITMAP
FFFFFFF8
00600040
00600040
00600040
0E6F8040
3070C040
20607FC0
20606040
20604040
2060C040
2060C040
2060C040
2060C040
30E0C040
1FE0C040
00604040
00606040
00603840
08000000
ENDCHAR
STARTCHAR uni0915093C094D092B
ENCODING -1
SWIDTH 1246 0
DWIDTH 35 0
BBX 35 19 0 -1
BITMAP
FFFFFFFFE0
0060C08000
0060C08000
0060C08000
0E60C0BE00
306FC0E300
2070C0C180
2060C08080
2060C08080
2060408080
2060618080
20603F8080
2060008080
30E0008180
1FE0009F00
0060008000
0060008000
0060008000
0800000000
ENDCHAR
STARTCHAR uni0915093C094D092B093C
ENCODING -1
SWIDTH 1247 0
DWIDTH 35 0
BBX 35 19 0 -1
BITMAP
FFFFFFFFE0
0060408000
0060408000
0060408000
0E6040BE00
306FC0E300
207040C080
2060408080
2060408080
2060408080
2060618080
20603F8080
2060008080
30E0008180
1FE0009F00
0060008000
0060008000
0060008000
0800300000
ENDCHAR
STARTCHAR uni0915093C094D092C
ENCODING -1
SWIDTH 1043 0
DWIDTH 29 0
BBX 30 19 0 -1
BITMAP
FFFFFFFC
00600060
00600060
00600060
0E6F9E60
3070F060
20607060
20606860
20606460
20606660
20606360
206061E0
206060E0
30E030E0
1FE01FE0
00600060
00600060
00600060
08000000
ENDCHAR
STARTCHAR uni0915093C094D092E
ENCODING -1
SWIDTH 998 0
DWIDTH 28 0
BBX 28 19 0 -1
BITMAP
FFFFFFF0
0060C080
0060C080
0060C080
0E60C080
306FC080
2070C080
2060C080
2060FF80
2060C080
2060C080
2060C080
2060C080
30E00080
1FE00080
00600080
00600080
00600080
08000000
ENDCHAR
STARTCHAR uni0916093C094D0924
ENCODING -1
SWIDTH 984 0
DWIDTH 28 0
BBX 28 19 0 -1
BITMAP
FFFFFFF0
02000080
02000080
02000080
02000080
021C0080
02207F80
0260C080
06408080
7C408080
60408080
20408080
10608080
183F8080
08008080
04008080
0600C080
03007080
000C0000
ENDCHAR
STARTCHAR uni0916093C094D092E
ENCODING -1
SWIDTH 965 0
DWIDTH 27 0
BBX 27 19 0 -1
BITMAP
FFFFFFE0
02018100
02008100
02008100
02008100
021C8100
02208100
02608100
0640FF00
7C408100
60408100
20618100
10610100
183F0100
0C000100
04000100
06000100
03000100
000C0000
ENDCHAR
STARTCHAR uni0916093C094D092F
ENCODING -1
SWIDTH 1045 0
DWIDTH 29 0
BBX 30 19 0 -1
BITMAP
FFFFFFFC
02003060
02001860
02000860
02000860
021C1860
02201060
0261F060
06418060
7C418060
60418060
20418060
10618060
183EC0E0
08007FE0
04000060
06000060
03000060
00080000
ENDCHAR
STARTCHAR uni0916093C094D0935
ENCODING -1
SWIDTH 972 0
DWIDTH 27 0
BBX 28 19 0 -1
BITMAP
FFFFFFF0
02000180
02000180
02000180
02007980
021CC180
02208180
02618180
06418180
7C418180
60418180
20418180
10218180
181EC380
08007F80
04000180
06000180
03000180
00080000
ENDCHAR
STARTCHAR uni0916093C094D0936
ENCODING -1
SWIDTH 1123 0
DWIDTH 31 0
BBX 32 19 0 -1
BITMAP
FFFC3C0F
02006608
0200C308
0200C308
0200C308
021C4308
02200308
02600208
06400608
7C43FC08
60410008
20418008
1061C008
183E4008
08006008
04003008
06001008
03001808
00080000
ENDCHAR
STARTCHAR uni0916093C094D0938
ENCODING -1
SWIDTH 1066 0
DWIDTH 30 0
BBX 30 19 0 -1
BITMAP
FFFFFFFC
02001020
02001020
02001020
02001020
021C1020
02201020
02601020
06403020
7C41FFE0
60418020
20408020
1061C020
183E4020
08006020
04002020
06003020
03001820
00080000
ENDCHAR
STARTCHAR uni091C093C094D091C093C
ENCODING -1
SWIDTH 934 0
DWIDTH 26 0
BBX 26 19 0 -1
BITMAP
FFFFFFC0
00000600
00000600
00000600
00000600
00000600
3FE7FE00
06018600
0300C600
0300C600
0300C600
0300C600
0300C600
0300C600
02008600
7C3F0600
00000600
00000600
30060000
ENDCHAR
STARTCHAR uni091C093C094D092F
ENCODING -1
SWIDTH 893 0
DWIDTH 25 0
BBX 25 19 0 -1
BITMAP
FFFFFF80
00030400
00010400
00018400
00018400
3FF18400
06110400
021E0400
03100400
03100400
03100400
03180400
03180400
020C0C00
0607F400
7C000400
00000400
00000400
30000000
ENDCHAR
STARTCHAR uni092B093C094D091C093C
ENCODING -1
SWIDTH 1100 0
DWIDTH 31 0
BBX 31 19 0 -1
BITMAP
FFFFFFFE
30200010
30200010
30200010
30200010
302F3FF0
30380410
30300210
30200210
30200210
18600210
0FA00210
00200210
00200210
00200610
0020FC10
00200010
00200010
18003000
ENDCHAR
STARTCHAR uni092B093C094D0924
ENCODING -1
SWIDTH 1036 0
DWIDTH 29 0
BBX 29 19 0 -1
BITMAP
FFFFFFF8
30200040
30200040
30200040
30200040
302F8040
30307FC0
30203040
30206040
30204040
18604040
0FA04040
00204040
00204040
00204040
00206040
00206040
00203C40
18000000
ENDCHAR
STARTCHAR uni092B093C094D092B093C
ENCODING -1
SWIDTH 1256 0
DWIDTH 35 0
BBX 36 19 0 -1
BITMAP
FFFFFFFFF0
302040C000
302040C000
302040C000
302040FF00
302FC0E180
303840C080
303040C080
302040C080
302040C080
186061C080
0FA03FC080
002000C080
002000C180
002000CF00
002000C000
002000C000
002000C000
1800100000
ENDCHAR
STARTCHAR uni092B093C094D0938
ENCODING -1
SWIDTH 1141 0
DWIDTH 32 0
BBX 32 19 0 -1
BITMAP
FFFFFFFF
30200408
30200408
30200408
302F0408
30398408
3030C408
30204408
30204C08
30207FF8
18606008
0FA02008
00203008
00201008
00201808
00200808
00200C08
00200608
18000000
ENDCHAR
STARTCHAR uni092C094D091C093C
ENCODING -1
SWIDTH 883 0
DWIDTH 25 0
BBX 25 19 0 -1
BITMAP
FFFFFF80
00000400
00000400
00000400
00000400
0F000400
301FFC00
38010400
2C008400
26008400
22008400
21008400
20808400
20C08400
30618400
1FFF0400
00000400
00000400
00080000
ENDCHAR
STARTCHAR uni0932094D091C093C
ENCODING -1
SWIDTH 1062 0
DWIDTH 30 0
BBX 29 19 0 -1
BITMAP
FFFFFFF8
00000040
00000040
00000040
00000040
0F3CFFC0
19E01840
30C00840
20C00840
20400840
20400840
20400840
20000840
20000840
30001840
1003F040
1F000040
00000040
00008000
ENDCHAR
STARTCHAR uni0936094D0915093C
ENCODING -1
SWIDTH 1093 0
DWIDTH 31 0
BBX 30 19 1 -1
BITMAP
3E1FFFFC
63001000
61001000
41001000
410797C0
010C1860
01181030
01101030
03101010
FE101010
C0101010
60101030
20181030
30083060
180FD3C0
08001000
0C001000
06001000
00040000
ENDCHAR
STARTCHAR uni0924094D0924094D
ENCODING -1
SWIDTH 309 0
DWIDTH 9 0
BBX 12 18 0 0
BITMAP
FFF0
0000
0000
0000
0000
0000
7FF0
0C00
1800
1000
1000
1000
1000
1000
1000
1800
0800
0700
ENDCHAR
STARTCHAR uni0928094D092D094D
ENCODING -1
SWIDTH 505 0
DWIDTH 14 0
BBX 17 13 0 5
BITMAP
FF8380
00C000
004000
004000
004000
004000
004000
3FC000
607F80
404000
404000
604000
004000
ENDCHAR
STARTCHAR uni0928094D0938094D
ENCODING -1
SWIDTH 635 0
DWIDTH 18 0
BBX 21 18 0 0
BITMAP
FFFFF8
000200
000200
000200
000200
000200
000200
3FC600
604400
607FF8
602000
203000
001000
001800
000800
000C00
000600
000200
ENDCHAR
STARTCHAR uni092E094D092D094D
ENCODING -1
SWIDTH 533 0
DWIDTH 15 0
BBX 18 13 0 5
BITMAP
FFC1C0
306000
302000
302000
302000
302000
302000
302000
3FFFC0
302000
302000
302000
202000
ENDCHAR
STARTCHAR uni0932094D092D094D
ENCODING -1
SWIDTH 694 0
DWIDTH 19 0
BBX 23 17 0 1
BITMAP
FFFE1E
000300
000300
000100
000100
0F3F00
19E100
30C100
20C1FE
204100
204100
204100
200100
200000
300000
100000
1F0000
ENDCHAR
STARTCHAR uni0938094D0924094D0930094D
ENCODING -1
SWIDTH 575 0
DWIDTH 16 0
BBX 20 18 0 0
BITMAP
FFFF80
060000
060000
060000
060000
060000
060FC0
041860
0C1030
7FF010
600010
200010
300060
1000C0
080180
0C0300
040C00
061800
ENDCHAR
STARTCHAR uni0915094D0924094D092F
ENCODING -1
SWIDTH 1356 0
DWIDTH 38 0
BBX 38 18 0 0
BITMAP
FFFFFFFFFC
0060001820
0060000820
0060000C20
0E6F800C20
3070C00820
2060401820
20607FF020
2060608020
2060408020
2060408020
2060408020
206040C020
30E0406060
1FE0403FA0
0060400020
0060600020
0060380020
ENDCHAR
STARTCHAR uni0915094D0924094D0930
ENCODING -1
SWIDTH 997 0
DWIDTH 28 0
BBX 28 18 0 0
BITMAP
FFFFFFF0
00600080
00600080
00600080
0E6F8080
3071C080
20607E80
2060C180
20608080
20608080
20608080
20600080
20600180
30E00680
1FE00C80
00601880
00603080
0060C080
ENDCHAR
STARTCHAR uni0915094D0924094D0935
ENCODING -1
SWIDTH 1242 0
DWIDTH 35 0
BBX 35 18 0 0
BITMAP
FFFFFFFFE0
0060000100
0060000100
0060000100
0E6F807900
3070C0C100
20607F8100
2060C10100
2060810100
2060810100
2060810100
2060810100
2060818100
30E0808300
1FE080FD00
0060800100
0060C00100
0060700100
ENDCHAR
STARTCHAR uni0915094D092A094D0930
ENCODING -1
SWIDTH 1007 0
DWIDTH 28 0
BBX 29 19 0 -1
BITMAP
FFFFFFF8
0060C0C0
0060C0C0
0060C0C0
0E60C0C0
306FC0C0
2070C0C0
2060C0C0
2060C0C0
2060C0C0
206040C0
206061C0
20603FC0
30E002C0
1FE00CC0
006018C0
006030C0
006020C0
00004000
ENDCHAR
STARTCHAR uni0915094D0935094D092F
ENCODING -1
SWIDTH 1384 0
DWIDTH 39 0
BBX 39 18 0 0
BITMAP
FFFFFFFFFE
0060000C10
0060000410
0060000410
0E6FBE0410
3071E00410
2060400C10
2060407810
2060404010
2060404010
2060404010
2060404010
2060406030
30E060E070
1FE03F9FD0
0060000010
0060000010
0060000010
ENDCHAR
STARTCHAR uni0915094D0938094D091F
ENCODING -1
SWIDTH 1376 0
DWIDTH 39 0
BBX 39 18 0 0
BITMAP
FFFFFFFFFE
0060060030
0060060030
0060060030
0E6F860030
3070C607F0
2060460C00
2060461800
2060441000
20607FF000
2060601000
2060201008
2060101008
30E0181008
1FE0081808
00600C1818
0060040FF0
0060060000
ENDCHAR
STARTCHAR uni0915094D0938094D0921
ENCODING -1
SWIDTH 1388 0
DWIDTH 39 0
BBX 39 18 0 0
BITMAP
FFFFFFFFFE
0060060010
0060060010
0060060010
0E6F860010
3070C607F0
2060460C00
2060460800
2060440800
20607FF800
2060600FF0
2060300018
2060100008
30E0180008
1FE0080808
00600C0808
0060040818
00600607F0
ENDCHAR
STARTCHAR uni0915094D0938094D0924
ENCODING -1
SWIDTH 1423 0
DWIDTH 40 0
BBX 40 18 0 0
BITMAP
FFFFFFFFFF
0060060008
0060060008
0060060008
0E6F860008
3070C60008
20604607F8
2060460C08
2060440808
20607FF808
2060600808
2060200808
2060100808
30E0180808
1FE0080808
00600C0808
0060040C08
0060060788
ENDCHAR
STARTCHAR uni0915094D0938094D092A094D0930
ENCODING -1
SWIDTH 1437 0
DWIDTH 40 0
BBX 41 19 0 -1
BITMAP
FFFFFFFFFF80
0060060C0C00
0060060C0C00
0060060C0C00
0E6F860C0C00
3070C60C0C00
2060460C0C00
2060460C0C00
2060440C0C00
20607FFC0C00
206060040C00
206020061C00
20601003FC00
30E018002C00
1FE008004C00
00600C008C00
006004010C00
006006020C00
000000040000
ENDCHAR
STARTCHAR uni0915094D0938094D092A094D0932
ENCODING -1
SWIDTH 1866 0
DWIDTH 52 0
BBX 53 18 0 0
BITMAP
FFFFFFFFFFFFF8
0060060C0000C0
0060060C0000C0
0060060C0000C0
0E6F860C0000C0
3070C60C078FC0
2060460C0C51C0
2060460C0820C0
2060440C1820C0
20607FFC1820C0
206060041820C0
206020061820C0
20601003F820C0
30E018001800C0
1FE008001800C0
00600C000C00C0
006004000780C0
006006000000C0
ENDCHAR
STARTCHAR uni0917094D0927094D092F
ENCODING -1
SWIDTH 1156 0
DWIDTH 32 0
BBX 33 18 0 0
BITMAP
FFFCFFFF80
0830020C00
0820030C00
0860010C00
0860010C00
0820010C00
0830030C00
081E3E0C00
0830300C00
1820300C00
7060300C00
0060100C00
0020100C00
0030381C00
001FEFFC00
0000000C00
0000000C00
0000000C00
ENDCHAR
STARTCHAR uni0917094D0927094D0935
ENCODING -1
SWIDTH 1084 0
DWIDTH 30 0
BBX 31 18 0 0
BITMAP
FFFCFFFE
08300030
08200030
08600030
08600F30
08201830
08301030
081E1030
08301030
18201030
70601030
00601030
00201030
00303870
001FEFF0
00000030
00000030
00000030
ENDCHAR
STARTCHAR uni0917094D0928094D092F
ENCODING -1
SWIDTH 1069 0
DWIDTH 30 0
BBX 30 18 0 0
BITMAP
FFFFFFFC
08001820
08000820
08000C20
08000C20
08000820
08001820
087FF020
08608020
18408020
18408020
70408020
0000C020
00006060
00003FA0
00000020
00000020
00000020
ENDCHAR
STARTCHAR uni0917094D092D094D092F
ENCODING -1
SWIDTH 1102 0
DWIDTH 31 0
BBX 31 18 0 0
BITMAP
FFC1FFFE
08600C10
08200410
08200410
08200410
08200410
08200C10
08207810
083FC010
18204010
70204010
00204010
00206010
00003030
00001FD0
00000010
00000010
00000010
ENDCHAR
STARTCHAR uni0917094D0930094D092F
ENCODING -1
SWIDTH 817 0
DWIDTH 23 0
BBX 23 19 0 -1
BITMAP
FFFFFE
080C10
080410
080410
080610
080410
080C10
087810
084010
184010
704010
004010
006010
003030
001FD0
000190
000310
000610
001C00
ENDCHAR
STARTCHAR uni091A094D091B094D0935
ENCODING -1
SWIDTH 913 0
DWIDTH 26 0
BBX 26 21 0 -3
BITMAP
FFFFFFC0
000C0600
00080600
00080600
00080600
00081E00
7F8C0600
08078300
180C0300
10080300
10080300
10080300
18080200
081C0600
0FE7FE00
00060600
000C0600
000C0600
000C0600
00060C00
0003F800
ENDCHAR
STARTCHAR uni091C094D091C094D091E
ENCODING -1
SWIDTH 945 0
DWIDTH 26 0
BBX 27 20 0 -2
BITMAP
FFFFFFE0
00000100
00000100
00000100
00000100
000FFF00
3FF80100
06100100
03100100
03180100
030FE100
03003100
03001100
03101100
02101100
7C183100
001FE100
00100100
00100000
00100000
ENDCHAR
STARTCHAR uni091C094D091C094D092F
ENCODING -1
SWIDTH 1252 0
DWIDTH 35 0
BBX 35 18 0 0
BITMAP
FFFFFFFFE0
000000C180
0000004180
0000006180
0000006180
0000006180
3FE7FC4180
0601878180
0300860180
0300C60180
0300C60180
0300C60180
0300C60180
0300830380
020181FD80
7E3F000180
0000000180
0000000180
ENDCHAR
STARTCHAR uni091C094D091C094D0935
ENCODING -1
SWIDTH 1243 0
DWIDTH 35 0
BBX 33 18 0 0
BITMAP
FFFFFFFF80
0000000400
0000000400
0000000400
000001E400
0000030400
3FE7FE0400
0601860400
0300860400
0300C60400
0300C60400
0300C60400
0300C60400
0300830C00
020181F400
7E3F000400
0000000400
0000000400
ENDCHAR
STARTCHAR uni0924094D0915094D092F
ENCODING -1
SWIDTH 1346 0
DWIDTH 38 0
BBX 38 18 0 0
BITMAP
FFFFFFFFFC
0000401820
0000400820
0000400820
001E400820
0030401820
1FE05FF020
3060708020
3060608020
2060408020
2060408020
2060408020
206040C060
2030C060E0
201FC03FA0
2000400020
3000400020
1E00400020
ENDCHAR
STARTCHAR uni0924094D0915094D0930
ENCODING -1
SWIDTH 995 0
DWIDTH 28 0
BBX 28 19 0 -1
BITMAP
FFFFFFF0
00004000
00004000
00004000
001E5F00
00307180
1FE060C0
30604040
30604040
20604040
20604040
20604040
20604040
2030C0C0
201FCF80
20034000
30064000
1E0C4000
00180000
ENDCHAR
STARTCHAR uni0924094D0915094D0935
ENCODING -1
SWIDTH 1282 0
DWIDTH 36 0
BBX 36 18 0 0
BITMAP
FFFFFFFFF0
0000400080
0000400080
0000400080
001E5F3C80
003071E080
1FE060C080
306040C080
3060408080
2060408080
2060408080
2060408080
206040C080
2030C04180
201F403E80
2000400080
3000400080
1E00400080
ENDCHAR
STARTCHAR uni0924094D0915094D0937
ENCODING -1
SWIDTH 943 0
DWIDTH 26 0
BBX 27 18 0 0
BITMAP
FFC783E0
000C4300
00086300
00182300
00182300
00182300
1FC84300
307FFF00
20380300
20200300
20200300
20202300
20202300
20206300
20306300
201FA300
30002300
0E002300
ENDCHAR
STARTCHAR uni0924094D0916094D0930
ENCODING -1
SWIDTH 1008 0
DWIDTH 28 0
BBX 29 19 0 -1
BITMAP
FFFFFFF8
000300C0
000300C0
000300C0
000300C0
00031CC0
1FC330C0
304320C0
202220C0
203E20C0
202020C0
201020C0
201831C0
20081FC0
200402C0
200604C0
300208C0
1E0118C0
00003000
ENDCHAR
STARTCHAR uni0924094D0924094D092F
ENCODING -1
SWIDTH 888 0
DWIDTH 25 0
BBX 25 18 0 0
BITMAP
FFFFFF80
00030400
00010400
00010400
00010400
00010400
7FE30400
083E0400
18100400
10100400
10100400
10100400
10180400
100C0C00
1007F400
18000400
08000400
0F000400
ENDCHAR
STARTCHAR uni0924094D0924094D0935
ENCODING -1
SWIDTH 788 0
DWIDTH 22 0
BBX 22 18 0 0
BITMAP
FFFFFC
000020
000020
000020
000F20
001820
7FF020
0C3020
183020
103020
103020
103020
103020
101860
100FE0
180020
080020
070020
ENDCHAR
STARTCHAR uni0924094D0928094D092F
ENCODING -1
SWIDTH 1098 0
DWIDTH 31 0
BBX 31 18 0 0
BITMAP
FFFFFFFE
00000C10
00000410
00000410
00000410
00000410
1FC00C10
307FF810
20304010
20604010
20604010
20204010
20006030
20003070
20001FD0
20000010
30000010
1E000010
ENDCHAR
STARTCHAR uni0924094D092A094D0930
ENCODING -1
SWIDTH 763 0
DWIDTH 21 0
BBX 22 19 0 -1
BITMAP
FFFFFC
002060
002060
002060
002060
002060
1FE060
302060
302060
202060
202060
2030E0
201FE0
200160
200260
200460
300860
1E1060
002000
ENDCHAR
STARTCHAR uni0924094D092A094D0932
ENCODING -1
SWIDTH 1219 0
DWIDTH 34 0
BBX 35 18 0 0
BITMAP
FFFFFFFFE0
0020000300
0020000300
0020000300
0020000300
00201E3F00
1FE0334700
3020618300
3020608300
2020608300
2020608300
2030E08300
201FE08300
2000600300
2000600300
2000300300
30001E0300
1E00000300
ENDCHAR
STARTCHAR uni0924094D092E094D092F
ENCODING -1
SWIDTH 1096 0
DWIDTH 31 0
BBX 31 18 0 0
BITMAP
FFFFFFFE
00200C10
00200410
00200410
00200410
00200410
1FE00C10
30207810
303FC010
20204010
20204010
20204010
20206030
20002070
20001FD0
20000010
30000010
1E000010
ENDCHAR
STARTCHAR uni0924094D0930094D092F
ENCODING -1
SWIDTH 848 0
DWIDTH 24 0
BBX 24 18 0 0
BITMAP
FFFFFF
000608
000208
000208
000208
1F8208
306608
203C08
202008
202008
202008
002008
00F018
019838
030FE8
060008
1C0008
300008
ENDCHAR
STARTCHAR uni0924094D0938094D092F
ENCODING -1
SWIDTH 1234 0
DWIDTH 35 0
BBX 35 18 0 0
BITMAP
FFFFFFFFE0
0003008100
0003004100
0003004100
0003004100
0003004100
1FC300C100
3063078100
2026040100
203FFC0100
2030040100
2010040100
2008040300
200C060700
200403FD00
2006000100
3002000100
1E03000100
ENDCHAR
STARTCHAR uni0924094D0938094D0935
ENCODING -1
SWIDTH 1155 0
DWIDTH 32 0
BBX 33 18 0 0
BITMAP
FFFFFFFF80
0003000C00
0003000C00
0003000C00
000303CC00
0003060C00
1FC3040C00
3063040C00
2026040C00
203FFC0C00
2030040C00
2010040C00
2008040C00
200C061C00
200403FC00
2006000C00
3002000C00
1E03000C00
ENDCHAR
STARTCHAR uni0926094D0917094D0930
ENCODING -1
SWIDTH 493 0
DWIDTH 14 0
BBX 14 24 0 -6
BITMAP
FFFC
0020
0020
0020
0020
0FE0
1800
3000
2000
2000
2010
2030
2030
3030
1FF0
0430
0430
0430
0470
0CF0
38B0
0130
0330
0600
ENDCHAR
STARTCHAR uni0926094D092C094D0930
ENCODING -1
SWIDTH 483 0
DWIDTH 14 0
BBX 14 25 0 -7
BITMAP
FFFC
0020
0020
0020
0020
0FE0
1800
3000
2000
2000
2000
2030
2030
2030
3070
1FF0
1830
3630
3330
30A0
1060
1FC0
0080
0300
0600
ENDCHAR
STARTCHAR uni0926094D092F094D092D
ENCODING -1
SWIDTH 607 0
DWIDTH 17 0
BBX 17 23 0 -5
BITMAP
FFFF80
008400
008400
008400
0F8400
180400
300400
300400
100400
0F0400
180400
300400
300400
100C00
1FFC00
003400
004400
788400
470400
020400
010400
018400
008400
ENDCHAR
STARTCHAR uni0926094D092F094D0930
ENCODING -1
SWIDTH 595 0
DWIDTH 17 0
BBX 17 20 0 -2
BITMAP
FFFF80
018400
018400
018400
1F8400
380400
200400
200400
300400
1F0400
180400
300400
200400
200400
300C00
1FF400
006400
00C400
018000
010000
ENDCHAR
STARTCHAR uni0927094D0928094D092F
ENCODING -1
SWIDTH 1138 0
DWIDTH 32 0
BBX 32 18 0 0
BITMAP
FE7FFFFF
10000608
30000208
20000208
20000208
30000208
1F000608
101FFC08
30182008
20302008
20302008
30102008
10303008
1FF81818
00000FE8
00000008
00000008
00000008
ENDCHAR
STARTCHAR uni0928094D0915094D0938
ENCODING -1
SWIDTH 1384 0
DWIDTH 39 0
BBX 39 18 0 0
BITMAP
FFFFFFFFFE
0000C00810
0000C00810
0000C00810
003CDE0810
0060E30810
0040C18810
3FC0C08810
6040C09810
4040C0FFF0
4040C08010
6040C0C010
0040C06010
0061C02010
003FC03010
0000C01010
0000C01810
0000C00C10
ENDCHAR
STARTCHAR uni0928094D0924094D092F
ENCODING -1
SWIDTH 1073 0
DWIDTH 30 0
BBX 30 18 0 0
BITMAP
FFFFFFFC
00001820
00000820
00000C20
00000C20
00000C20
00000820
3FFFF020
60608020
40408020
40408020
6040C020
2040C020
00406060
00403FA0
00400020
00600020
00380020
ENDCHAR
STARTCHAR uni0928094D0924094D0930
ENCODING -1
SWIDTH 732 0
DWIDTH 21 0
BBX 21 18 0 0
BITMAP
FFFFF8
000040
000040
000040
000040
000040
003F40
3FE0C0
6040C0
404040
404040
6000C0
0001C0
000340
000640
001840
003040
006040
ENDCHAR
STARTCHAR uni0928094D0924094D0938
ENCODING -1
SWIDTH 1134 0
DWIDTH 32 0
BBX 32 18 0 0
BITMAP
FFFFFFFF
00000408
00000408
00000408
00000408
003F0408
00608408
3FC0C408
60404C08
40407FF8
40404008
60406008
20403008
00401008
00401808
00400808
00600C08
00380608
ENDCHAR
STARTCHAR uni0928094D0925094D092F
ENCODING -1
SWIDTH 1168 0
DWIDTH 33 0
BBX 33 18 0 0
BITMAP
FE1E3FFF80
0033020400
0061010400
0061010400
0061010400
0001010400
0001030400
00031E0400
3FFE100400
6040100400
6040100400
6040100400
6040180C00
0060381C00
003FE7F400
0000000400
0000000400
0000000400
ENDCHAR
STARTCHAR uni0928094D0925094D0935
ENCODING -1
SWIDTH 1089 0
DWIDTH 30 0
BBX 31 18 0 0
BITMAP
FE1E3FFE
00330010
00610010
00610010
00610790
00011810
00011010
00031010
3FFE1010
60401010
60401010
60401010
60401030
00603830
003FEFD0
00000010
00000010
00000010
ENDCHAR
STARTCHAR uni0928094D0926094D0930
ENCODING -1
SWIDTH 734 0
DWIDTH 21 0
BBX 21 19 0 -1
BITMAP
FFFFF8
000040
000040
000040
000040
003FC0
006000
3FC000
604000
404000
404000
604040
004040
006040
003FC0
000340
000640
000C40
000800
ENDCHAR
STARTCHAR uni0928094D0926094D0935
ENCODING -1
SWIDTH 732 0
DWIDTH 21 0
BBX 21 21 0 -3
BITMAP
FFFFF8
000040
000040
000040
000040
003FC0
006000
3FC000
604000
404000
404040
604040
004040
0060C0
003FC0
006040
004040
004040
004040
0060C0
003F80
ENDCHAR
STARTCHAR uni0928094D0927094D092F
ENCODING -1
SWIDTH 1097 0
DWIDTH 31 0
BBX 31 18 0 0
BITMAP
FFF9FFFE
00600C10
00C00410
00C00410
00C00410
00C00410
00400C10
3FFC7810
60604010
60C04010
60C04010
60C04010
00C06030
00406070
003FDFD0
00000010
00000010
00000010
ENDCHAR
STARTCHAR uni0928094D0927094D0930
ENCODING -1
SWIDTH 783 0
DWIDTH 22 0
BBX 22 19 0 -1
BITMAP
FFF9FC
006020
00C020
00C020
00C020
00C020
004020
3FFC20
606020
60C020
60C020
20C020
00C020
006060
003FE0
0001A0
000720
000C20
001800
ENDCHAR
STARTCHAR uni0928094D0927094D0935
ENCODING -1
SWIDTH 1036 0
DWIDTH 29 0
BBX 29 18 0 0
BITMAP
FFF9FFF8
00600040
00C00040
00C00040
00C01E40
00C03040
00406040
3FFC6040
60606040
60C06040
60C06040
20C06040
00C06040
004070C0
003FDFC0
00000040
00000040
00000040
ENDCHAR
STARTCHAR uni0928094D0928094D092F
ENCODING -1
SWIDTH 1071 0
DWIDTH 30 0
BBX 30 18 0 0
BITMAP
FFFFFFFC
00001820
00000820
00000C20
00000C20
00000C20
00001820
3FFFF020
60608020
40408020
40408020
60408020
0000C020
00006060
00003FA0
00000020
00000020
00000020
ENDCHAR
STARTCHAR uni0928094D092A094D0930
ENCODING -1
SWIDTH 737 0
DWIDTH 21 0
BBX 21 19 0 -1
BITMAP
FFFFF8
004040
004040
004040
004040
004040
004040
3FC040
604040
404040
4040C0
6060C0
203F40
000240
000440
000C40
001840
003040
006000
ENDCHAR
STARTCHAR uni0928094D092B094D0930
ENCODING -1
SWIDTH 975 0
DWIDTH 27 0
BBX 28 18 0 0
BITMAP
FFFFFFF0
0040C000
0040C000
0040C000
0040DF00
0040E180
0040C080
3FC0C0C0
6040C0C0
4040C0C0
4061C0C0
603FC0C0
0002C080
0004C180
0008CF00
0018C000
0030C000
0060C000
ENDCHAR
STARTCHAR uni0928094D092D094D092F
ENCODING -1
SWIDTH 1071 0
DWIDTH 30 0
BBX 30 18 0 0
BITMAP
FF83FFFC
00C01820
00400820
00400C20
00400C20
00400820
00401820
3FC0F020
607F8020
40408020
40408020
6040C020
0040C020
00006060
00003FA0
00000020
00000020
00000020
ENDCHAR
STARTCHAR uni0928094D092D094D0935
ENCODING -1
SWIDTH 995 0
DWIDTH 28 0
BBX 28 18 0 0
BITMAP
FF83FFF0
00C00080
00400080
00400080
00403C80
00406080
0040C080
3FC08080
607F8080
40408080
40408080
60408080
0040C080
00004180
00003E80
00000080
00000080
00000080
ENDCHAR
STARTCHAR uni0928094D092E094D092F
ENCODING -1
SWIDTH 1071 0
DWIDTH 30 0
BBX 30 18 0 0
BITMAP
FFFFFFFC
00401820
00400820
00400C20
00400C20
00400820
00401820
3FC0F020
607F8020
40408020
40408020
6040C020
0040C020
00006060
00003FA0
00000020
00000020
00000020
ENDCHAR
STARTCHAR uni0928094D0938094D091F
ENCODING -1
SWIDTH 1113 0
DWIDTH 31 0
BBX 32 18 0 0
BITMAP
FFFFFFFF
00040010
00040010
00040010
00040010
000407F0
00040C00
3F840800
60CC0800
607FF800
60401800
60201800
0030180C
0010180C
0018080C
00080C18
000C07F0
00060000
ENDCHAR
STARTCHAR uni0928094D0938094D092E094D092F
ENCODING -1
SWIDTH 1453 0
DWIDTH 41 0
BBX 41 18 0 0
BITMAP
FFFFFFFFFF80
000408020400
000408010400
000408010400
000408010400
000408010400
000408030400
3F84081E0400
60CC08100400
40FFFFF00400
404008100400
606008100400
002008180C00
003008081C00
00180007F400
000800000400
000C00000400
000600000400
ENDCHAR
STARTCHAR uni0928094D0938094D092F
ENCODING -1
SWIDTH 1194 0
DWIDTH 33 0
BBX 34 18 0 0
BITMAP
FFFFFFFFC0
0004030600
0004018600
0004018600
0004018600
0004018600
0004010600
3F841F0600
608C180600
40FFF80600
4040180600
6060180600
0020080600
00300C0E00
001807F600
0008000600
000C000600
0006000600
ENDCHAR
STARTCHAR uni092A094D0924094D092F
ENCODING -1
SWIDTH 1119 0
DWIDTH 31 0
BBX 32 18 0 0
BITMAP
FFFFFFFF
30000418
30000618
30000218
30000218
30000218
30000618
301FFC18
30306018
30306018
30206018
18606018
0FE02018
00203038
00201FF8
00200018
00300018
001E0018
ENDCHAR
STARTCHAR uni092C094D091C094D092F
ENCODING -1
SWIDTH 1235 0
DWIDTH 35 0
BBX 35 18 0 0
BITMAP
FFFFFFFFE0
0000008100
0000004100
0000004100
0000004100
0F1FF84100
300104C100
2800878100
2C00840100
2400840100
2200840100
2100840100
2080840300
20C0820700
306181FD00
1FFF000100
0000000100
0000000100
ENDCHAR
STARTCHAR uni092C094D0927094D0935
ENCODING -1
SWIDTH 1097 0
DWIDTH 31 0
BBX 31 18 0 0
BITMAP
FFFE3FFE
00100010
00300010
00200010
0F200790
38300C10
38101810
2C0F1010
24101010
22301010
21201010
20A01010
20701810
30701830
1F9FE7D0
00000010
00000010
00000010
ENDCHAR
STARTCHAR uni092C094D092D094D0930
ENCODING -1
SWIDTH 764 0
DWIDTH 21 0
BBX 22 18 0 0
BITMAP
FFC1FC
006060
002060
002060
0F2060
302060
382060
2C2060
263FE0
222060
212060
20A0E0
206160
306360
1FC660
000C60
000860
003060
ENDCHAR
STARTCHAR uni092C094D0932094D092F
ENCODING -1
SWIDTH 480 0
DWIDTH 13 0
BBX 37 18 0 0
BITMAP
FFFFFFFFF8
0000003040
0000001040
0000001040
0F00001840
380F3E1040
3019E31040
2830C1E040
2420C10040
2220C10040
2120C10040
20A0010040
2060018040
306000C0C0
1FD0007F40
001F000040
0000000040
0000000040
ENDCHAR
STARTCHAR uni092D094D0930094D092F
ENCODING -1
SWIDTH 830 0
DWIDTH 23 0
BBX 24 18 0 0
BITMAP
C1FFFF
600C18
300618
300218
300218
300618
300418
307818
3FE018
306018
306018
30E018
31A018
033038
021FF8
040018
0C0018
180018
ENDCHAR
STARTCHAR uni092E094D092A094D0930
ENCODING -1
SWIDTH 765 0
DWIDTH 21 0
BBX 22 19 0 -1
BITMAP
FFFFFC
302060
302060
302060
302060
302060
302060
302060
3FE060
302060
302060
3030E0
301FE0
000160
000260
000460
000860
001060
003000
ENDCHAR
STARTCHAR uni092E094D092C094D092F
ENCODING -1
SWIDTH 1124 0
DWIDTH 31 0
BBX 32 18 0 0
BITMAP
FFFFFFFF
30000408
30000208
30000208
301E0208
30300208
30300608
30783C08
3FEC2008
30662008
30632008
3061A018
3020E018
00307038
001F9FE8
00000008
00000008
00000008
ENDCHAR
STARTCHAR uni092E094D092C094D0930
ENCODING -1
SWIDTH 768 0
DWIDTH 22 0
BBX 22 19 0 -1
BITMAP
FFFFFC
300020
300020
300020
301F20
303020
303020
302820
3FE420
302220
302120
3020A0
202060
0030E0
001FA0
000120
000220
000C20
001800
ENDCHAR
STARTCHAR uni092E094D092D094D092F
ENCODING -1
SWIDTH 1101 0
DWIDTH 31 0
BBX 31 18 0 0
BITMAP
FFC1FFFE
30600C10
30200410
30200410
30200410
30200410
30200C10
30207810
3FFFC010
30204010
30204010
30204010
30206030
00003030
00001FD0
00000010
00000010
00000010
ENDCHAR
STARTCHAR uni092E094D092D094D0930
ENCODING -1
SWIDTH 759 0
DWIDTH 21 0
BBX 22 18 0 0
BITMAP
FFC3FC
306060
302060
302060
302060
302060
302060
302060
3FFFE0
302060
3020E0
3020E0
302160
000260
000660
000C60
001860
003060
ENDCHAR
STARTCHAR uni092E094D092D094D0935
ENCODING -1
SWIDTH 1028 0
DWIDTH 29 0
BBX 29 18 0 0
BITMAP
FFC1FFF8
30600040
30200040
30200040
30201E40
30203040
30206040
30204040
3FFFC040
30204040
30204040
30204040
30206040
000020C0
00001F40
00000040
00000040
00000040
ENDCHAR
STARTCHAR uni0932094D0915094D092F
ENCODING -1
SWIDTH 1534 0
DWIDTH 43 0
BBX 43 18 0 0
BITMAP
FFFFFFFFFFE0
00000300C100
000003004100
000003006100
0000F3006100
0F3D83004100
19E303FF8100
30C103840100
20C103040100
204103040100
204103040100
204103060100
200103060100
200187030300
3000FF01FD00
100003000100
1F0003000100
000003000100
ENDCHAR
STARTCHAR uni0932094D0925094D092F
ENCODING -1
SWIDTH 1397 0
DWIDTH 39 0
BBX 40 18 0 0
BITMAP
FFF878FFFF
0000CC0C18
0000840618
0000840618
0000840618
0F3C040618
19A2040418
30C30C7818
20C1F86018
2041006018
2041006018
2041006018
2001006018
200080F038
30007F9FD8
1000000018
1F00000018
0000000018
ENDCHAR
ENDFONT
